<?xml version='1.0' encoding='utf-8'?>
<svg height="469.40mm" viewBox="0.0 0.0 222.20 469.40" width="222.20mm" xmlns="http://www.w3.org/2000/svg" xmlns:cc="http://creativecommons.org/ns#" xmlns:dc="http://purl.org/dc/elements/1.1/" xmlns:inkscape="http://www.inkscape.org/namespaces/inkscape" xmlns:rdf="http://www.w3.org/1999/02/22-rdf-syntax-ns#" xmlns:svg="http://www.w3.org/2000/svg" xmlns:xlink="http://www.w3.org/1999/xlink">
<!--
CompartmentBox - Type tray variation with sliding lid


Sliding lid rests on inner walls,
so will not work if no inner walls are present.
Suggested to place walls close to both sides for maximum stability.
Margin helps to prevent the lid from getting stuck.
Vertical margin increases the overall height.
The lip holding the lid in place can be generated as two separate
pieces or as a single piece that continues at the back.

![Closed](static/samples/CompartmentBox-closed.jpg)
![Half open](static/samples/CompartmentBox-lid.jpg)



Created with Boxes.py (https://boxes.hackerspace-bamberg.de/)
Creation date: 2026-09-06 08:56:57
Command line (remove spaces between dashes): boxes CompartmentBox - -sx - -sy - -h - -bottom_edge - -split_lip - -thickness - -burn - -reference - -labels
-->
<title>CompartmentBox</title>
<metadata>
<rdf:RDF><cc:Work>
<dc:title>Tray - CompartmentBox</dc:title>
<dc:date>2026-09-06 08:56:57</dc:date>
<dc:source>boxes CompartmentBox --sx '40*2' --sy '60*2' --h 80 --outside 1 --bottom_edge s --handle lip --radius 10 --holes 70 --margin_t 0.2 --margin_s 0.1 --split_lip 0 --thickness 4 --burn 0.05 --reference 0 --labels 0</dc:source>
<dc:description>Type tray variation with sliding lid

Sliding lid rests on inner walls,
so will not work if no inner walls are present.
Suggested to place walls close to both sides for maximum stability.
Margin helps to prevent the lid from getting stuck.
Vertical margin increases the overall height.
The lip holding the lid in place can be generated as two separate
pieces or as a single piece that continues at the back.

![Closed](static/samples/CompartmentBox-closed.jpg)
![Half open](static/samples/CompartmentBox-lid.jpg)


Created with Boxes.py (https://boxes.hackerspace-bamberg.de/)
Command line: boxes CompartmentBox --sx '40*2' --sy '60*2' --h 80 --outside 1 --bottom_edge s --handle lip --radius 10 --holes 70 --margin_t 0.2 --margin_s 0.1 --split_lip 0 --thickness 4 --burn 0.05 --reference 0 --labels 0
Command line short: boxes CompartmentBox --sx --sy --h --bottom_edge --split_lip --thickness --burn --reference --labels
</dc:description>
</cc:Work></rdf:RDF></metadata>
<g id="p-0" style="fill:none;stroke-linecap:round;stroke-linejoin:round;">
  <path d="M 52.000 429.750 V 433.700 C 52.000 433.750 52.050 433.700 52.000 433.700 H 48.100 C 48.050 433.700 48.100 433.750 48.100 433.700 V 425.800 C 48.100 425.750 48.050 425.800 48.100 425.800 H 52.000 C 52.050 425.800 52.000 425.750 52.000 425.800 V 429.750 Z" stroke="rgb(0,0,255)" stroke-width="0.10" />
  <path d="M 52.000 413.750 V 417.700 C 52.000 417.750 52.050 417.700 52.000 417.700 H 48.100 C 48.050 417.700 48.100 417.750 48.100 417.700 V 409.800 C 48.100 409.750 48.050 409.800 48.100 409.800 H 52.000 C 52.050 409.800 52.000 409.750 52.000 409.800 V 413.750 Z" stroke="rgb(0,0,255)" stroke-width="0.10" />
  <path d="M 26.050 447.350 H 22.100 C 22.050 447.350 22.100 447.400 22.100 447.350 V 443.450 C 22.100 443.400 22.050 443.450 22.100 443.450 H 30.000 C 30.050 443.450 30.000 443.400 30.000 443.450 V 447.350 C 30.000 447.400 30.050 447.350 30.000 447.350 H 26.050 Z" stroke="rgb(0,0,255)" stroke-width="0.10" />
  <path d="M 42.050 447.350 H 38.100 C 38.050 447.350 38.100 447.400 38.100 447.350 V 443.450 C 38.100 443.400 38.050 443.450 38.100 443.450 H 46.000 C 46.050 443.450 46.000 443.400 46.000 443.450 V 447.350 C 46.000 447.400 46.050 447.350 46.000 447.350 H 42.050 Z" stroke="rgb(0,0,255)" stroke-width="0.10" />
  <path d="M 58.050 447.350 H 54.100 C 54.050 447.350 54.100 447.400 54.100 447.350 V 443.450 C 54.100 443.400 54.050 443.450 54.100 443.450 H 62.000 C 62.050 443.450 62.000 443.400 62.000 443.450 V 447.350 C 62.000 447.400 62.050 447.350 62.000 447.350 H 58.050 Z" stroke="rgb(0,0,255)" stroke-width="0.10" />
  <path d="M 74.050 447.350 H 70.100 C 70.050 447.350 70.100 447.400 70.100 447.350 V 443.450 C 70.100 443.400 70.050 443.450 70.100 443.450 H 78.000 C 78.050 443.450 78.000 443.400 78.000 443.450 V 447.350 C 78.000 447.400 78.050 447.350 78.000 447.350 H 74.050 Z" stroke="rgb(0,0,255)" stroke-width="0.10" />
  <path d="M 14.050 459.400 H 30.050 C 31.463 459.400 32.851 459.028 34.075 458.322 C 35.299 457.615 36.315 456.599 37.022 455.375 C 37.719 454.166 38.723 453.163 39.931 452.465 C 41.140 451.767 42.511 451.400 43.906 451.400 H 56.194 C 57.589 451.400 58.960 451.767 60.169 452.465 C 61.377 453.163 62.381 454.166 63.078 455.375 C 63.785 456.599 64.801 457.615 66.025 458.322 C 67.249 459.028 68.637 459.400 70.050 459.400 H 86.050 H 90.050 C 90.078 459.400 90.100 459.378 90.100 459.350 V 451.350 C 90.100 451.322 90.078 451.300 90.050 451.300 H 86.100 C 86.050 451.300 86.100 451.350 86.100 451.300 V 443.400 C 86.100 443.350 86.050 443.400 86.100 443.400 H 90.050 C 90.078 443.400 90.100 443.378 90.100 443.350 V 435.350 C 90.100 435.322 90.078 435.300 90.050 435.300 H 86.100 C 86.050 435.300 86.100 435.350 86.100 435.300 V 427.400 C 86.100 427.350 86.050 427.400 86.100 427.400 H 90.050 C 90.078 427.400 90.100 427.378 90.100 427.350 V 419.350 C 90.100 419.322 90.078 419.300 90.050 419.300 H 86.100 C 86.050 419.300 86.100 419.350 86.100 419.300 V 411.400 C 86.100 411.350 86.050 411.400 86.100 411.400 H 90.050 C 90.078 411.400 90.100 411.378 90.100 411.350 V 403.350 C 90.100 403.322 90.078 403.300 90.050 403.300 H 86.100 C 86.050 403.300 86.100 403.350 86.100 403.300 V 395.400 C 86.100 395.350 86.050 395.400 86.100 395.400 H 90.050 C 90.078 395.400 90.100 395.378 90.100 395.350 V 387.350 C 90.100 387.322 90.078 387.300 90.050 387.300 H 86.050 H 70.050 C 68.654 387.300 67.284 386.933 66.075 386.235 C 64.866 385.537 63.863 384.534 63.165 383.325 C 62.459 382.101 61.442 381.085 60.219 380.378 C 58.995 379.672 57.607 379.300 56.194 379.300 H 43.906 C 42.493 379.300 41.105 379.672 39.881 380.378 C 38.658 381.085 37.641 382.101 36.935 383.325 C 36.237 384.534 35.234 385.537 34.025 386.235 C 32.816 386.933 31.446 387.300 30.050 387.300 H 14.050 H 10.050 C 10.022 387.300 10.000 387.322 10.000 387.350 V 395.350 C 10.000 395.378 10.022 395.400 10.050 395.400 H 14.000 C 14.050 395.400 14.000 395.350 14.000 395.400 V 403.300 C 14.000 403.350 14.050 403.300 14.000 403.300 H 10.050 C 10.022 403.300 10.000 403.322 10.000 403.350 V 411.350 C 10.000 411.378 10.022 411.400 10.050 411.400 H 14.000 C 14.050 411.400 14.000 411.350 14.000 411.400 V 419.300 C 14.000 419.350 14.050 419.300 14.000 419.300 H 10.050 C 10.022 419.300 10.000 419.322 10.000 419.350 V 427.350 C 10.000 427.378 10.022 427.400 10.050 427.400 H 14.000 C 14.050 427.400 14.000 427.350 14.000 427.400 V 435.300 C 14.000 435.350 14.050 435.300 14.000 435.300 H 10.050 C 10.022 435.300 10.000 435.322 10.000 435.350 V 443.350 C 10.000 443.378 10.022 443.400 10.050 443.400 H 14.000 C 14.050 443.400 14.000 443.350 14.000 443.400 V 451.300 C 14.000 451.350 14.050 451.300 14.000 451.300 H 10.050 C 10.022 451.300 10.000 451.322 10.000 451.350 V 459.350 C 10.000 459.378 10.022 459.400 10.050 459.400 H 14.050 Z" stroke="rgb(0,0,0)" stroke-width="0.10" />
  <path d="M 74.050 391.350 H 78.000 C 78.050 391.350 78.000 391.300 78.000 391.350 V 395.250 C 78.000 395.300 78.050 395.250 78.000 395.250 H 70.100 C 70.050 395.250 70.100 395.300 70.100 395.250 V 391.350 C 70.100 391.300 70.050 391.350 70.100 391.350 H 74.050 Z" stroke="rgb(0,0,255)" stroke-width="0.10" />
  <path d="M 58.050 391.350 H 62.000 C 62.050 391.350 62.000 391.300 62.000 391.350 V 395.250 C 62.000 395.300 62.050 395.250 62.000 395.250 H 54.100 C 54.050 395.250 54.100 395.300 54.100 395.250 V 391.350 C 54.100 391.300 54.050 391.350 54.100 391.350 H 58.050 Z" stroke="rgb(0,0,255)" stroke-width="0.10" />
  <path d="M 42.050 391.350 H 46.000 C 46.050 391.350 46.000 391.300 46.000 391.350 V 395.250 C 46.000 395.300 46.050 395.250 46.000 395.250 H 38.100 C 38.050 395.250 38.100 395.300 38.100 395.250 V 391.350 C 38.100 391.300 38.050 391.350 38.100 391.350 H 42.050 Z" stroke="rgb(0,0,255)" stroke-width="0.10" />
  <path d="M 26.050 391.350 H 30.000 C 30.050 391.350 30.000 391.300 30.000 391.350 V 395.250 C 30.000 395.300 30.050 395.250 30.000 395.250 H 22.100 C 22.050 395.250 22.100 395.300 22.100 395.250 V 391.350 C 22.100 391.300 22.050 391.350 22.100 391.350 H 26.050 Z" stroke="rgb(0,0,255)" stroke-width="0.10" />
</g>
<g id="p-1" style="fill:none;stroke-linecap:round;stroke-linejoin:round;">
  <path d="M 48.100 347.650 V 351.600 C 48.100 351.650 48.050 351.600 48.100 351.600 H 52.000 C 52.050 351.600 52.000 351.650 52.000 351.600 V 343.700 C 52.000 343.650 52.050 343.700 52.000 343.700 H 48.100 C 48.050 343.700 48.100 343.650 48.100 343.700 V 347.650 Z" stroke="rgb(0,0,255)" stroke-width="0.10" />
  <path d="M 48.100 331.650 V 335.600 C 48.100 335.650 48.050 335.600 48.100 335.600 H 52.000 C 52.050 335.600 52.000 335.650 52.000 335.600 V 327.700 C 52.000 327.650 52.050 327.700 52.000 327.700 H 48.100 C 48.050 327.700 48.100 327.650 48.100 327.700 V 331.650 Z" stroke="rgb(0,0,255)" stroke-width="0.10" />
  <path d="M 26.050 365.250 H 22.100 C 22.050 365.250 22.100 365.300 22.100 365.250 V 361.350 C 22.100 361.300 22.050 361.350 22.100 361.350 H 30.000 C 30.050 361.350 30.000 361.300 30.000 361.350 V 365.250 C 30.000 365.300 30.050 365.250 30.000 365.250 H 26.050 Z" stroke="rgb(0,0,255)" stroke-width="0.10" />
  <path d="M 42.050 365.250 H 38.100 C 38.050 365.250 38.100 365.300 38.100 365.250 V 361.350 C 38.100 361.300 38.050 361.350 38.100 361.350 H 46.000 C 46.050 361.350 46.000 361.300 46.000 361.350 V 365.250 C 46.000 365.300 46.050 365.250 46.000 365.250 H 42.050 Z" stroke="rgb(0,0,255)" stroke-width="0.10" />
  <path d="M 58.050 365.250 H 54.100 C 54.050 365.250 54.100 365.300 54.100 365.250 V 361.350 C 54.100 361.300 54.050 361.350 54.100 361.350 H 62.000 C 62.050 361.350 62.000 361.300 62.000 361.350 V 365.250 C 62.000 365.300 62.050 365.250 62.000 365.250 H 58.050 Z" stroke="rgb(0,0,255)" stroke-width="0.10" />
  <path d="M 74.050 365.250 H 70.100 C 70.050 365.250 70.100 365.300 70.100 365.250 V 361.350 C 70.100 361.300 70.050 361.350 70.100 361.350 H 78.000 C 78.050 361.350 78.000 361.300 78.000 361.350 V 365.250 C 78.000 365.300 78.050 365.250 78.000 365.250 H 74.050 Z" stroke="rgb(0,0,255)" stroke-width="0.10" />
  <path d="M 14.050 377.300 H 30.050 C 31.463 377.300 32.851 376.928 34.075 376.222 C 35.299 375.515 36.315 374.499 37.022 373.275 C 37.719 372.066 38.723 371.063 39.931 370.365 C 41.140 369.667 42.511 369.300 43.906 369.300 H 56.194 C 57.589 369.300 58.960 369.667 60.169 370.365 C 61.377 371.063 62.381 372.066 63.078 373.275 C 63.785 374.499 64.801 375.515 66.025 376.222 C 67.249 376.928 68.637 377.300 70.050 377.300 H 86.050 H 90.050 C 90.078 377.300 90.100 377.278 90.100 377.250 V 367.650 C 90.100 367.622 90.078 367.600 90.050 367.600 H 86.100 C 86.050 367.600 86.100 367.650 86.100 367.600 V 359.700 C 86.100 359.650 86.050 359.700 86.100 359.700 H 90.050 C 90.078 359.700 90.100 359.678 90.100 359.650 V 351.650 C 90.100 351.622 90.078 351.600 90.050 351.600 H 86.100 C 86.050 351.600 86.100 351.650 86.100 351.600 V 343.700 C 86.100 343.650 86.050 343.700 86.100 343.700 H 90.050 C 90.078 343.700 90.100 343.678 90.100 343.650 V 335.650 C 90.100 335.622 90.078 335.600 90.050 335.600 H 86.100 C 86.050 335.600 86.100 335.650 86.100 335.600 V 327.700 C 86.100 327.650 86.050 327.700 86.100 327.700 H 90.050 C 90.078 327.700 90.100 327.678 90.100 327.650 V 318.050 C 90.100 318.022 90.078 318.000 90.050 318.000 H 86.050 H 14.050 H 10.050 C 10.022 318.000 10.000 318.022 10.000 318.050 V 327.650 C 10.000 327.678 10.022 327.700 10.050 327.700 H 14.000 C 14.050 327.700 14.000 327.650 14.000 327.700 V 335.600 C 14.000 335.650 14.050 335.600 14.000 335.600 H 10.050 C 10.022 335.600 10.000 335.622 10.000 335.650 V 343.650 C 10.000 343.678 10.022 343.700 10.050 343.700 H 14.000 C 14.050 343.700 14.000 343.650 14.000 343.700 V 351.600 C 14.000 351.650 14.050 351.600 14.000 351.600 H 10.050 C 10.022 351.600 10.000 351.622 10.000 351.650 V 359.650 C 10.000 359.678 10.022 359.700 10.050 359.700 H 14.000 C 14.050 359.700 14.000 359.650 14.000 359.700 V 367.600 C 14.000 367.650 14.050 367.600 14.000 367.600 H 10.050 C 10.022 367.600 10.000 367.622 10.000 367.650 V 377.250 C 10.000 377.278 10.022 377.300 10.050 377.300 H 14.050 Z" stroke="rgb(0,0,0)" stroke-width="0.10" />
</g>
<g id="p-2" style="fill:none;stroke-linecap:round;stroke-linejoin:round;">
  <path d="M 52.000 292.950 V 296.900 C 52.000 296.950 52.050 296.900 52.000 296.900 H 48.100 C 48.050 296.900 48.100 296.950 48.100 296.900 V 289.000 C 48.100 288.950 48.050 289.000 48.100 289.000 H 52.000 C 52.050 289.000 52.000 288.950 52.000 289.000 V 292.950 Z" stroke="rgb(0,0,255)" stroke-width="0.10" />
  <path d="M 52.000 276.950 V 280.900 C 52.000 280.950 52.050 280.900 52.000 280.900 H 48.100 C 48.050 280.900 48.100 280.950 48.100 280.900 V 273.000 C 48.100 272.950 48.050 273.000 48.100 273.000 H 52.000 C 52.050 273.000 52.000 272.950 52.000 273.000 V 276.950 Z" stroke="rgb(0,0,255)" stroke-width="0.10" />
  <path d="M 52.000 234.950 V 238.900 C 52.000 238.950 52.050 238.900 52.000 238.900 H 48.100 C 48.050 238.900 48.100 238.950 48.100 238.900 V 231.000 C 48.100 230.950 48.050 231.000 48.100 231.000 H 52.000 C 52.050 231.000 52.000 230.950 52.000 231.000 V 234.950 Z" stroke="rgb(0,0,255)" stroke-width="0.10" />
  <path d="M 52.000 218.950 V 222.900 C 52.000 222.950 52.050 222.900 52.000 222.900 H 48.100 C 48.050 222.900 48.100 222.950 48.100 222.900 V 215.000 C 48.100 214.950 48.050 215.000 48.100 215.000 H 52.000 C 52.050 215.000 52.000 214.950 52.000 215.000 V 218.950 Z" stroke="rgb(0,0,255)" stroke-width="0.10" />
  <path d="M 14.050 312.000 H 22.000 C 22.050 312.000 22.000 311.950 22.000 312.000 V 315.950 C 22.000 315.978 22.022 316.000 22.050 316.000 H 30.050 C 30.078 316.000 30.100 315.978 30.100 315.950 V 312.000 C 30.100 311.950 30.050 312.000 30.100 312.000 H 38.000 C 38.050 312.000 38.000 311.950 38.000 312.000 V 315.950 C 38.000 315.978 38.022 316.000 38.050 316.000 H 46.050 C 46.078 316.000 46.100 315.978 46.100 315.950 V 312.000 C 46.100 311.950 46.050 312.000 46.100 312.000 H 54.000 C 54.050 312.000 54.000 311.950 54.000 312.000 V 315.950 C 54.000 315.978 54.022 316.000 54.050 316.000 H 62.050 C 62.078 316.000 62.100 315.978 62.100 315.950 V 312.000 C 62.100 311.950 62.050 312.000 62.100 312.000 H 70.000 C 70.050 312.000 70.000 311.950 70.000 312.000 V 315.950 C 70.000 315.978 70.022 316.000 70.050 316.000 H 78.050 C 78.078 316.000 78.100 315.978 78.100 315.950 V 312.000 C 78.100 311.950 78.050 312.000 78.100 312.000 H 86.050 C 86.078 312.000 86.100 311.978 86.100 311.950 V 300.000 C 86.100 299.950 86.050 300.000 86.100 300.000 H 90.050 C 90.078 300.000 90.100 299.978 90.100 299.950 V 291.950 C 90.100 291.922 90.078 291.900 90.050 291.900 H 86.100 C 86.050 291.900 86.100 291.950 86.100 291.900 V 284.000 C 86.100 283.950 86.050 284.000 86.100 284.000 H 90.050 C 90.078 284.000 90.100 283.978 90.100 283.950 V 275.950 C 90.100 275.922 90.078 275.900 90.050 275.900 H 86.100 C 86.050 275.900 86.100 275.950 86.100 275.900 V 268.000 C 86.100 267.950 86.050 268.000 86.100 268.000 H 90.050 C 90.078 268.000 90.100 267.978 90.100 267.950 V 259.950 C 90.100 259.922 90.078 259.900 90.050 259.900 H 86.100 C 86.050 259.900 86.100 259.950 86.100 259.900 V 252.000 C 86.100 251.950 86.050 252.000 86.100 252.000 H 90.050 C 90.078 252.000 90.100 251.978 90.100 251.950 V 243.950 C 90.100 243.922 90.078 243.900 90.050 243.900 H 86.100 C 86.050 243.900 86.100 243.950 86.100 243.900 V 236.000 C 86.100 235.950 86.050 236.000 86.100 236.000 H 90.050 C 90.078 236.000 90.100 235.978 90.100 235.950 V 227.950 C 90.100 227.922 90.078 227.900 90.050 227.900 H 86.100 C 86.050 227.900 86.100 227.950 86.100 227.900 V 220.000 C 86.100 219.950 86.050 220.000 86.100 220.000 H 90.050 C 90.078 220.000 90.100 219.978 90.100 219.950 V 211.950 C 90.100 211.922 90.078 211.900 90.050 211.900 H 86.100 C 86.050 211.900 86.100 211.950 86.100 211.900 V 199.950 C 86.100 199.922 86.078 199.900 86.050 199.900 H 78.100 C 78.050 199.900 78.100 199.950 78.100 199.900 V 195.950 C 78.100 195.922 78.078 195.900 78.050 195.900 H 70.050 C 70.022 195.900 70.000 195.922 70.000 195.950 V 199.900 C 70.000 199.950 70.050 199.900 70.000 199.900 H 62.100 C 62.050 199.900 62.100 199.950 62.100 199.900 V 195.950 C 62.100 195.922 62.078 195.900 62.050 195.900 H 54.050 C 54.022 195.900 54.000 195.922 54.000 195.950 V 199.900 C 54.000 199.950 54.050 199.900 54.000 199.900 H 46.100 C 46.050 199.900 46.100 199.950 46.100 199.900 V 195.950 C 46.100 195.922 46.078 195.900 46.050 195.900 H 38.050 C 38.022 195.900 38.000 195.922 38.000 195.950 V 199.900 C 38.000 199.950 38.050 199.900 38.000 199.900 H 30.100 C 30.050 199.900 30.100 199.950 30.100 199.900 V 195.950 C 30.100 195.922 30.078 195.900 30.050 195.900 H 22.050 C 22.022 195.900 22.000 195.922 22.000 195.950 V 199.900 C 22.000 199.950 22.050 199.900 22.000 199.900 H 14.050 C 14.022 199.900 14.000 199.922 14.000 199.950 V 211.900 C 14.000 211.950 14.050 211.900 14.000 211.900 H 10.050 C 10.022 211.900 10.000 211.922 10.000 211.950 V 219.950 C 10.000 219.978 10.022 220.000 10.050 220.000 H 14.000 C 14.050 220.000 14.000 219.950 14.000 220.000 V 227.900 C 14.000 227.950 14.050 227.900 14.000 227.900 H 10.050 C 10.022 227.900 10.000 227.922 10.000 227.950 V 235.950 C 10.000 235.978 10.022 236.000 10.050 236.000 H 14.000 C 14.050 236.000 14.000 235.950 14.000 236.000 V 243.900 C 14.000 243.950 14.050 243.900 14.000 243.900 H 10.050 C 10.022 243.900 10.000 243.922 10.000 243.950 V 251.950 C 10.000 251.978 10.022 252.000 10.050 252.000 H 14.000 C 14.050 252.000 14.000 251.950 14.000 252.000 V 259.900 C 14.000 259.950 14.050 259.900 14.000 259.900 H 10.050 C 10.022 259.900 10.000 259.922 10.000 259.950 V 267.950 C 10.000 267.978 10.022 268.000 10.050 268.000 H 14.000 C 14.050 268.000 14.000 267.950 14.000 268.000 V 275.900 C 14.000 275.950 14.050 275.900 14.000 275.900 H 10.050 C 10.022 275.900 10.000 275.922 10.000 275.950 V 283.950 C 10.000 283.978 10.022 284.000 10.050 284.000 H 14.000 C 14.050 284.000 14.000 283.950 14.000 284.000 V 291.900 C 14.000 291.950 14.050 291.900 14.000 291.900 H 10.050 C 10.022 291.900 10.000 291.922 10.000 291.950 V 299.950 C 10.000 299.978 10.022 300.000 10.050 300.000 H 14.000 C 14.050 300.000 14.000 299.950 14.000 300.000 V 311.950 C 14.000 311.978 14.022 312.000 14.050 312.000 Z" stroke="rgb(0,0,0)" stroke-width="0.10" />
  <path d="M 69.050 254.000 H 73.000 C 73.050 254.000 73.000 253.950 73.000 254.000 V 257.900 C 73.000 257.950 73.050 257.900 73.000 257.900 H 65.100 C 65.050 257.900 65.100 257.950 65.100 257.900 V 254.000 C 65.100 253.950 65.050 254.000 65.100 254.000 H 69.050 Z" stroke="rgb(0,0,255)" stroke-width="0.10" />
  <path d="M 31.050 254.000 H 35.000 C 35.050 254.000 35.000 253.950 35.000 254.000 V 257.900 C 35.000 257.950 35.050 257.900 35.000 257.900 H 27.100 C 27.050 257.900 27.100 257.950 27.100 257.900 V 254.000 C 27.100 253.950 27.050 254.000 27.100 254.000 H 31.050 Z" stroke="rgb(0,0,255)" stroke-width="0.10" />
</g>
<g id="p-3" style="fill:none;stroke-linecap:round;stroke-linejoin:round;">
  <path d="M 14.050 189.900 H 27.000 C 27.050 189.900 27.000 189.850 27.000 189.900 V 193.850 C 27.000 193.878 27.022 193.900 27.050 193.900 H 35.050 C 35.078 193.900 35.100 193.878 35.100 193.850 V 189.900 C 35.100 189.850 35.050 189.900 35.100 189.900 H 48.050 H 52.050 H 65.000 C 65.050 189.900 65.000 189.850 65.000 189.900 V 193.850 C 65.000 193.878 65.022 193.900 65.050 193.900 H 73.050 C 73.078 193.900 73.100 193.878 73.100 193.850 V 189.900 C 73.100 189.850 73.050 189.900 73.100 189.900 H 86.050 C 86.078 189.900 86.100 189.878 86.100 189.850 V 180.300 C 86.100 180.250 86.050 180.300 86.100 180.300 H 90.050 C 90.078 180.300 90.100 180.278 90.100 180.250 V 172.250 C 90.100 172.222 90.078 172.200 90.050 172.200 H 86.100 C 86.050 172.200 86.100 172.250 86.100 172.200 V 164.300 C 86.100 164.250 86.050 164.300 86.100 164.300 H 90.050 C 90.078 164.300 90.100 164.278 90.100 164.250 V 156.250 C 90.100 156.222 90.078 156.200 90.050 156.200 H 86.100 C 86.050 156.200 86.100 156.250 86.100 156.200 V 146.650 C 86.100 146.622 86.078 146.600 86.050 146.600 H 52.050 C 52.022 146.600 52.000 146.622 52.000 146.650 V 168.200 C 52.000 168.250 52.050 168.200 52.000 168.200 H 48.100 C 48.050 168.200 48.100 168.250 48.100 168.200 V 146.650 C 48.100 146.622 48.078 146.600 48.050 146.600 H 14.050 C 14.022 146.600 14.000 146.622 14.000 146.650 V 156.200 C 14.000 156.250 14.050 156.200 14.000 156.200 H 10.050 C 10.022 156.200 10.000 156.222 10.000 156.250 V 164.250 C 10.000 164.278 10.022 164.300 10.050 164.300 H 14.000 C 14.050 164.300 14.000 164.250 14.000 164.300 V 172.200 C 14.000 172.250 14.050 172.200 14.000 172.200 H 10.050 C 10.022 172.200 10.000 172.222 10.000 172.250 V 180.250 C 10.000 180.278 10.022 180.300 10.050 180.300 H 14.000 C 14.050 180.300 14.000 180.250 14.000 180.300 V 189.850 C 14.000 189.878 14.022 189.900 14.050 189.900 Z" stroke="rgb(0,0,0)" stroke-width="0.10" />
</g>
<g id="p-4" style="fill:none;stroke-linecap:round;stroke-linejoin:round;">
  <path d="M 10.050 140.600 H 25.600 C 25.650 140.600 25.600 140.550 25.600 140.600 V 144.550 C 25.600 144.578 25.622 144.600 25.650 144.600 H 33.650 C 33.678 144.600 33.700 144.578 33.700 144.550 V 140.600 C 33.700 140.550 33.650 140.600 33.700 140.600 H 41.600 C 41.650 140.600 41.600 140.550 41.600 140.600 V 144.550 C 41.600 144.578 41.622 144.600 41.650 144.600 H 49.650 C 49.678 144.600 49.700 144.578 49.700 144.550 V 140.600 C 49.700 140.550 49.650 140.600 49.700 140.600 H 57.600 C 57.650 140.600 57.600 140.550 57.600 140.600 V 144.550 C 57.600 144.578 57.622 144.600 57.650 144.600 H 65.650 C 65.678 144.600 65.700 144.578 65.700 144.550 V 140.600 C 65.700 140.550 65.650 140.600 65.700 140.600 H 81.250 C 81.278 140.600 81.300 140.578 81.300 140.550 V 28.550 C 81.300 28.522 81.278 28.500 81.250 28.500 H 10.050 C 10.022 28.500 10.000 28.522 10.000 28.550 V 140.550 C 10.000 140.578 10.022 140.600 10.050 140.600 Z" stroke="rgb(0,0,0)" stroke-width="0.10" />
</g>
<g id="p-5" style="fill:none;stroke-linecap:round;stroke-linejoin:round;">
  <path d="M 10.050 26.500 H 25.650 C 25.678 26.500 25.700 26.478 25.700 26.450 V 22.500 C 25.700 22.450 25.650 22.500 25.700 22.500 H 33.600 C 33.650 22.500 33.600 22.450 33.600 22.500 V 26.450 C 33.600 26.478 33.622 26.500 33.650 26.500 H 41.650 C 41.678 26.500 41.700 26.478 41.700 26.450 V 22.500 C 41.700 22.450 41.650 22.500 41.700 22.500 H 49.600 C 49.650 22.500 49.600 22.450 49.600 22.500 V 26.450 C 49.600 26.478 49.622 26.500 49.650 26.500 H 57.650 C 57.678 26.500 57.700 26.478 57.700 26.450 V 22.500 C 57.700 22.450 57.650 22.500 57.700 22.500 H 65.600 C 65.650 22.500 65.600 22.450 65.600 22.500 V 26.450 C 65.600 26.478 65.622 26.500 65.650 26.500 H 81.250 C 81.278 26.500 81.300 26.478 81.300 26.450 V 22.450 V 18.050 C 81.300 18.022 81.278 18.000 81.250 18.000 H 65.650 C 64.254 18.000 62.884 17.633 61.675 16.935 C 60.466 16.237 59.463 15.234 58.765 14.025 C 58.059 12.801 57.042 11.785 55.819 11.078 C 54.595 10.372 53.207 10.000 51.794 10.000 H 39.506 C 38.093 10.000 36.705 10.372 35.481 11.078 C 34.258 11.785 33.241 12.801 32.535 14.025 C 31.837 15.234 30.834 16.237 29.625 16.935 C 28.416 17.633 27.046 18.000 25.650 18.000 H 10.050 C 10.022 18.000 10.000 18.022 10.000 18.050 V 22.450 V 26.450 C 10.000 26.478 10.022 26.500 10.050 26.500 Z" stroke="rgb(0,0,0)" stroke-width="0.10" />
</g>
<g id="p-6" style="fill:none;stroke-linecap:round;stroke-linejoin:round;">
  <path d="M 154.100 429.750 V 433.700 C 154.100 433.750 154.150 433.700 154.100 433.700 H 150.200 C 150.150 433.700 150.200 433.750 150.200 433.700 V 425.800 C 150.200 425.750 150.150 425.800 150.200 425.800 H 154.100 C 154.150 425.800 154.100 425.750 154.100 425.800 V 429.750 Z" stroke="rgb(0,0,255)" stroke-width="0.10" />
  <path d="M 154.100 413.750 V 417.700 C 154.100 417.750 154.150 417.700 154.100 417.700 H 150.200 C 150.150 417.700 150.200 417.750 150.200 417.700 V 409.800 C 150.200 409.750 150.150 409.800 150.200 409.800 H 154.100 C 154.150 409.800 154.100 409.750 154.100 409.800 V 413.750 Z" stroke="rgb(0,0,255)" stroke-width="0.10" />
  <path d="M 112.150 447.350 H 108.200 C 108.150 447.350 108.200 447.400 108.200 447.350 V 443.450 C 108.200 443.400 108.150 443.450 108.200 443.450 H 116.100 C 116.150 443.450 116.100 443.400 116.100 443.450 V 447.350 C 116.100 447.400 116.150 447.350 116.100 447.350 H 112.150 Z" stroke="rgb(0,0,255)" stroke-width="0.10" />
  <path d="M 128.150 447.350 H 124.200 C 124.150 447.350 124.200 447.400 124.200 447.350 V 443.450 C 124.200 443.400 124.150 443.450 124.200 443.450 H 132.100 C 132.150 443.450 132.100 443.400 132.100 443.450 V 447.350 C 132.100 447.400 132.150 447.350 132.100 447.350 H 128.150 Z" stroke="rgb(0,0,255)" stroke-width="0.10" />
  <path d="M 144.150 447.350 H 140.200 C 140.150 447.350 140.200 447.400 140.200 447.350 V 443.450 C 140.200 443.400 140.150 443.450 140.200 443.450 H 148.100 C 148.150 443.450 148.100 443.400 148.100 443.450 V 447.350 C 148.100 447.400 148.150 447.350 148.100 447.350 H 144.150 Z" stroke="rgb(0,0,255)" stroke-width="0.10" />
  <path d="M 160.150 447.350 H 156.200 C 156.150 447.350 156.200 447.400 156.200 447.350 V 443.450 C 156.200 443.400 156.150 443.450 156.200 443.450 H 164.100 C 164.150 443.450 164.100 443.400 164.100 443.450 V 447.350 C 164.100 447.400 164.150 447.350 164.100 447.350 H 160.150 Z" stroke="rgb(0,0,255)" stroke-width="0.10" />
  <path d="M 176.150 447.350 H 172.200 C 172.150 447.350 172.200 447.400 172.200 447.350 V 443.450 C 172.200 443.400 172.150 443.450 172.200 443.450 H 180.100 C 180.150 443.450 180.100 443.400 180.100 443.450 V 447.350 C 180.100 447.400 180.150 447.350 180.100 447.350 H 176.150 Z" stroke="rgb(0,0,255)" stroke-width="0.10" />
  <path d="M 192.150 447.350 H 188.200 C 188.150 447.350 188.200 447.400 188.200 447.350 V 443.450 C 188.200 443.400 188.150 443.450 188.200 443.450 H 196.100 C 196.150 443.450 196.100 443.400 196.100 443.450 V 447.350 C 196.100 447.400 196.150 447.350 196.100 447.350 H 192.150 Z" stroke="rgb(0,0,255)" stroke-width="0.10" />
  <path d="M 96.150 459.400 H 112.150 C 113.563 459.400 114.951 459.028 116.175 458.322 C 117.399 457.615 118.415 456.599 119.122 455.375 C 119.819 454.166 120.823 453.163 122.031 452.465 C 123.240 451.767 124.611 451.400 126.006 451.400 H 178.294 C 179.689 451.400 181.060 451.767 182.269 452.465 C 183.477 453.163 184.481 454.166 185.178 455.375 C 185.885 456.599 186.901 457.615 188.125 458.322 C 189.349 459.028 190.737 459.400 192.150 459.400 H 208.150 C 208.178 459.400 208.200 459.378 208.200 459.350 V 449.800 C 208.200 449.750 208.150 449.800 208.200 449.800 H 212.150 C 212.178 449.800 212.200 449.778 212.200 449.750 V 441.750 C 212.200 441.722 212.178 441.700 212.150 441.700 H 208.200 C 208.150 441.700 208.200 441.750 208.200 441.700 V 433.800 C 208.200 433.750 208.150 433.800 208.200 433.800 H 212.150 C 212.178 433.800 212.200 433.778 212.200 433.750 V 425.750 C 212.200 425.722 212.178 425.700 212.150 425.700 H 208.200 C 208.150 425.700 208.200 425.750 208.200 425.700 V 417.800 C 208.200 417.750 208.150 417.800 208.200 417.800 H 212.150 C 212.178 417.800 212.200 417.778 212.200 417.750 V 409.750 C 212.200 409.722 212.178 409.700 212.150 409.700 H 208.200 C 208.150 409.700 208.200 409.750 208.200 409.700 V 400.200 C 208.200 400.150 208.150 400.200 208.200 400.200 H 212.150 C 212.178 400.200 212.200 400.178 212.200 400.150 V 395.350 V 387.350 C 212.200 387.322 212.178 387.300 212.150 387.300 H 208.150 H 192.550 C 191.154 387.300 189.784 386.933 188.575 386.235 C 187.366 385.537 186.363 384.534 185.665 383.325 C 184.959 382.101 183.942 381.085 182.719 380.378 C 181.495 379.672 180.107 379.300 178.694 379.300 H 125.606 C 124.193 379.300 122.805 379.672 121.581 380.378 C 120.358 381.085 119.341 382.101 118.635 383.325 C 117.937 384.534 116.934 385.537 115.725 386.235 C 114.516 386.933 113.146 387.300 111.750 387.300 H 96.150 C 96.122 387.300 96.100 387.322 96.100 387.350 V 395.300 C 96.100 395.350 96.150 395.300 96.100 395.300 H 92.150 C 92.122 395.300 92.100 395.322 92.100 395.350 V 403.350 C 92.100 403.378 92.122 403.400 92.150 403.400 H 96.100 C 96.150 403.400 96.100 403.350 96.100 403.400 V 411.300 C 96.100 411.350 96.150 411.300 96.100 411.300 H 92.150 C 92.122 411.300 92.100 411.322 92.100 411.350 V 419.350 C 92.100 419.378 92.122 419.400 92.150 419.400 H 96.100 C 96.150 419.400 96.100 419.350 96.100 419.400 V 427.300 C 96.100 427.350 96.150 427.300 96.100 427.300 H 92.150 C 92.122 427.300 92.100 427.322 92.100 427.350 V 435.350 C 92.100 435.378 92.122 435.400 92.150 435.400 H 96.100 C 96.150 435.400 96.100 435.350 96.100 435.400 V 443.300 C 96.100 443.350 96.150 443.300 96.100 443.300 H 92.150 C 92.122 443.300 92.100 443.322 92.100 443.350 V 451.350 C 92.100 451.378 92.122 451.400 92.150 451.400 H 96.100 C 96.150 451.400 96.100 451.350 96.100 451.400 V 459.350 C 96.100 459.378 96.122 459.400 96.150 459.400 Z" stroke="rgb(0,0,0)" stroke-width="0.10" />
  <path d="M 192.150 391.350 H 196.100 C 196.150 391.350 196.100 391.300 196.100 391.350 V 395.250 C 196.100 395.300 196.150 395.250 196.100 395.250 H 188.200 C 188.150 395.250 188.200 395.300 188.200 395.250 V 391.350 C 188.200 391.300 188.150 391.350 188.200 391.350 H 192.150 Z" stroke="rgb(0,0,255)" stroke-width="0.10" />
  <path d="M 176.150 391.350 H 180.100 C 180.150 391.350 180.100 391.300 180.100 391.350 V 395.250 C 180.100 395.300 180.150 395.250 180.100 395.250 H 172.200 C 172.150 395.250 172.200 395.300 172.200 395.250 V 391.350 C 172.200 391.300 172.150 391.350 172.200 391.350 H 176.150 Z" stroke="rgb(0,0,255)" stroke-width="0.10" />
  <path d="M 160.150 391.350 H 164.100 C 164.150 391.350 164.100 391.300 164.100 391.350 V 395.250 C 164.100 395.300 164.150 395.250 164.100 395.250 H 156.200 C 156.150 395.250 156.200 395.300 156.200 395.250 V 391.350 C 156.200 391.300 156.150 391.350 156.200 391.350 H 160.150 Z" stroke="rgb(0,0,255)" stroke-width="0.10" />
  <path d="M 144.150 391.350 H 148.100 C 148.150 391.350 148.100 391.300 148.100 391.350 V 395.250 C 148.100 395.300 148.150 395.250 148.100 395.250 H 140.200 C 140.150 395.250 140.200 395.300 140.200 395.250 V 391.350 C 140.200 391.300 140.150 391.350 140.200 391.350 H 144.150 Z" stroke="rgb(0,0,255)" stroke-width="0.10" />
  <path d="M 128.150 391.350 H 132.100 C 132.150 391.350 132.100 391.300 132.100 391.350 V 395.250 C 132.100 395.300 132.150 395.250 132.100 395.250 H 124.200 C 124.150 395.250 124.200 395.300 124.200 395.250 V 391.350 C 124.200 391.300 124.150 391.350 124.200 391.350 H 128.150 Z" stroke="rgb(0,0,255)" stroke-width="0.10" />
  <path d="M 112.150 391.350 H 116.100 C 116.150 391.350 116.100 391.300 116.100 391.350 V 395.250 C 116.100 395.300 116.150 395.250 116.100 395.250 H 108.200 C 108.150 395.250 108.200 395.300 108.200 395.250 V 391.350 C 108.200 391.300 108.150 391.350 108.200 391.350 H 112.150 Z" stroke="rgb(0,0,255)" stroke-width="0.10" />
</g>
<g id="p-7" style="fill:none;stroke-linecap:round;stroke-linejoin:round;">
  <path d="M 150.200 347.650 V 351.600 C 150.200 351.650 150.150 351.600 150.200 351.600 H 154.100 C 154.150 351.600 154.100 351.650 154.100 351.600 V 343.700 C 154.100 343.650 154.150 343.700 154.100 343.700 H 150.200 C 150.150 343.700 150.200 343.650 150.200 343.700 V 347.650 Z" stroke="rgb(0,0,255)" stroke-width="0.10" />
  <path d="M 150.200 331.650 V 335.600 C 150.200 335.650 150.150 335.600 150.200 335.600 H 154.100 C 154.150 335.600 154.100 335.650 154.100 335.600 V 327.700 C 154.100 327.650 154.150 327.700 154.100 327.700 H 150.200 C 150.150 327.700 150.200 327.650 150.200 327.700 V 331.650 Z" stroke="rgb(0,0,255)" stroke-width="0.10" />
  <path d="M 192.150 365.250 H 196.100 C 196.150 365.250 196.100 365.300 196.100 365.250 V 361.350 C 196.100 361.300 196.150 361.350 196.100 361.350 H 188.200 C 188.150 361.350 188.200 361.300 188.200 361.350 V 365.250 C 188.200 365.300 188.150 365.250 188.200 365.250 H 192.150 Z" stroke="rgb(0,0,255)" stroke-width="0.10" />
  <path d="M 176.150 365.250 H 180.100 C 180.150 365.250 180.100 365.300 180.100 365.250 V 361.350 C 180.100 361.300 180.150 361.350 180.100 361.350 H 172.200 C 172.150 361.350 172.200 361.300 172.200 361.350 V 365.250 C 172.200 365.300 172.150 365.250 172.200 365.250 H 176.150 Z" stroke="rgb(0,0,255)" stroke-width="0.10" />
  <path d="M 160.150 365.250 H 164.100 C 164.150 365.250 164.100 365.300 164.100 365.250 V 361.350 C 164.100 361.300 164.150 361.350 164.100 361.350 H 156.200 C 156.150 361.350 156.200 361.300 156.200 361.350 V 365.250 C 156.200 365.300 156.150 365.250 156.200 365.250 H 160.150 Z" stroke="rgb(0,0,255)" stroke-width="0.10" />
  <path d="M 144.150 365.250 H 148.100 C 148.150 365.250 148.100 365.300 148.100 365.250 V 361.350 C 148.100 361.300 148.150 361.350 148.100 361.350 H 140.200 C 140.150 361.350 140.200 361.300 140.200 361.350 V 365.250 C 140.200 365.300 140.150 365.250 140.200 365.250 H 144.150 Z" stroke="rgb(0,0,255)" stroke-width="0.10" />
  <path d="M 128.150 365.250 H 132.100 C 132.150 365.250 132.100 365.300 132.100 365.250 V 361.350 C 132.100 361.300 132.150 361.350 132.100 361.350 H 124.200 C 124.150 361.350 124.200 361.300 124.200 361.350 V 365.250 C 124.200 365.300 124.150 365.250 124.200 365.250 H 128.150 Z" stroke="rgb(0,0,255)" stroke-width="0.10" />
  <path d="M 112.150 365.250 H 116.100 C 116.150 365.250 116.100 365.300 116.100 365.250 V 361.350 C 116.100 361.300 116.150 361.350 116.100 361.350 H 108.200 C 108.150 361.350 108.200 361.300 108.200 361.350 V 365.250 C 108.200 365.300 108.150 365.250 108.200 365.250 H 112.150 Z" stroke="rgb(0,0,255)" stroke-width="0.10" />
  <path d="M 208.150 377.300 H 192.150 C 190.737 377.300 189.349 376.928 188.125 376.222 C 186.901 375.515 185.885 374.499 185.178 373.275 C 184.481 372.066 183.477 371.063 182.269 370.365 C 181.060 369.667 179.689 369.300 178.294 369.300 H 126.006 C 124.611 369.300 123.240 369.667 122.031 370.365 C 120.823 371.063 119.819 372.066 119.122 373.275 C 118.415 374.499 117.399 375.515 116.175 376.222 C 114.951 376.928 113.563 377.300 112.150 377.300 H 96.150 C 96.122 377.300 96.100 377.278 96.100 377.250 V 367.700 C 96.100 367.650 96.150 367.700 96.100 367.700 H 92.150 C 92.122 367.700 92.100 367.678 92.100 367.650 V 359.650 C 92.100 359.622 92.122 359.600 92.150 359.600 H 96.100 C 96.150 359.600 96.100 359.650 96.100 359.600 V 351.700 C 96.100 351.650 96.150 351.700 96.100 351.700 H 92.150 C 92.122 351.700 92.100 351.678 92.100 351.650 V 343.650 C 92.100 343.622 92.122 343.600 92.150 343.600 H 96.100 C 96.150 343.600 96.100 343.650 96.100 343.600 V 335.700 C 96.100 335.650 96.150 335.700 96.100 335.700 H 92.150 C 92.122 335.700 92.100 335.678 92.100 335.650 V 327.650 C 92.100 327.622 92.122 327.600 92.150 327.600 H 96.100 C 96.150 327.600 96.100 327.650 96.100 327.600 V 318.100 C 96.100 318.050 96.150 318.100 96.100 318.100 H 92.150 C 92.122 318.100 92.100 318.078 92.100 318.050 V 313.250 V 305.250 C 92.100 305.222 92.122 305.200 92.150 305.200 H 96.150 H 111.750 C 113.146 305.200 114.516 304.833 115.725 304.135 C 116.934 303.437 117.937 302.434 118.635 301.225 C 119.341 300.001 120.358 298.985 121.581 298.278 C 122.805 297.572 124.193 297.200 125.606 297.200 H 178.694 C 180.107 297.200 181.495 297.572 182.719 298.278 C 183.942 298.985 184.959 300.001 185.665 301.225 C 186.363 302.434 187.366 303.437 188.575 304.135 C 189.784 304.833 191.154 305.200 192.550 305.200 H 208.150 C 208.178 305.200 208.200 305.222 208.200 305.250 V 313.200 C 208.200 313.250 208.150 313.200 208.200 313.200 H 212.150 C 212.178 313.200 212.200 313.222 212.200 313.250 V 321.250 C 212.200 321.278 212.178 321.300 212.150 321.300 H 208.200 C 208.150 321.300 208.200 321.250 208.200 321.300 V 329.200 C 208.200 329.250 208.150 329.200 208.200 329.200 H 212.150 C 212.178 329.200 212.200 329.222 212.200 329.250 V 337.250 C 212.200 337.278 212.178 337.300 212.150 337.300 H 208.200 C 208.150 337.300 208.200 337.250 208.200 337.300 V 345.200 C 208.200 345.250 208.150 345.200 208.200 345.200 H 212.150 C 212.178 345.200 212.200 345.222 212.200 345.250 V 353.250 C 212.200 353.278 212.178 353.300 212.150 353.300 H 208.200 C 208.150 353.300 208.200 353.250 208.200 353.300 V 361.200 C 208.200 361.250 208.150 361.200 208.200 361.200 H 212.150 C 212.178 361.200 212.200 361.222 212.200 361.250 V 369.250 C 212.200 369.278 212.178 369.300 212.150 369.300 H 208.200 C 208.150 369.300 208.200 369.250 208.200 369.300 V 377.250 C 208.200 377.278 208.178 377.300 208.150 377.300 Z" stroke="rgb(0,0,0)" stroke-width="0.10" />
  <path d="M 112.150 309.250 H 108.200 C 108.150 309.250 108.200 309.200 108.200 309.250 V 313.150 C 108.200 313.200 108.150 313.150 108.200 313.150 H 116.100 C 116.150 313.150 116.100 313.200 116.100 313.150 V 309.250 C 116.100 309.200 116.150 309.250 116.100 309.250 H 112.150 Z" stroke="rgb(0,0,255)" stroke-width="0.10" />
  <path d="M 128.150 309.250 H 124.200 C 124.150 309.250 124.200 309.200 124.200 309.250 V 313.150 C 124.200 313.200 124.150 313.150 124.200 313.150 H 132.100 C 132.150 313.150 132.100 313.200 132.100 313.150 V 309.250 C 132.100 309.200 132.150 309.250 132.100 309.250 H 128.150 Z" stroke="rgb(0,0,255)" stroke-width="0.10" />
  <path d="M 144.150 309.250 H 140.200 C 140.150 309.250 140.200 309.200 140.200 309.250 V 313.150 C 140.200 313.200 140.150 313.150 140.200 313.150 H 148.100 C 148.150 313.150 148.100 313.200 148.100 313.150 V 309.250 C 148.100 309.200 148.150 309.250 148.100 309.250 H 144.150 Z" stroke="rgb(0,0,255)" stroke-width="0.10" />
  <path d="M 160.150 309.250 H 156.200 C 156.150 309.250 156.200 309.200 156.200 309.250 V 313.150 C 156.200 313.200 156.150 313.150 156.200 313.150 H 164.100 C 164.150 313.150 164.100 313.200 164.100 313.150 V 309.250 C 164.100 309.200 164.150 309.250 164.100 309.250 H 160.150 Z" stroke="rgb(0,0,255)" stroke-width="0.10" />
  <path d="M 176.150 309.250 H 172.200 C 172.150 309.250 172.200 309.200 172.200 309.250 V 313.150 C 172.200 313.200 172.150 313.150 172.200 313.150 H 180.100 C 180.150 313.150 180.100 313.200 180.100 313.150 V 309.250 C 180.100 309.200 180.150 309.250 180.100 309.250 H 176.150 Z" stroke="rgb(0,0,255)" stroke-width="0.10" />
  <path d="M 192.150 309.250 H 188.200 C 188.150 309.250 188.200 309.200 188.200 309.250 V 313.150 C 188.200 313.200 188.150 313.150 188.200 313.150 H 196.100 C 196.150 313.150 196.100 313.200 196.100 313.150 V 309.250 C 196.100 309.200 196.150 309.250 196.100 309.250 H 192.150 Z" stroke="rgb(0,0,255)" stroke-width="0.10" />
</g>
<g id="p-8" style="fill:none;stroke-linecap:round;stroke-linejoin:round;">
  <path d="M 96.150 291.200 H 111.100 C 111.150 291.200 111.100 291.150 111.100 291.200 V 295.150 C 111.100 295.178 111.122 295.200 111.150 295.200 H 119.150 C 119.178 295.200 119.200 295.178 119.200 295.150 V 291.200 C 119.200 291.150 119.150 291.200 119.200 291.200 H 127.100 C 127.150 291.200 127.100 291.150 127.100 291.200 V 295.150 C 127.100 295.178 127.122 295.200 127.150 295.200 H 135.150 C 135.178 295.200 135.200 295.178 135.200 295.150 V 291.200 C 135.200 291.150 135.150 291.200 135.200 291.200 H 150.150 C 150.178 291.200 150.200 291.178 150.200 291.150 V 269.600 C 150.200 269.550 150.150 269.600 150.200 269.600 H 154.100 C 154.150 269.600 154.100 269.550 154.100 269.600 V 291.150 C 154.100 291.178 154.122 291.200 154.150 291.200 H 169.100 C 169.150 291.200 169.100 291.150 169.100 291.200 V 295.150 C 169.100 295.178 169.122 295.200 169.150 295.200 H 177.150 C 177.178 295.200 177.200 295.178 177.200 295.150 V 291.200 C 177.200 291.150 177.150 291.200 177.200 291.200 H 185.100 C 185.150 291.200 185.100 291.150 185.100 291.200 V 295.150 C 185.100 295.178 185.122 295.200 185.150 295.200 H 193.150 C 193.178 295.200 193.200 295.178 193.200 295.150 V 291.200 C 193.200 291.150 193.150 291.200 193.200 291.200 H 208.150 C 208.178 291.200 208.200 291.178 208.200 291.150 V 281.600 C 208.200 281.550 208.150 281.600 208.200 281.600 H 212.150 C 212.178 281.600 212.200 281.578 212.200 281.550 V 273.550 C 212.200 273.522 212.178 273.500 212.150 273.500 H 208.200 C 208.150 273.500 208.200 273.550 208.200 273.500 V 265.600 C 208.200 265.550 208.150 265.600 208.200 265.600 H 212.150 C 212.178 265.600 212.200 265.578 212.200 265.550 V 257.550 C 212.200 257.522 212.178 257.500 212.150 257.500 H 208.200 C 208.150 257.500 208.200 257.550 208.200 257.500 V 247.950 C 208.200 247.922 208.178 247.900 208.150 247.900 H 96.150 C 96.122 247.900 96.100 247.922 96.100 247.950 V 257.500 C 96.100 257.550 96.150 257.500 96.100 257.500 H 92.150 C 92.122 257.500 92.100 257.522 92.100 257.550 V 265.550 C 92.100 265.578 92.122 265.600 92.150 265.600 H 96.100 C 96.150 265.600 96.100 265.550 96.100 265.600 V 273.500 C 96.100 273.550 96.150 273.500 96.100 273.500 H 92.150 C 92.122 273.500 92.100 273.522 92.100 273.550 V 281.550 C 92.100 281.578 92.122 281.600 92.150 281.600 H 96.100 C 96.150 281.600 96.100 281.550 96.100 281.600 V 291.150 C 96.100 291.178 96.122 291.200 96.150 291.200 Z" stroke="rgb(0,0,0)" stroke-width="0.10" />
</g>
<g id="p-9" style="fill:none;stroke-linecap:round;stroke-linejoin:round;">
  <path d="M 96.150 241.900 H 108.100 C 108.150 241.900 108.100 241.850 108.100 241.900 V 245.850 C 108.100 245.878 108.122 245.900 108.150 245.900 H 116.150 C 116.178 245.900 116.200 245.878 116.200 245.850 V 241.900 C 116.200 241.850 116.150 241.900 116.200 241.900 H 124.100 C 124.150 241.900 124.100 241.850 124.100 241.900 V 245.850 C 124.100 245.878 124.122 245.900 124.150 245.900 H 132.150 C 132.178 245.900 132.200 245.878 132.200 245.850 V 241.900 C 132.200 241.850 132.150 241.900 132.200 241.900 H 140.100 C 140.150 241.900 140.100 241.850 140.100 241.900 V 245.850 C 140.100 245.878 140.122 245.900 140.150 245.900 H 148.150 C 148.178 245.900 148.200 245.878 148.200 245.850 V 241.900 C 148.200 241.850 148.150 241.900 148.200 241.900 H 156.100 C 156.150 241.900 156.100 241.850 156.100 241.900 V 245.850 C 156.100 245.878 156.122 245.900 156.150 245.900 H 164.150 C 164.178 245.900 164.200 245.878 164.200 245.850 V 241.900 C 164.200 241.850 164.150 241.900 164.200 241.900 H 172.100 C 172.150 241.900 172.100 241.850 172.100 241.900 V 245.850 C 172.100 245.878 172.122 245.900 172.150 245.900 H 180.150 C 180.178 245.900 180.200 245.878 180.200 245.850 V 241.900 C 180.200 241.850 180.150 241.900 180.200 241.900 H 188.100 C 188.150 241.900 188.100 241.850 188.100 241.900 V 245.850 C 188.100 245.878 188.122 245.900 188.150 245.900 H 196.150 C 196.178 245.900 196.200 245.878 196.200 245.850 V 241.900 C 196.200 241.850 196.150 241.900 196.200 241.900 H 208.150 C 208.178 241.900 208.200 241.878 208.200 241.850 V 237.850 C 208.200 237.822 208.178 237.800 208.150 237.800 H 100.200 V 173.900 H 208.150 C 208.178 173.900 208.200 173.878 208.200 173.850 V 169.850 C 208.200 169.822 208.178 169.800 208.150 169.800 H 196.200 C 196.150 169.800 196.200 169.850 196.200 169.800 V 165.850 C 196.200 165.822 196.178 165.800 196.150 165.800 H 188.150 C 188.122 165.800 188.100 165.822 188.100 165.850 V 169.800 C 188.100 169.850 188.150 169.800 188.100 169.800 H 180.200 C 180.150 169.800 180.200 169.850 180.200 169.800 V 165.850 C 180.200 165.822 180.178 165.800 180.150 165.800 H 172.150 C 172.122 165.800 172.100 165.822 172.100 165.850 V 169.800 C 172.100 169.850 172.150 169.800 172.100 169.800 H 164.200 C 164.150 169.800 164.200 169.850 164.200 169.800 V 165.850 C 164.200 165.822 164.178 165.800 164.150 165.800 H 156.150 C 156.122 165.800 156.100 165.822 156.100 165.850 V 169.800 C 156.100 169.850 156.150 169.800 156.100 169.800 H 148.200 C 148.150 169.800 148.200 169.850 148.200 169.800 V 165.850 C 148.200 165.822 148.178 165.800 148.150 165.800 H 140.150 C 140.122 165.800 140.100 165.822 140.100 165.850 V 169.800 C 140.100 169.850 140.150 169.800 140.100 169.800 H 132.200 C 132.150 169.800 132.200 169.850 132.200 169.800 V 165.850 C 132.200 165.822 132.178 165.800 132.150 165.800 H 124.150 C 124.122 165.800 124.100 165.822 124.100 165.850 V 169.800 C 124.100 169.850 124.150 169.800 124.100 169.800 H 116.200 C 116.150 169.800 116.200 169.850 116.200 169.800 V 165.850 C 116.200 165.822 116.178 165.800 116.150 165.800 H 108.150 C 108.122 165.800 108.100 165.822 108.100 165.850 V 169.800 C 108.100 169.850 108.150 169.800 108.100 169.800 H 96.150 C 96.122 169.800 96.100 169.822 96.100 169.850 V 177.800 C 96.100 177.850 96.150 177.800 96.100 177.800 H 92.150 C 92.122 177.800 92.100 177.822 92.100 177.850 V 185.850 C 92.100 185.878 92.122 185.900 92.150 185.900 H 96.100 C 96.150 185.900 96.100 185.850 96.100 185.900 V 193.800 C 96.100 193.850 96.150 193.800 96.100 193.800 H 92.150 C 92.122 193.800 92.100 193.822 92.100 193.850 V 201.850 C 92.100 201.878 92.122 201.900 92.150 201.900 H 96.100 C 96.150 201.900 96.100 201.850 96.100 201.900 V 209.800 C 96.100 209.850 96.150 209.800 96.100 209.800 H 92.150 C 92.122 209.800 92.100 209.822 92.100 209.850 V 217.850 C 92.100 217.878 92.122 217.900 92.150 217.900 H 96.100 C 96.150 217.900 96.100 217.850 96.100 217.900 V 225.800 C 96.100 225.850 96.150 225.800 96.100 225.800 H 92.150 C 92.122 225.800 92.100 225.822 92.100 225.850 V 233.850 C 92.100 233.878 92.122 233.900 92.150 233.900 H 96.100 C 96.150 233.900 96.100 233.850 96.100 233.900 V 241.850 C 96.100 241.878 96.122 241.900 96.150 241.900 Z" stroke="rgb(0,0,0)" stroke-width="0.10" />
</g>
</svg>