<?xml version='1.0' encoding='utf-8'?>
<svg height="444.70mm" viewBox="0.0 0.0 282.20 444.70" width="282.20mm" xmlns="http://www.w3.org/2000/svg" xmlns:cc="http://creativecommons.org/ns#" xmlns:dc="http://purl.org/dc/elements/1.1/" xmlns:inkscape="http://www.inkscape.org/namespaces/inkscape" xmlns:rdf="http://www.w3.org/1999/02/22-rdf-syntax-ns#" xmlns:svg="http://www.w3.org/2000/svg" xmlns:xlink="http://www.w3.org/1999/xlink">
<!--
CardBox - Box for storage of playing cards, with versatile options



### Description
Versatile Box for Storage of playing cards. Multiple different styles of storage are supported, e.g. a flat storage or a trading card deck box style storage. See images for ideas.

#### Building instructions
Place inner walls on floor first (if any). Then add the outer walls. Glue the two walls without finger joins to the inside of the side walls. Make sure there is no squeeze out on top, as this is going to form the rail for the lid.

Add the top of the rails to the sides (front open) or to the back and front (right side open) and the grip rail to the lid.
Details of the lid and rails
![Details](static/samples/CardBox-detail.jpg)
Whole box (early version still missing grip rail on the lid):



Created with Boxes.py (https://boxes.hackerspace-bamberg.de/)
Creation date: 2026-08-04 12:50:52
Command line (remove spaces between dashes): boxes CardBox - -sx - -y - -h - -fingerhole - -fingerhole_depth - -add_lidtopper - -thickness - -burn - -reference - -labels
-->
<title>CardBox</title>
<metadata>
<rdf:RDF><cc:Work>
<dc:title>Box - CardBox</dc:title>
<dc:date>2026-08-04 12:50:52</dc:date>
<dc:source>boxes CardBox --sx 40:70 --y 60 --h 80 --outside 0 --openingdirection front --fingerhole custom --fingerhole_depth 45 --add_lidtopper 1 --thickness 4 --burn 0.05 --reference 0 --labels 0</dc:source>
<dc:description>Box for storage of playing cards, with versatile options


### Description
Versatile Box for Storage of playing cards. Multiple different styles of storage are supported, e.g. a flat storage or a trading card deck box style storage. See images for ideas.

#### Building instructions
Place inner walls on floor first (if any). Then add the outer walls. Glue the two walls without finger joins to the inside of the side walls. Make sure there is no squeeze out on top, as this is going to form the rail for the lid.

Add the top of the rails to the sides (front open) or to the back and front (right side open) and the grip rail to the lid.
Details of the lid and rails
![Details](static/samples/CardBox-detail.jpg)
Whole box (early version still missing grip rail on the lid):


Created with Boxes.py (https://boxes.hackerspace-bamberg.de/)
Command line: boxes CardBox --sx 40:70 --y 60 --h 80 --outside 0 --openingdirection front --fingerhole custom --fingerhole_depth 45 --add_lidtopper 1 --thickness 4 --burn 0.05 --reference 0 --labels 0
Command line short: boxes CardBox --sx --y --h --fingerhole --fingerhole_depth --add_lidtopper --thickness --burn --reference --labels
</dc:description>
</cc:Work></rdf:RDF></metadata>
<g id="p-0" style="fill:none;stroke-linecap:round;stroke-linejoin:round;">
  <path d="M 10.050 434.700 H 131.250 C 131.278 434.700 131.300 434.678 131.300 434.650 V 374.650 V 370.650 C 131.300 370.622 131.278 370.600 131.250 370.600 H 122.650 C 122.622 370.600 122.600 370.622 122.600 370.650 V 374.600 C 122.600 374.650 122.650 374.600 122.600 374.600 H 114.700 C 114.650 374.600 114.700 374.650 114.700 374.600 V 370.650 C 114.700 370.622 114.678 370.600 114.650 370.600 H 106.650 C 106.622 370.600 106.600 370.622 106.600 370.650 V 374.600 C 106.600 374.650 106.650 374.600 106.600 374.600 H 98.700 C 98.650 374.600 98.700 374.650 98.700 374.600 V 370.650 C 98.700 370.622 98.678 370.600 98.650 370.600 H 90.650 C 90.622 370.600 90.600 370.622 90.600 370.650 V 374.600 C 90.600 374.650 90.650 374.600 90.600 374.600 H 82.700 C 82.650 374.600 82.700 374.650 82.700 374.600 V 370.650 C 82.700 370.622 82.678 370.600 82.650 370.600 H 74.650 C 74.622 370.600 74.600 370.622 74.600 370.650 V 374.600 C 74.600 374.650 74.650 374.600 74.600 374.600 H 66.700 C 66.650 374.600 66.700 374.650 66.700 374.600 V 370.650 C 66.700 370.622 66.678 370.600 66.650 370.600 H 58.650 C 58.622 370.600 58.600 370.622 58.600 370.650 V 374.600 C 58.600 374.650 58.650 374.600 58.600 374.600 H 50.700 C 50.650 374.600 50.700 374.650 50.700 374.600 V 370.650 C 50.700 370.622 50.678 370.600 50.650 370.600 H 42.650 C 42.622 370.600 42.600 370.622 42.600 370.650 V 374.600 C 42.600 374.650 42.650 374.600 42.600 374.600 H 34.700 C 34.650 374.600 34.700 374.650 34.700 374.600 V 370.650 C 34.700 370.622 34.678 370.600 34.650 370.600 H 26.650 C 26.622 370.600 26.600 370.622 26.600 370.650 V 374.600 C 26.600 374.650 26.650 374.600 26.600 374.600 H 18.700 C 18.650 374.600 18.700 374.650 18.700 374.600 V 370.650 C 18.700 370.622 18.678 370.600 18.650 370.600 H 10.050 C 10.022 370.600 10.000 370.622 10.000 370.650 V 374.650 V 434.650 C 10.000 434.678 10.022 434.700 10.050 434.700 Z" stroke="rgb(0,0,0)" stroke-width="0.10" />
</g>
<g id="p-1" style="fill:none;stroke-linecap:round;stroke-linejoin:round;">
  <path d="M 185.300 416.650 V 420.600 C 185.300 420.650 185.350 420.600 185.300 420.600 H 181.400 C 181.350 420.600 181.400 420.650 181.400 420.600 V 412.700 C 181.400 412.650 181.350 412.700 181.400 412.700 H 185.300 C 185.350 412.700 185.300 412.650 185.300 412.700 V 416.650 Z" stroke="rgb(0,0,255)" stroke-width="0.10" />
  <path d="M 185.300 400.650 V 404.600 C 185.300 404.650 185.350 404.600 185.300 404.600 H 181.400 C 181.350 404.600 181.400 404.650 181.400 404.600 V 396.700 C 181.400 396.650 181.350 396.700 181.400 396.700 H 185.300 C 185.350 396.700 185.300 396.650 185.300 396.700 V 400.650 Z" stroke="rgb(0,0,255)" stroke-width="0.10" />
  <path d="M 185.300 384.650 V 388.600 C 185.300 388.650 185.350 388.600 185.300 388.600 H 181.400 C 181.350 388.600 181.400 388.650 181.400 388.600 V 380.700 C 181.400 380.650 181.350 380.700 181.400 380.700 H 185.300 C 185.350 380.700 185.300 380.650 185.300 380.700 V 384.650 Z" stroke="rgb(0,0,255)" stroke-width="0.10" />
  <path d="M 137.350 430.700 H 146.300 C 146.350 430.700 146.300 430.650 146.300 430.700 V 434.650 C 146.300 434.678 146.322 434.700 146.350 434.700 H 154.350 C 154.378 434.700 154.400 434.678 154.400 434.650 V 430.700 C 154.400 430.650 154.350 430.700 154.400 430.700 H 162.300 C 162.350 430.700 162.300 430.650 162.300 430.700 V 434.650 C 162.300 434.678 162.322 434.700 162.350 434.700 H 170.350 C 170.378 434.700 170.400 434.678 170.400 434.650 V 430.700 C 170.400 430.650 170.350 430.700 170.400 430.700 H 178.300 C 178.350 430.700 178.300 430.650 178.300 430.700 V 434.650 C 178.300 434.678 178.322 434.700 178.350 434.700 H 186.350 C 186.378 434.700 186.400 434.678 186.400 434.650 V 430.700 C 186.400 430.650 186.350 430.700 186.400 430.700 H 194.300 C 194.350 430.700 194.300 430.650 194.300 430.700 V 434.650 C 194.300 434.678 194.322 434.700 194.350 434.700 H 202.350 C 202.378 434.700 202.400 434.678 202.400 434.650 V 430.700 C 202.400 430.650 202.350 430.700 202.400 430.700 H 210.300 C 210.350 430.700 210.300 430.650 210.300 430.700 V 434.650 C 210.300 434.678 210.322 434.700 210.350 434.700 H 218.350 C 218.378 434.700 218.400 434.678 218.400 434.650 V 430.700 C 218.400 430.650 218.350 430.700 218.400 430.700 H 226.300 C 226.350 430.700 226.300 430.650 226.300 430.700 V 434.650 C 226.300 434.678 226.322 434.700 226.350 434.700 H 234.350 C 234.378 434.700 234.400 434.678 234.400 434.650 V 430.700 C 234.400 430.650 234.350 430.700 234.400 430.700 H 242.300 C 242.350 430.700 242.300 430.650 242.300 430.700 V 434.650 C 242.300 434.678 242.322 434.700 242.350 434.700 H 250.350 C 250.378 434.700 250.400 434.678 250.400 434.650 V 430.700 C 250.400 430.650 250.350 430.700 250.400 430.700 H 259.350 C 259.378 430.700 259.400 430.678 259.400 430.650 V 420.700 C 259.400 420.650 259.350 420.700 259.400 420.700 H 263.350 C 263.378 420.700 263.400 420.678 263.400 420.650 V 412.650 C 263.400 412.622 263.378 412.600 263.350 412.600 H 259.400 C 259.350 412.600 259.400 412.650 259.400 412.600 V 404.700 C 259.400 404.650 259.350 404.700 259.400 404.700 H 263.350 C 263.378 404.700 263.400 404.678 263.400 404.650 V 396.650 C 263.400 396.622 263.378 396.600 263.350 396.600 H 259.400 C 259.350 396.600 259.400 396.650 259.400 396.600 V 388.700 C 259.400 388.650 259.350 388.700 259.400 388.700 H 263.350 C 263.378 388.700 263.400 388.678 263.400 388.650 V 380.650 C 263.400 380.622 263.378 380.600 263.350 380.600 H 259.400 C 259.350 380.600 259.400 380.650 259.400 380.600 V 370.650 C 259.400 370.622 259.378 370.600 259.350 370.600 H 250.400 C 250.350 370.600 250.400 370.650 250.400 370.600 V 366.650 C 250.400 366.622 250.378 366.600 250.350 366.600 H 242.350 C 242.322 366.600 242.300 366.622 242.300 366.650 V 370.600 C 242.300 370.650 242.350 370.600 242.300 370.600 H 234.400 C 234.350 370.600 234.400 370.650 234.400 370.600 V 366.650 C 234.400 366.622 234.378 366.600 234.350 366.600 H 226.350 C 226.322 366.600 226.300 366.622 226.300 366.650 V 370.600 C 226.300 370.650 226.350 370.600 226.300 370.600 H 218.400 C 218.350 370.600 218.400 370.650 218.400 370.600 V 366.650 C 218.400 366.622 218.378 366.600 218.350 366.600 H 210.350 C 210.322 366.600 210.300 366.622 210.300 366.650 V 370.600 C 210.300 370.650 210.350 370.600 210.300 370.600 H 202.400 C 202.350 370.600 202.400 370.650 202.400 370.600 V 366.650 C 202.400 366.622 202.378 366.600 202.350 366.600 H 194.350 C 194.322 366.600 194.300 366.622 194.300 366.650 V 370.600 C 194.300 370.650 194.350 370.600 194.300 370.600 H 186.400 C 186.350 370.600 186.400 370.650 186.400 370.600 V 366.650 C 186.400 366.622 186.378 366.600 186.350 366.600 H 178.350 C 178.322 366.600 178.300 366.622 178.300 366.650 V 370.600 C 178.300 370.650 178.350 370.600 178.300 370.600 H 170.400 C 170.350 370.600 170.400 370.650 170.400 370.600 V 366.650 C 170.400 366.622 170.378 366.600 170.350 366.600 H 162.350 C 162.322 366.600 162.300 366.622 162.300 366.650 V 370.600 C 162.300 370.650 162.350 370.600 162.300 370.600 H 154.400 C 154.350 370.600 154.400 370.650 154.400 370.600 V 366.650 C 154.400 366.622 154.378 366.600 154.350 366.600 H 146.350 C 146.322 366.600 146.300 366.622 146.300 366.650 V 370.600 C 146.300 370.650 146.350 370.600 146.300 370.600 H 137.350 C 137.322 370.600 137.300 370.622 137.300 370.650 V 380.600 C 137.300 380.650 137.350 380.600 137.300 380.600 H 133.350 C 133.322 380.600 133.300 380.622 133.300 380.650 V 388.650 C 133.300 388.678 133.322 388.700 133.350 388.700 H 137.300 C 137.350 388.700 137.300 388.650 137.300 388.700 V 396.600 C 137.300 396.650 137.350 396.600 137.300 396.600 H 133.350 C 133.322 396.600 133.300 396.622 133.300 396.650 V 404.650 C 133.300 404.678 133.322 404.700 133.350 404.700 H 137.300 C 137.350 404.700 137.300 404.650 137.300 404.700 V 412.600 C 137.300 412.650 137.350 412.600 137.300 412.600 H 133.350 C 133.322 412.600 133.300 412.622 133.300 412.650 V 420.650 C 133.300 420.678 133.322 420.700 133.350 420.700 H 137.300 C 137.350 420.700 137.300 420.650 137.300 420.700 V 430.650 C 137.300 430.678 137.322 430.700 137.350 430.700 Z" stroke="rgb(0,0,0)" stroke-width="0.10" />
</g>
<g id="p-2" style="fill:none;stroke-linecap:round;stroke-linejoin:round;">
  <path d="M 14.050 364.600 H 22.600 C 22.650 364.600 22.600 364.550 22.600 364.600 V 368.550 C 22.600 368.578 22.622 368.600 22.650 368.600 H 30.650 C 30.678 368.600 30.700 368.578 30.700 368.550 V 364.600 C 30.700 364.550 30.650 364.600 30.700 364.600 H 38.600 C 38.650 364.600 38.600 364.550 38.600 364.600 V 368.550 C 38.600 368.578 38.622 368.600 38.650 368.600 H 46.650 C 46.678 368.600 46.700 368.578 46.700 368.550 V 364.600 C 46.700 364.550 46.650 364.600 46.700 364.600 H 54.600 C 54.650 364.600 54.600 364.550 54.600 364.600 V 368.550 C 54.600 368.578 54.622 368.600 54.650 368.600 H 62.650 C 62.678 368.600 62.700 368.578 62.700 368.550 V 364.600 C 62.700 364.550 62.650 364.600 62.700 364.600 H 70.600 C 70.650 364.600 70.600 364.550 70.600 364.600 V 368.550 C 70.600 368.578 70.622 368.600 70.650 368.600 H 78.650 C 78.678 368.600 78.700 368.578 78.700 368.550 V 364.600 C 78.700 364.550 78.650 364.600 78.700 364.600 H 86.600 C 86.650 364.600 86.600 364.550 86.600 364.600 V 368.550 C 86.600 368.578 86.622 368.600 86.650 368.600 H 94.650 C 94.678 368.600 94.700 368.578 94.700 368.550 V 364.600 C 94.700 364.550 94.650 364.600 94.700 364.600 H 102.600 C 102.650 364.600 102.600 364.550 102.600 364.600 V 368.550 C 102.600 368.578 102.622 368.600 102.650 368.600 H 110.650 C 110.678 368.600 110.700 368.578 110.700 368.550 V 364.600 C 110.700 364.550 110.650 364.600 110.700 364.600 H 118.600 C 118.650 364.600 118.600 364.550 118.600 364.600 V 368.550 C 118.600 368.578 118.622 368.600 118.650 368.600 H 126.650 C 126.678 368.600 126.700 368.578 126.700 368.550 V 364.600 C 126.700 364.550 126.650 364.600 126.700 364.600 H 135.250 H 139.250 C 139.278 364.600 139.300 364.578 139.300 364.550 V 360.550 C 139.300 360.522 139.278 360.500 139.250 360.500 H 135.250 H 14.050 H 10.050 C 10.022 360.500 10.000 360.522 10.000 360.550 V 364.550 C 10.000 364.578 10.022 364.600 10.050 364.600 H 14.050 Z" stroke="rgb(0,0,0)" stroke-width="0.10" />
</g>
<g id="p-3" style="fill:none;stroke-linecap:round;stroke-linejoin:round;">
  <path d="M 62.000 338.450 V 342.400 C 62.000 342.450 62.050 342.400 62.000 342.400 H 58.100 C 58.050 342.400 58.100 342.450 58.100 342.400 V 334.500 C 58.100 334.450 58.050 334.500 58.100 334.500 H 62.000 C 62.050 334.500 62.000 334.450 62.000 334.500 V 338.450 Z" stroke="rgb(0,0,255)" stroke-width="0.10" />
  <path d="M 62.000 322.450 V 326.400 C 62.000 326.450 62.050 326.400 62.000 326.400 H 58.100 C 58.050 326.400 58.100 326.450 58.100 326.400 V 318.500 C 58.100 318.450 58.050 318.500 58.100 318.500 H 62.000 C 62.050 318.500 62.000 318.450 62.000 318.500 V 322.450 Z" stroke="rgb(0,0,255)" stroke-width="0.10" />
  <path d="M 62.000 306.450 V 310.400 C 62.000 310.450 62.050 310.400 62.000 310.400 H 58.100 C 58.050 310.400 58.100 310.450 58.100 310.400 V 302.500 C 58.100 302.450 58.050 302.500 58.100 302.500 H 62.000 C 62.050 302.500 62.000 302.450 62.000 302.500 V 306.450 Z" stroke="rgb(0,0,255)" stroke-width="0.10" />
  <path d="M 62.000 290.450 V 294.400 C 62.000 294.450 62.050 294.400 62.000 294.400 H 58.100 C 58.050 294.400 58.100 294.450 58.100 294.400 V 286.500 C 58.100 286.450 58.050 286.500 58.100 286.500 H 62.000 C 62.050 286.500 62.000 286.450 62.000 286.500 V 290.450 Z" stroke="rgb(0,0,255)" stroke-width="0.10" />
  <path d="M 14.050 358.500 H 23.050 C 23.078 358.500 23.100 358.478 23.100 358.450 V 354.500 C 23.100 354.450 23.050 354.500 23.100 354.500 H 31.000 C 31.050 354.500 31.000 354.450 31.000 354.500 V 358.450 C 31.000 358.478 31.022 358.500 31.050 358.500 H 39.050 C 39.078 358.500 39.100 358.478 39.100 358.450 V 354.500 C 39.100 354.450 39.050 354.500 39.100 354.500 H 47.000 C 47.050 354.500 47.000 354.450 47.000 354.500 V 358.450 C 47.000 358.478 47.022 358.500 47.050 358.500 H 55.050 C 55.078 358.500 55.100 358.478 55.100 358.450 V 354.500 C 55.100 354.450 55.050 354.500 55.100 354.500 H 63.000 C 63.050 354.500 63.000 354.450 63.000 354.500 V 358.450 C 63.000 358.478 63.022 358.500 63.050 358.500 H 71.050 C 71.078 358.500 71.100 358.478 71.100 358.450 V 354.500 C 71.100 354.450 71.050 354.500 71.100 354.500 H 79.000 C 79.050 354.500 79.000 354.450 79.000 354.500 V 358.450 C 79.000 358.478 79.022 358.500 79.050 358.500 H 87.050 C 87.078 358.500 87.100 358.478 87.100 358.450 V 354.500 C 87.100 354.450 87.050 354.500 87.100 354.500 H 95.000 C 95.050 354.500 95.000 354.450 95.000 354.500 V 358.450 C 95.000 358.478 95.022 358.500 95.050 358.500 H 103.050 C 103.078 358.500 103.100 358.478 103.100 358.450 V 354.500 C 103.100 354.450 103.050 354.500 103.100 354.500 H 111.000 C 111.050 354.500 111.000 354.450 111.000 354.500 V 358.450 C 111.000 358.478 111.022 358.500 111.050 358.500 H 119.050 C 119.078 358.500 119.100 358.478 119.100 358.450 V 354.500 C 119.100 354.450 119.050 354.500 119.100 354.500 H 127.000 C 127.050 354.500 127.000 354.450 127.000 354.500 V 358.450 C 127.000 358.478 127.022 358.500 127.050 358.500 H 136.050 H 140.050 C 140.078 358.500 140.100 358.478 140.100 358.450 V 354.450 V 340.450 C 140.100 340.422 140.078 340.400 140.050 340.400 H 136.100 C 136.050 340.400 136.100 340.450 136.100 340.400 V 332.500 C 136.100 332.450 136.050 332.500 136.100 332.500 H 140.050 C 140.078 332.500 140.100 332.478 140.100 332.450 V 324.450 C 140.100 324.422 140.078 324.400 140.050 324.400 H 136.100 C 136.050 324.400 136.100 324.450 136.100 324.400 V 316.500 C 136.100 316.450 136.050 316.500 136.100 316.500 H 140.050 C 140.078 316.500 140.100 316.478 140.100 316.450 V 308.450 C 140.100 308.422 140.078 308.400 140.050 308.400 H 136.100 C 136.050 308.400 136.100 308.450 136.100 308.400 V 300.500 C 136.100 300.450 136.050 300.500 136.100 300.500 H 140.050 C 140.078 300.500 140.100 300.478 140.100 300.450 V 292.450 C 140.100 292.422 140.078 292.400 140.050 292.400 H 136.100 C 136.050 292.400 136.100 292.450 136.100 292.400 V 284.500 C 136.100 284.450 136.050 284.500 136.100 284.500 H 140.050 C 140.078 284.500 140.100 284.478 140.100 284.450 V 270.450 V 266.450 C 140.100 266.422 140.078 266.400 140.050 266.400 H 136.050 H 14.050 H 10.050 C 10.022 266.400 10.000 266.422 10.000 266.450 V 270.450 V 284.450 C 10.000 284.478 10.022 284.500 10.050 284.500 H 14.000 C 14.050 284.500 14.000 284.450 14.000 284.500 V 292.400 C 14.000 292.450 14.050 292.400 14.000 292.400 H 10.050 C 10.022 292.400 10.000 292.422 10.000 292.450 V 300.450 C 10.000 300.478 10.022 300.500 10.050 300.500 H 14.000 C 14.050 300.500 14.000 300.450 14.000 300.500 V 308.400 C 14.000 308.450 14.050 308.400 14.000 308.400 H 10.050 C 10.022 308.400 10.000 308.422 10.000 308.450 V 316.450 C 10.000 316.478 10.022 316.500 10.050 316.500 H 14.000 C 14.050 316.500 14.000 316.450 14.000 316.500 V 324.400 C 14.000 324.450 14.050 324.400 14.000 324.400 H 10.050 C 10.022 324.400 10.000 324.422 10.000 324.450 V 332.450 C 10.000 332.478 10.022 332.500 10.050 332.500 H 14.000 C 14.050 332.500 14.000 332.450 14.000 332.500 V 340.400 C 14.000 340.450 14.050 340.400 14.000 340.400 H 10.050 C 10.022 340.400 10.000 340.422 10.000 340.450 V 354.450 V 358.450 C 10.000 358.478 10.022 358.500 10.050 358.500 H 14.050 Z" stroke="rgb(0,0,0)" stroke-width="0.10" />
</g>
<g id="p-4" style="fill:none;stroke-linecap:round;stroke-linejoin:round;">
  <path d="M 194.100 338.450 V 342.400 C 194.100 342.450 194.150 342.400 194.100 342.400 H 190.200 C 190.150 342.400 190.200 342.450 190.200 342.400 V 334.500 C 190.200 334.450 190.150 334.500 190.200 334.500 H 194.100 C 194.150 334.500 194.100 334.450 194.100 334.500 V 338.450 Z" stroke="rgb(0,0,255)" stroke-width="0.10" />
  <path d="M 194.100 322.450 V 326.400 C 194.100 326.450 194.150 326.400 194.100 326.400 H 190.200 C 190.150 326.400 190.200 326.450 190.200 326.400 V 318.500 C 190.200 318.450 190.150 318.500 190.200 318.500 H 194.100 C 194.150 318.500 194.100 318.450 194.100 318.500 V 322.450 Z" stroke="rgb(0,0,255)" stroke-width="0.10" />
  <path d="M 194.100 306.450 V 310.400 C 194.100 310.450 194.150 310.400 194.100 310.400 H 190.200 C 190.150 310.400 190.200 310.450 190.200 310.400 V 302.500 C 190.200 302.450 190.150 302.500 190.200 302.500 H 194.100 C 194.150 302.500 194.100 302.450 194.100 302.500 V 306.450 Z" stroke="rgb(0,0,255)" stroke-width="0.10" />
  <path d="M 194.100 290.450 V 294.400 C 194.100 294.450 194.150 294.400 194.100 294.400 H 190.200 C 190.150 294.400 190.200 294.450 190.200 294.400 V 286.500 C 190.200 286.450 190.150 286.500 190.200 286.500 H 194.100 C 194.150 286.500 194.100 286.450 194.100 286.500 V 290.450 Z" stroke="rgb(0,0,255)" stroke-width="0.10" />
  <path d="M 146.150 358.500 H 155.150 C 155.178 358.500 155.200 358.478 155.200 358.450 V 354.500 C 155.200 354.450 155.150 354.500 155.200 354.500 H 163.100 C 163.150 354.500 163.100 354.450 163.100 354.500 V 358.450 C 163.100 358.478 163.122 358.500 163.150 358.500 H 171.150 C 171.178 358.500 171.200 358.478 171.200 358.450 V 354.500 C 171.200 354.450 171.150 354.500 171.200 354.500 H 179.100 C 179.150 354.500 179.100 354.450 179.100 354.500 V 358.450 C 179.100 358.478 179.122 358.500 179.150 358.500 H 187.150 C 187.178 358.500 187.200 358.478 187.200 358.450 V 354.500 C 187.200 354.450 187.150 354.500 187.200 354.500 H 195.100 C 195.150 354.500 195.100 354.450 195.100 354.500 V 358.450 C 195.100 358.478 195.122 358.500 195.150 358.500 H 203.150 C 203.178 358.500 203.200 358.478 203.200 358.450 V 354.500 C 203.200 354.450 203.150 354.500 203.200 354.500 H 211.100 C 211.150 354.500 211.100 354.450 211.100 354.500 V 358.450 C 211.100 358.478 211.122 358.500 211.150 358.500 H 219.150 C 219.178 358.500 219.200 358.478 219.200 358.450 V 354.500 C 219.200 354.450 219.150 354.500 219.200 354.500 H 227.100 C 227.150 354.500 227.100 354.450 227.100 354.500 V 358.450 C 227.100 358.478 227.122 358.500 227.150 358.500 H 235.150 C 235.178 358.500 235.200 358.478 235.200 358.450 V 354.500 C 235.200 354.450 235.150 354.500 235.200 354.500 H 243.100 C 243.150 354.500 243.100 354.450 243.100 354.500 V 358.450 C 243.100 358.478 243.122 358.500 243.150 358.500 H 251.150 C 251.178 358.500 251.200 358.478 251.200 358.450 V 354.500 C 251.200 354.450 251.150 354.500 251.200 354.500 H 259.100 C 259.150 354.500 259.100 354.450 259.100 354.500 V 358.450 C 259.100 358.478 259.122 358.500 259.150 358.500 H 268.150 H 272.150 C 272.178 358.500 272.200 358.478 272.200 358.450 V 354.450 V 340.450 C 272.200 340.422 272.178 340.400 272.150 340.400 H 268.200 C 268.150 340.400 268.200 340.450 268.200 340.400 V 332.500 C 268.200 332.450 268.150 332.500 268.200 332.500 H 272.150 C 272.178 332.500 272.200 332.478 272.200 332.450 V 324.450 C 272.200 324.422 272.178 324.400 272.150 324.400 H 268.200 C 268.150 324.400 268.200 324.450 268.200 324.400 V 316.500 C 268.200 316.450 268.150 316.500 268.200 316.500 H 272.150 C 272.178 316.500 272.200 316.478 272.200 316.450 V 308.450 C 272.200 308.422 272.178 308.400 272.150 308.400 H 268.200 C 268.150 308.400 268.200 308.450 268.200 308.400 V 300.500 C 268.200 300.450 268.150 300.500 268.200 300.500 H 272.150 C 272.178 300.500 272.200 300.478 272.200 300.450 V 292.450 C 272.200 292.422 272.178 292.400 272.150 292.400 H 268.200 C 268.150 292.400 268.200 292.450 268.200 292.400 V 284.500 C 268.200 284.450 268.150 284.500 268.200 284.500 H 272.150 C 272.178 284.500 272.200 284.478 272.200 284.450 V 270.450 C 272.200 270.422 272.178 270.400 272.150 270.400 H 268.150 C 268.122 270.400 268.100 270.422 268.100 270.450 V 274.400 C 268.100 274.450 268.150 274.400 268.100 274.400 H 146.200 C 146.150 274.400 146.200 274.450 146.200 274.400 V 270.450 C 146.200 270.422 146.178 270.400 146.150 270.400 H 142.150 C 142.122 270.400 142.100 270.422 142.100 270.450 V 284.450 C 142.100 284.478 142.122 284.500 142.150 284.500 H 146.100 C 146.150 284.500 146.100 284.450 146.100 284.500 V 292.400 C 146.100 292.450 146.150 292.400 146.100 292.400 H 142.150 C 142.122 292.400 142.100 292.422 142.100 292.450 V 300.450 C 142.100 300.478 142.122 300.500 142.150 300.500 H 146.100 C 146.150 300.500 146.100 300.450 146.100 300.500 V 308.400 C 146.100 308.450 146.150 308.400 146.100 308.400 H 142.150 C 142.122 308.400 142.100 308.422 142.100 308.450 V 316.450 C 142.100 316.478 142.122 316.500 142.150 316.500 H 146.100 C 146.150 316.500 146.100 316.450 146.100 316.500 V 324.400 C 146.100 324.450 146.150 324.400 146.100 324.400 H 142.150 C 142.122 324.400 142.100 324.422 142.100 324.450 V 332.450 C 142.100 332.478 142.122 332.500 142.150 332.500 H 146.100 C 146.150 332.500 146.100 332.450 146.100 332.500 V 340.400 C 146.100 340.450 146.150 340.400 146.100 340.400 H 142.150 C 142.122 340.400 142.100 340.422 142.100 340.450 V 354.450 V 358.450 C 142.100 358.478 142.122 358.500 142.150 358.500 H 146.150 Z" stroke="rgb(0,0,0)" stroke-width="0.10" />
</g>
<g id="p-5" style="fill:none;stroke-linecap:round;stroke-linejoin:round;">
  <path d="M 14.050 264.400 H 24.050 C 24.078 264.400 24.100 264.378 24.100 264.350 V 260.400 C 24.100 260.350 24.050 260.400 24.100 260.400 H 32.000 C 32.050 260.400 32.000 260.350 32.000 260.400 V 264.350 C 32.000 264.378 32.022 264.400 32.050 264.400 H 40.050 C 40.078 264.400 40.100 264.378 40.100 264.350 V 260.400 C 40.100 260.350 40.050 260.400 40.100 260.400 H 48.000 C 48.050 260.400 48.000 260.350 48.000 260.400 V 264.350 C 48.000 264.378 48.022 264.400 48.050 264.400 H 56.050 C 56.078 264.400 56.100 264.378 56.100 264.350 V 260.400 C 56.100 260.350 56.050 260.400 56.100 260.400 H 64.000 C 64.050 260.400 64.000 260.350 64.000 260.400 V 264.350 C 64.000 264.378 64.022 264.400 64.050 264.400 H 74.050 C 74.078 264.400 74.100 264.378 74.100 264.350 V 260.350 V 246.400 C 74.100 246.350 74.050 246.400 74.100 246.400 H 78.050 C 78.078 246.400 78.100 246.378 78.100 246.350 V 238.350 C 78.100 238.322 78.078 238.300 78.050 238.300 H 74.100 C 74.050 238.300 74.100 238.350 74.100 238.300 V 230.400 C 74.100 230.350 74.050 230.400 74.100 230.400 H 78.050 C 78.078 230.400 78.100 230.378 78.100 230.350 V 222.350 C 78.100 222.322 78.078 222.300 78.050 222.300 H 74.100 C 74.050 222.300 74.100 222.350 74.100 222.300 V 214.400 C 74.100 214.350 74.050 214.400 74.100 214.400 H 78.050 C 78.078 214.400 78.100 214.378 78.100 214.350 V 206.350 C 78.100 206.322 78.078 206.300 78.050 206.300 H 74.100 C 74.050 206.300 74.100 206.350 74.100 206.300 V 198.400 C 74.100 198.350 74.050 198.400 74.100 198.400 H 78.050 C 78.078 198.400 78.100 198.378 78.100 198.350 V 190.350 C 78.100 190.322 78.078 190.300 78.050 190.300 H 74.100 C 74.050 190.300 74.100 190.350 74.100 190.300 V 176.350 V 172.350 C 74.100 172.322 74.078 172.300 74.050 172.300 H 64.050 C 64.022 172.300 64.000 172.322 64.000 172.350 V 176.300 C 64.000 176.350 64.050 176.300 64.000 176.300 H 56.100 C 56.050 176.300 56.100 176.350 56.100 176.300 V 172.350 C 56.100 172.322 56.078 172.300 56.050 172.300 H 48.050 C 48.022 172.300 48.000 172.322 48.000 172.350 V 176.300 C 48.000 176.350 48.050 176.300 48.000 176.300 H 40.100 C 40.050 176.300 40.100 176.350 40.100 176.300 V 172.350 C 40.100 172.322 40.078 172.300 40.050 172.300 H 32.050 C 32.022 172.300 32.000 172.322 32.000 172.350 V 176.300 C 32.000 176.350 32.050 176.300 32.000 176.300 H 24.100 C 24.050 176.300 24.100 176.350 24.100 176.300 V 172.350 C 24.100 172.322 24.078 172.300 24.050 172.300 H 14.050 C 14.022 172.300 14.000 172.322 14.000 172.350 V 176.350 V 190.300 C 14.000 190.350 14.050 190.300 14.000 190.300 H 10.050 C 10.022 190.300 10.000 190.322 10.000 190.350 V 198.350 C 10.000 198.378 10.022 198.400 10.050 198.400 H 14.000 C 14.050 198.400 14.000 198.350 14.000 198.400 V 206.300 C 14.000 206.350 14.050 206.300 14.000 206.300 H 10.050 C 10.022 206.300 10.000 206.322 10.000 206.350 V 214.350 C 10.000 214.378 10.022 214.400 10.050 214.400 H 14.000 C 14.050 214.400 14.000 214.350 14.000 214.400 V 222.300 C 14.000 222.350 14.050 222.300 14.000 222.300 H 10.050 C 10.022 222.300 10.000 222.322 10.000 222.350 V 230.350 C 10.000 230.378 10.022 230.400 10.050 230.400 H 14.000 C 14.050 230.400 14.000 230.350 14.000 230.400 V 238.300 C 14.000 238.350 14.050 238.300 14.000 238.300 H 10.050 C 10.022 238.300 10.000 238.322 10.000 238.350 V 246.350 C 10.000 246.378 10.022 246.400 10.050 246.400 H 14.000 C 14.050 246.400 14.000 246.350 14.000 246.400 V 260.350 V 264.350 C 14.000 264.378 14.022 264.400 14.050 264.400 Z" stroke="rgb(0,0,0)" stroke-width="0.10" />
</g>
<g id="p-6" style="fill:none;stroke-linecap:round;stroke-linejoin:round;">
  <path d="M 84.150 264.400 H 94.150 C 94.178 264.400 94.200 264.378 94.200 264.350 V 260.400 C 94.200 260.350 94.150 260.400 94.200 260.400 H 102.100 C 102.150 260.400 102.100 260.350 102.100 260.400 V 264.350 C 102.100 264.378 102.122 264.400 102.150 264.400 H 110.150 C 110.178 264.400 110.200 264.378 110.200 264.350 V 260.400 C 110.200 260.350 110.150 260.400 110.200 260.400 H 118.100 C 118.150 260.400 118.100 260.350 118.100 260.400 V 264.350 C 118.100 264.378 118.122 264.400 118.150 264.400 H 126.150 C 126.178 264.400 126.200 264.378 126.200 264.350 V 260.400 C 126.200 260.350 126.150 260.400 126.200 260.400 H 134.100 C 134.150 260.400 134.100 260.350 134.100 260.400 V 264.350 C 134.100 264.378 134.122 264.400 134.150 264.400 H 144.150 C 144.178 264.400 144.200 264.378 144.200 264.350 V 260.350 V 246.400 C 144.200 246.350 144.150 246.400 144.200 246.400 H 148.150 C 148.178 246.400 148.200 246.378 148.200 246.350 V 238.350 C 148.200 238.322 148.178 238.300 148.150 238.300 H 144.200 C 144.150 238.300 144.200 238.350 144.200 238.300 V 230.400 C 144.200 230.350 144.150 230.400 144.200 230.400 H 148.150 C 148.178 230.400 148.200 230.378 148.200 230.350 V 222.350 C 148.200 222.322 148.178 222.300 148.150 222.300 H 144.200 C 144.150 222.300 144.200 222.350 144.200 222.300 V 214.400 C 144.200 214.350 144.150 214.400 144.200 214.400 H 148.150 C 148.178 214.400 148.200 214.378 148.200 214.350 V 206.350 C 148.200 206.322 148.178 206.300 148.150 206.300 H 144.200 C 144.150 206.300 144.200 206.350 144.200 206.300 V 198.400 C 144.200 198.350 144.150 198.400 144.200 198.400 H 148.150 C 148.178 198.400 148.200 198.378 148.200 198.350 V 190.350 C 148.200 190.322 148.178 190.300 148.150 190.300 H 144.200 C 144.150 190.300 144.200 190.350 144.200 190.300 V 176.350 V 172.350 C 144.200 172.322 144.178 172.300 144.150 172.300 H 134.150 C 134.122 172.300 134.100 172.322 134.100 172.350 V 176.300 C 134.100 176.350 134.150 176.300 134.100 176.300 H 126.200 C 126.150 176.300 126.200 176.350 126.200 176.300 V 172.350 C 126.200 172.322 126.178 172.300 126.150 172.300 H 118.150 C 118.122 172.300 118.100 172.322 118.100 172.350 V 176.300 C 118.100 176.350 118.150 176.300 118.100 176.300 H 110.200 C 110.150 176.300 110.200 176.350 110.200 176.300 V 172.350 C 110.200 172.322 110.178 172.300 110.150 172.300 H 102.150 C 102.122 172.300 102.100 172.322 102.100 172.350 V 176.300 C 102.100 176.350 102.150 176.300 102.100 176.300 H 94.200 C 94.150 176.300 94.200 176.350 94.200 176.300 V 172.350 C 94.200 172.322 94.178 172.300 94.150 172.300 H 84.150 C 84.122 172.300 84.100 172.322 84.100 172.350 V 176.350 V 190.300 C 84.100 190.350 84.150 190.300 84.100 190.300 H 80.150 C 80.122 190.300 80.100 190.322 80.100 190.350 V 198.350 C 80.100 198.378 80.122 198.400 80.150 198.400 H 84.100 C 84.150 198.400 84.100 198.350 84.100 198.400 V 206.300 C 84.100 206.350 84.150 206.300 84.100 206.300 H 80.150 C 80.122 206.300 80.100 206.322 80.100 206.350 V 214.350 C 80.100 214.378 80.122 214.400 80.150 214.400 H 84.100 C 84.150 214.400 84.100 214.350 84.100 214.400 V 222.300 C 84.100 222.350 84.150 222.300 84.100 222.300 H 80.150 C 80.122 222.300 80.100 222.322 80.100 222.350 V 230.350 C 80.100 230.378 80.122 230.400 80.150 230.400 H 84.100 C 84.150 230.400 84.100 230.350 84.100 230.400 V 238.300 C 84.100 238.350 84.150 238.300 84.100 238.300 H 80.150 C 80.122 238.300 80.100 238.322 80.100 238.350 V 246.350 C 80.100 246.378 80.122 246.400 80.150 246.400 H 84.100 C 84.150 246.400 84.100 246.350 84.100 246.400 V 260.350 V 264.350 C 84.100 264.378 84.122 264.400 84.150 264.400 Z" stroke="rgb(0,0,0)" stroke-width="0.10" />
</g>
<g id="p-7" style="fill:none;stroke-linecap:round;stroke-linejoin:round;">
  <path d="M 10.050 170.300 H 30.050 C 30.078 170.300 30.100 170.278 30.100 170.250 V 135.250 C 30.100 133.503 30.560 131.788 31.433 130.275 C 32.306 128.762 33.562 127.506 35.075 126.633 C 36.588 125.760 38.303 125.300 40.050 125.300 C 41.797 125.300 43.512 125.760 45.025 126.633 C 46.538 127.506 47.794 128.762 48.667 130.275 C 49.540 131.788 50.000 133.503 50.000 135.250 V 170.250 C 50.000 170.278 50.022 170.300 50.050 170.300 H 70.050 C 70.078 170.300 70.100 170.278 70.100 170.250 V 90.250 C 70.100 90.222 70.078 90.200 70.050 90.200 H 10.050 C 10.022 90.200 10.000 90.222 10.000 90.250 V 170.250 C 10.000 170.278 10.022 170.300 10.050 170.300 Z" stroke="rgb(0,0,0)" stroke-width="0.10" />
</g>
<g id="p-8" style="fill:none;stroke-linecap:round;stroke-linejoin:round;">
  <path d="M 72.150 170.300 H 92.150 C 92.178 170.300 92.200 170.278 92.200 170.250 V 135.250 C 92.200 133.503 92.660 131.788 93.533 130.275 C 94.406 128.762 95.662 127.506 97.175 126.633 C 98.688 125.760 100.403 125.300 102.150 125.300 C 103.897 125.300 105.612 125.760 107.125 126.633 C 108.638 127.506 109.894 128.762 110.767 130.275 C 111.640 131.788 112.100 133.503 112.100 135.250 V 170.250 C 112.100 170.278 112.122 170.300 112.150 170.300 H 132.150 C 132.178 170.300 132.200 170.278 132.200 170.250 V 90.250 C 132.200 90.222 132.178 90.200 132.150 90.200 H 72.150 C 72.122 90.200 72.100 90.222 72.100 90.250 V 170.250 C 72.100 170.278 72.122 170.300 72.150 170.300 Z" stroke="rgb(0,0,0)" stroke-width="0.10" />
</g>
<g id="p-9" style="fill:none;stroke-linecap:round;stroke-linejoin:round;">
  <path d="M 10.050 88.200 H 70.050 C 70.078 88.200 70.100 88.178 70.100 88.150 V 84.150 C 70.100 84.122 70.078 84.100 70.050 84.100 H 60.100 C 60.050 84.100 60.100 84.150 60.100 84.100 V 80.150 C 60.100 80.122 60.078 80.100 60.050 80.100 H 52.050 C 52.022 80.100 52.000 80.122 52.000 80.150 V 84.100 C 52.000 84.150 52.050 84.100 52.000 84.100 H 44.100 C 44.050 84.100 44.100 84.150 44.100 84.100 V 80.150 C 44.100 80.122 44.078 80.100 44.050 80.100 H 36.050 C 36.022 80.100 36.000 80.122 36.000 80.150 V 84.100 C 36.000 84.150 36.050 84.100 36.000 84.100 H 28.100 C 28.050 84.100 28.100 84.150 28.100 84.100 V 80.150 C 28.100 80.122 28.078 80.100 28.050 80.100 H 20.050 C 20.022 80.100 20.000 80.122 20.000 80.150 V 84.100 C 20.000 84.150 20.050 84.100 20.000 84.100 H 10.050 C 10.022 84.100 10.000 84.122 10.000 84.150 V 88.150 C 10.000 88.178 10.022 88.200 10.050 88.200 Z" stroke="rgb(0,0,0)" stroke-width="0.10" />
</g>
<g id="p-10" style="fill:none;stroke-linecap:round;stroke-linejoin:round;">
  <path d="M 72.150 84.200 H 82.100 C 82.150 84.200 82.100 84.150 82.100 84.200 V 88.150 C 82.100 88.178 82.122 88.200 82.150 88.200 H 90.150 C 90.178 88.200 90.200 88.178 90.200 88.150 V 84.200 C 90.200 84.150 90.150 84.200 90.200 84.200 H 98.100 C 98.150 84.200 98.100 84.150 98.100 84.200 V 88.150 C 98.100 88.178 98.122 88.200 98.150 88.200 H 106.150 C 106.178 88.200 106.200 88.178 106.200 88.150 V 84.200 C 106.200 84.150 106.150 84.200 106.200 84.200 H 114.100 C 114.150 84.200 114.100 84.150 114.100 84.200 V 88.150 C 114.100 88.178 114.122 88.200 114.150 88.200 H 122.150 C 122.178 88.200 122.200 88.178 122.200 88.150 V 84.200 C 122.200 84.150 122.150 84.200 122.200 84.200 H 132.150 C 132.178 84.200 132.200 84.178 132.200 84.150 V 80.150 C 132.200 80.122 132.178 80.100 132.150 80.100 H 72.150 C 72.122 80.100 72.100 80.122 72.100 80.150 V 84.150 C 72.100 84.178 72.122 84.200 72.150 84.200 Z" stroke="rgb(0,0,0)" stroke-width="0.10" />
</g>
<g id="p-11" style="fill:none;stroke-linecap:round;stroke-linejoin:round;">
  <path d="M 14.050 74.100 H 26.000 C 26.050 74.100 26.000 74.050 26.000 74.100 V 78.050 C 26.000 78.078 26.022 78.100 26.050 78.100 H 34.050 C 34.078 78.100 34.100 78.078 34.100 78.050 V 74.100 C 34.100 74.050 34.050 74.100 34.100 74.100 H 42.000 C 42.050 74.100 42.000 74.050 42.000 74.100 V 78.050 C 42.000 78.078 42.022 78.100 42.050 78.100 H 50.050 C 50.078 78.100 50.100 78.078 50.100 78.050 V 74.100 C 50.100 74.050 50.050 74.100 50.100 74.100 H 58.000 C 58.050 74.100 58.000 74.050 58.000 74.100 V 78.050 C 58.000 78.078 58.022 78.100 58.050 78.100 H 66.050 C 66.078 78.100 66.100 78.078 66.100 78.050 V 74.100 C 66.100 74.050 66.050 74.100 66.100 74.100 H 74.000 C 74.050 74.100 74.000 74.050 74.000 74.100 V 78.050 C 74.000 78.078 74.022 78.100 74.050 78.100 H 82.050 C 82.078 78.100 82.100 78.078 82.100 78.050 V 74.100 C 82.100 74.050 82.050 74.100 82.100 74.100 H 94.050 C 94.078 74.100 94.100 74.078 94.100 74.050 V 54.050 C 94.100 54.022 94.078 54.000 94.050 54.000 H 59.050 C 57.303 54.000 55.588 53.540 54.075 52.667 C 52.562 51.794 51.306 50.538 50.433 49.025 C 49.560 47.512 49.100 45.797 49.100 44.050 C 49.100 42.303 49.560 40.588 50.433 39.075 C 51.306 37.562 52.562 36.306 54.075 35.433 C 55.588 34.560 57.303 34.100 59.050 34.100 H 94.050 C 94.078 34.100 94.100 34.078 94.100 34.050 V 14.050 C 94.100 14.022 94.078 14.000 94.050 14.000 H 82.100 C 82.050 14.000 82.100 14.050 82.100 14.000 V 10.050 C 82.100 10.022 82.078 10.000 82.050 10.000 H 74.050 C 74.022 10.000 74.000 10.022 74.000 10.050 V 14.000 C 74.000 14.050 74.050 14.000 74.000 14.000 H 66.100 C 66.050 14.000 66.100 14.050 66.100 14.000 V 10.050 C 66.100 10.022 66.078 10.000 66.050 10.000 H 58.050 C 58.022 10.000 58.000 10.022 58.000 10.050 V 14.000 C 58.000 14.050 58.050 14.000 58.000 14.000 H 50.100 C 50.050 14.000 50.100 14.050 50.100 14.000 V 10.050 C 50.100 10.022 50.078 10.000 50.050 10.000 H 42.050 C 42.022 10.000 42.000 10.022 42.000 10.050 V 14.000 C 42.000 14.050 42.050 14.000 42.000 14.000 H 34.100 C 34.050 14.000 34.100 14.050 34.100 14.000 V 10.050 C 34.100 10.022 34.078 10.000 34.050 10.000 H 26.050 C 26.022 10.000 26.000 10.022 26.000 10.050 V 14.000 C 26.000 14.050 26.050 14.000 26.000 14.000 H 14.050 C 14.022 14.000 14.000 14.022 14.000 14.050 V 24.000 C 14.000 24.050 14.050 24.000 14.000 24.000 H 10.050 C 10.022 24.000 10.000 24.022 10.000 24.050 V 32.050 C 10.000 32.078 10.022 32.100 10.050 32.100 H 14.000 C 14.050 32.100 14.000 32.050 14.000 32.100 V 40.000 C 14.000 40.050 14.050 40.000 14.000 40.000 H 10.050 C 10.022 40.000 10.000 40.022 10.000 40.050 V 48.050 C 10.000 48.078 10.022 48.100 10.050 48.100 H 14.000 C 14.050 48.100 14.000 48.050 14.000 48.100 V 56.000 C 14.000 56.050 14.050 56.000 14.000 56.000 H 10.050 C 10.022 56.000 10.000 56.022 10.000 56.050 V 64.050 C 10.000 64.078 10.022 64.100 10.050 64.100 H 14.000 C 14.050 64.100 14.000 64.050 14.000 64.100 V 74.050 C 14.000 74.078 14.022 74.100 14.050 74.100 Z" stroke="rgb(0,0,0)" stroke-width="0.10" />
</g>
<g id="p-12" style="fill:none;stroke-linecap:round;stroke-linejoin:round;">
  <path d="M 96.150 78.100 H 209.350 C 209.378 78.100 209.400 78.078 209.400 78.050 V 18.050 C 209.400 18.022 209.378 18.000 209.350 18.000 H 96.150 C 96.122 18.000 96.100 18.022 96.100 18.050 V 78.050 C 96.100 78.078 96.122 78.100 96.150 78.100 Z" stroke="rgb(0,0,0)" stroke-width="0.10" />
</g>
</svg>