<?xml version='1.0' encoding='utf-8'?>
<svg height="204.40mm" viewBox="0.0 0.0 222.20 204.40" width="222.20mm" xmlns="http://www.w3.org/2000/svg" xmlns:cc="http://creativecommons.org/ns#" xmlns:dc="http://purl.org/dc/elements/1.1/" xmlns:inkscape="http://www.inkscape.org/namespaces/inkscape" xmlns:rdf="http://www.w3.org/1999/02/22-rdf-syntax-ns#" xmlns:svg="http://www.w3.org/2000/svg" xmlns:xlink="http://www.w3.org/1999/xlink">
<!--
NotesHolder - Box for holding a stack of paper, coasters etc


If the feet of the `Stackable` `bottom_edge`
don't fit on the front (and back) walls you can make them smaller by
reducing `width` and/or increasing `angle` in the `Settings for
Stackable Edges`. Reducing the `opening` will also give more space for
the feet.


Created with Boxes.py (https://boxes.hackerspace-bamberg.de/)
Creation date: 2026-08-04 12:50:52
Command line (remove spaces between dashes): boxes NotesHolder - -sx - -y - -h - -bottom_edge - -opening - -thickness - -burn - -reference - -labels
-->
<title>NotesHolder</title>
<metadata>
<rdf:RDF><cc:Work>
<dc:title>Box - NotesHolder</dc:title>
<dc:date>2026-08-04 12:50:52</dc:date>
<dc:source>boxes NotesHolder --sx 50:70 --y 60 --h 30 --bottom_edge f --opening 25 --back_openings 0 --thickness 4 --burn 0.05 --reference 0 --labels 0</dc:source>
<dc:description>Box for holding a stack of paper, coasters etc

If the feet of the `Stackable` `bottom_edge`
don't fit on the front (and back) walls you can make them smaller by
reducing `width` and/or increasing `angle` in the `Settings for
Stackable Edges`. Reducing the `opening` will also give more space for
the feet.

Created with Boxes.py (https://boxes.hackerspace-bamberg.de/)
Command line: boxes NotesHolder --sx 50:70 --y 60 --h 30 --bottom_edge f --opening 25 --back_openings 0 --thickness 4 --burn 0.05 --reference 0 --labels 0
Command line short: boxes NotesHolder --sx --y --h --bottom_edge --opening --thickness --burn --reference --labels
</dc:description>
</cc:Work></rdf:RDF></metadata>
<g id="p-0" style="fill:none;stroke-linecap:round;stroke-linejoin:round;">
  <path d="M 14.050 190.400 H 24.000 C 24.050 190.400 24.000 190.350 24.000 190.400 V 194.350 C 24.000 194.378 24.022 194.400 24.050 194.400 H 32.050 C 32.078 194.400 32.100 194.378 32.100 194.350 V 190.400 C 32.100 190.350 32.050 190.400 32.100 190.400 H 40.000 C 40.050 190.400 40.000 190.350 40.000 190.400 V 194.350 C 40.000 194.378 40.022 194.400 40.050 194.400 H 48.050 C 48.078 194.400 48.100 194.378 48.100 194.350 V 190.400 C 48.100 190.350 48.050 190.400 48.100 190.400 H 56.000 C 56.050 190.400 56.000 190.350 56.000 190.400 V 194.350 C 56.000 194.378 56.022 194.400 56.050 194.400 H 64.050 C 64.078 194.400 64.100 194.378 64.100 194.350 V 190.400 C 64.100 190.350 64.050 190.400 64.100 190.400 H 74.050 H 78.050 C 78.078 190.400 78.100 190.378 78.100 190.350 V 179.350 C 78.100 179.322 78.078 179.300 78.050 179.300 H 74.100 C 74.050 179.300 74.100 179.350 74.100 179.300 V 171.400 C 74.100 171.350 74.050 171.400 74.100 171.400 H 78.050 C 78.078 171.400 78.100 171.378 78.100 171.350 V 160.350 C 78.100 160.322 78.078 160.300 78.050 160.300 H 74.050 H 14.050 H 10.050 C 10.022 160.300 10.000 160.322 10.000 160.350 V 171.350 C 10.000 171.378 10.022 171.400 10.050 171.400 H 14.000 C 14.050 171.400 14.000 171.350 14.000 171.400 V 179.300 C 14.000 179.350 14.050 179.300 14.000 179.300 H 10.050 C 10.022 179.300 10.000 179.322 10.000 179.350 V 190.350 C 10.000 190.378 10.022 190.400 10.050 190.400 H 14.050 Z" stroke="rgb(0,0,0)" stroke-width="0.10" />
</g>
<g id="p-1" style="fill:none;stroke-linecap:round;stroke-linejoin:round;">
  <path d="M 84.150 190.400 H 89.475 C 89.525 190.400 89.475 190.350 89.475 190.400 V 194.350 C 89.475 194.378 89.497 194.400 89.525 194.400 H 97.525 C 97.553 194.400 97.575 194.378 97.575 194.350 V 190.400 C 97.575 190.350 97.525 190.400 97.575 190.400 H 102.900 C 102.928 190.400 102.950 190.378 102.950 190.350 V 160.350 C 102.950 160.322 102.928 160.300 102.900 160.300 H 84.150 C 84.122 160.300 84.100 160.322 84.100 160.350 V 171.300 C 84.100 171.350 84.150 171.300 84.100 171.300 H 80.150 C 80.122 171.300 80.100 171.322 80.100 171.350 V 179.350 C 80.100 179.378 80.122 179.400 80.150 179.400 H 84.100 C 84.150 179.400 84.100 179.350 84.100 179.400 V 190.350 C 84.100 190.378 84.122 190.400 84.150 190.400 Z" stroke="rgb(0,0,0)" stroke-width="0.10" />
</g>
<g id="p-2" style="fill:none;stroke-linecap:round;stroke-linejoin:round;">
  <path d="M 127.700 175.350 V 179.300 C 127.700 179.350 127.750 179.300 127.700 179.300 H 123.800 C 123.750 179.300 123.800 179.350 123.800 179.300 V 171.400 C 123.800 171.350 123.750 171.400 123.800 171.400 H 127.700 C 127.750 171.400 127.700 171.350 127.700 171.400 V 175.350 Z" stroke="rgb(0,0,255)" stroke-width="0.10" />
  <path d="M 105.000 190.400 H 110.325 C 110.375 190.400 110.325 190.350 110.325 190.400 V 194.350 C 110.325 194.378 110.347 194.400 110.375 194.400 H 118.375 C 118.403 194.400 118.425 194.378 118.425 194.350 V 190.400 C 118.425 190.350 118.375 190.400 118.425 190.400 H 123.750 H 127.750 H 136.825 C 136.875 190.400 136.825 190.350 136.825 190.400 V 194.350 C 136.825 194.378 136.847 194.400 136.875 194.400 H 144.875 C 144.903 194.400 144.925 194.378 144.925 194.350 V 190.400 C 144.925 190.350 144.875 190.400 144.925 190.400 H 154.000 C 154.028 190.400 154.050 190.378 154.050 190.350 V 160.350 C 154.050 160.322 154.028 160.300 154.000 160.300 H 105.000 C 104.972 160.300 104.950 160.322 104.950 160.350 V 190.350 C 104.950 190.378 104.972 190.400 105.000 190.400 Z" stroke="rgb(0,0,0)" stroke-width="0.10" />
</g>
<g id="p-3" style="fill:none;stroke-linecap:round;stroke-linejoin:round;">
  <path d="M 182.350 190.400 H 173.275 C 173.225 190.400 173.275 190.350 173.275 190.400 V 194.350 C 173.275 194.378 173.253 194.400 173.225 194.400 H 165.225 C 165.197 194.400 165.175 194.378 165.175 194.350 V 190.400 C 165.175 190.350 165.225 190.400 165.175 190.400 H 156.100 C 156.072 190.400 156.050 190.378 156.050 190.350 V 160.350 C 156.050 160.322 156.072 160.300 156.100 160.300 H 182.350 C 182.378 160.300 182.400 160.322 182.400 160.350 V 171.300 C 182.400 171.350 182.350 171.300 182.400 171.300 H 186.350 C 186.378 171.300 186.400 171.322 186.400 171.350 V 179.350 C 186.400 179.378 186.378 179.400 186.350 179.400 H 182.400 C 182.350 179.400 182.400 179.350 182.400 179.400 V 190.350 C 182.400 190.378 182.378 190.400 182.350 190.400 Z" stroke="rgb(0,0,0)" stroke-width="0.10" />
</g>
<g id="p-4" style="fill:none;stroke-linecap:round;stroke-linejoin:round;">
  <path d="M 14.050 154.300 H 24.000 C 24.050 154.300 24.000 154.250 24.000 154.300 V 158.250 C 24.000 158.278 24.022 158.300 24.050 158.300 H 32.050 C 32.078 158.300 32.100 158.278 32.100 158.250 V 154.300 C 32.100 154.250 32.050 154.300 32.100 154.300 H 40.000 C 40.050 154.300 40.000 154.250 40.000 154.300 V 158.250 C 40.000 158.278 40.022 158.300 40.050 158.300 H 48.050 C 48.078 158.300 48.100 158.278 48.100 158.250 V 154.300 C 48.100 154.250 48.050 154.300 48.100 154.300 H 56.000 C 56.050 154.300 56.000 154.250 56.000 154.300 V 158.250 C 56.000 158.278 56.022 158.300 56.050 158.300 H 64.050 C 64.078 158.300 64.100 158.278 64.100 158.250 V 154.300 C 64.100 154.250 64.050 154.300 64.100 154.300 H 74.050 H 78.050 C 78.078 154.300 78.100 154.278 78.100 154.250 V 143.250 C 78.100 143.222 78.078 143.200 78.050 143.200 H 74.100 C 74.050 143.200 74.100 143.250 74.100 143.200 V 135.300 C 74.100 135.250 74.050 135.300 74.100 135.300 H 78.050 C 78.078 135.300 78.100 135.278 78.100 135.250 V 124.250 C 78.100 124.222 78.078 124.200 78.050 124.200 H 74.050 H 14.050 H 10.050 C 10.022 124.200 10.000 124.222 10.000 124.250 V 135.250 C 10.000 135.278 10.022 135.300 10.050 135.300 H 14.000 C 14.050 135.300 14.000 135.250 14.000 135.300 V 143.200 C 14.000 143.250 14.050 143.200 14.000 143.200 H 10.050 C 10.022 143.200 10.000 143.222 10.000 143.250 V 154.250 C 10.000 154.278 10.022 154.300 10.050 154.300 H 14.050 Z" stroke="rgb(0,0,0)" stroke-width="0.10" />
</g>
<g id="p-5" style="fill:none;stroke-linecap:round;stroke-linejoin:round;">
  <path d="M 158.100 139.250 V 143.200 C 158.100 143.250 158.150 143.200 158.100 143.200 H 154.200 C 154.150 143.200 154.200 143.250 154.200 143.200 V 135.300 C 154.200 135.250 154.150 135.300 154.200 135.300 H 158.100 C 158.150 135.300 158.100 135.250 158.100 135.300 V 139.250 Z" stroke="rgb(0,0,255)" stroke-width="0.10" />
  <path d="M 84.150 154.300 H 94.100 C 94.150 154.300 94.100 154.250 94.100 154.300 V 158.250 C 94.100 158.278 94.122 158.300 94.150 158.300 H 102.150 C 102.178 158.300 102.200 158.278 102.200 158.250 V 154.300 C 102.200 154.250 102.150 154.300 102.200 154.300 H 110.100 C 110.150 154.300 110.100 154.250 110.100 154.300 V 158.250 C 110.100 158.278 110.122 158.300 110.150 158.300 H 118.150 C 118.178 158.300 118.200 158.278 118.200 158.250 V 154.300 C 118.200 154.250 118.150 154.300 118.200 154.300 H 126.100 C 126.150 154.300 126.100 154.250 126.100 154.300 V 158.250 C 126.100 158.278 126.122 158.300 126.150 158.300 H 134.150 C 134.178 158.300 134.200 158.278 134.200 158.250 V 154.300 C 134.200 154.250 134.150 154.300 134.200 154.300 H 142.100 C 142.150 154.300 142.100 154.250 142.100 154.300 V 158.250 C 142.100 158.278 142.122 158.300 142.150 158.300 H 150.150 C 150.178 158.300 150.200 158.278 150.200 158.250 V 154.300 C 150.200 154.250 150.150 154.300 150.200 154.300 H 158.100 C 158.150 154.300 158.100 154.250 158.100 154.300 V 158.250 C 158.100 158.278 158.122 158.300 158.150 158.300 H 166.150 C 166.178 158.300 166.200 158.278 166.200 158.250 V 154.300 C 166.200 154.250 166.150 154.300 166.200 154.300 H 174.100 C 174.150 154.300 174.100 154.250 174.100 154.300 V 158.250 C 174.100 158.278 174.122 158.300 174.150 158.300 H 182.150 C 182.178 158.300 182.200 158.278 182.200 158.250 V 154.300 C 182.200 154.250 182.150 154.300 182.200 154.300 H 190.100 C 190.150 154.300 190.100 154.250 190.100 154.300 V 158.250 C 190.100 158.278 190.122 158.300 190.150 158.300 H 198.150 C 198.178 158.300 198.200 158.278 198.200 158.250 V 154.300 C 198.200 154.250 198.150 154.300 198.200 154.300 H 208.150 C 208.178 154.300 208.200 154.278 208.200 154.250 V 143.300 C 208.200 143.250 208.150 143.300 208.200 143.300 H 212.150 C 212.178 143.300 212.200 143.278 212.200 143.250 V 135.250 C 212.200 135.222 212.178 135.200 212.150 135.200 H 208.200 C 208.150 135.200 208.200 135.250 208.200 135.200 V 124.250 C 208.200 124.222 208.178 124.200 208.150 124.200 H 84.150 C 84.122 124.200 84.100 124.222 84.100 124.250 V 135.200 C 84.100 135.250 84.150 135.200 84.100 135.200 H 80.150 C 80.122 135.200 80.100 135.222 80.100 135.250 V 143.250 C 80.100 143.278 80.122 143.300 80.150 143.300 H 84.100 C 84.150 143.300 84.100 143.250 84.100 143.300 V 154.250 C 84.100 154.278 84.122 154.300 84.150 154.300 Z" stroke="rgb(0,0,0)" stroke-width="0.10" />
</g>
<g id="p-6" style="fill:none;stroke-linecap:round;stroke-linejoin:round;">
  <path d="M 72.000 100.150 V 104.100 C 72.000 104.150 72.050 104.100 72.000 104.100 H 68.100 C 68.050 104.100 68.100 104.150 68.100 104.100 V 96.200 C 68.100 96.150 68.050 96.200 68.100 96.200 H 72.000 C 72.050 96.200 72.000 96.150 72.000 96.200 V 100.150 Z" stroke="rgb(0,0,255)" stroke-width="0.10" />
  <path d="M 72.000 84.150 V 88.100 C 72.000 88.150 72.050 88.100 72.000 88.100 H 68.100 C 68.050 88.100 68.100 88.150 68.100 88.100 V 80.200 C 68.100 80.150 68.050 80.200 68.100 80.200 H 72.000 C 72.050 80.200 72.000 80.150 72.000 80.200 V 84.150 Z" stroke="rgb(0,0,255)" stroke-width="0.10" />
  <path d="M 72.000 68.150 V 72.100 C 72.000 72.150 72.050 72.100 72.000 72.100 H 68.100 C 68.050 72.100 68.100 72.150 68.100 72.100 V 64.200 C 68.100 64.150 68.050 64.200 68.100 64.200 H 72.000 C 72.050 64.200 72.000 64.150 72.000 64.200 V 68.150 Z" stroke="rgb(0,0,255)" stroke-width="0.10" />
  <path d="M 27.425 118.100 H 23.475 C 23.425 118.100 23.475 118.150 23.475 118.100 V 114.200 C 23.475 114.150 23.425 114.200 23.475 114.200 H 31.375 C 31.425 114.200 31.375 114.150 31.375 114.200 V 118.100 C 31.375 118.150 31.425 118.100 31.375 118.100 H 27.425 Z" stroke="rgb(0,0,255)" stroke-width="0.10" />
  <path d="M 18.050 122.200 H 36.800 C 36.828 122.200 36.850 122.178 36.850 122.150 V 114.150 C 36.850 114.178 36.828 114.200 36.800 114.200 C 36.828 114.200 36.850 114.178 36.850 114.150 C 36.850 113.062 37.136 111.993 37.681 111.050 C 38.225 110.107 39.007 109.325 39.950 108.781 C 40.893 108.236 41.962 107.950 43.050 107.950 C 44.138 107.950 45.207 108.236 46.150 108.781 C 47.093 109.325 47.875 110.107 48.419 111.050 C 48.964 111.993 49.250 113.062 49.250 114.150 C 49.250 114.178 49.272 114.200 49.300 114.200 C 49.272 114.200 49.250 114.178 49.250 114.150 V 122.150 C 49.250 122.178 49.272 122.200 49.300 122.200 H 68.050 H 72.050 H 98.300 C 98.328 122.200 98.350 122.178 98.350 122.150 V 114.150 C 98.350 114.178 98.328 114.200 98.300 114.200 C 98.328 114.200 98.350 114.178 98.350 114.150 C 98.350 112.623 98.752 111.123 99.516 109.800 C 100.279 108.477 101.377 107.379 102.700 106.616 C 104.023 105.852 105.523 105.450 107.050 105.450 C 108.577 105.450 110.077 105.852 111.400 106.616 C 112.723 107.379 113.821 108.477 114.584 109.800 C 115.348 111.123 115.750 112.623 115.750 114.150 C 115.750 114.178 115.772 114.200 115.800 114.200 C 115.772 114.200 115.750 114.178 115.750 114.150 V 122.150 C 115.750 122.178 115.772 122.200 115.800 122.200 H 142.050 H 150.050 C 150.078 122.200 150.100 122.178 150.100 122.150 V 114.150 V 54.150 V 46.150 C 150.100 46.122 150.078 46.100 150.050 46.100 H 142.050 H 18.050 H 10.050 C 10.022 46.100 10.000 46.122 10.000 46.150 V 54.150 V 114.150 V 122.150 C 10.000 122.178 10.022 122.200 10.050 122.200 H 18.050 Z" stroke="rgb(0,0,0)" stroke-width="0.10" />
  <path d="M 58.675 118.100 H 54.725 C 54.675 118.100 54.725 118.150 54.725 118.100 V 114.200 C 54.725 114.150 54.675 114.200 54.725 114.200 H 62.625 C 62.675 114.200 62.625 114.150 62.625 114.200 V 118.100 C 62.625 118.150 62.675 118.100 62.625 118.100 H 58.675 Z" stroke="rgb(0,0,255)" stroke-width="0.10" />
  <path d="M 85.175 118.100 H 81.225 C 81.175 118.100 81.225 118.150 81.225 118.100 V 114.200 C 81.225 114.150 81.175 114.200 81.225 114.200 H 89.125 C 89.175 114.200 89.125 114.150 89.125 114.200 V 118.100 C 89.125 118.150 89.175 118.100 89.125 118.100 H 85.175 Z" stroke="rgb(0,0,255)" stroke-width="0.10" />
  <path d="M 128.925 118.100 H 124.975 C 124.925 118.100 124.975 118.150 124.975 118.100 V 114.200 C 124.975 114.150 124.925 114.200 124.975 114.200 H 132.875 C 132.925 114.200 132.875 114.150 132.875 114.200 V 118.100 C 132.875 118.150 132.925 118.100 132.875 118.100 H 128.925 Z" stroke="rgb(0,0,255)" stroke-width="0.10" />
  <path d="M 146.000 100.150 V 104.100 C 146.000 104.150 146.050 104.100 146.000 104.100 H 142.100 C 142.050 104.100 142.100 104.150 142.100 104.100 V 96.200 C 142.100 96.150 142.050 96.200 142.100 96.200 H 146.000 C 146.050 96.200 146.000 96.150 146.000 96.200 V 100.150 Z" stroke="rgb(0,0,255)" stroke-width="0.10" />
  <path d="M 146.000 84.150 V 88.100 C 146.000 88.150 146.050 88.100 146.000 88.100 H 142.100 C 142.050 88.100 142.100 88.150 142.100 88.100 V 80.200 C 142.100 80.150 142.050 80.200 142.100 80.200 H 146.000 C 146.050 80.200 146.000 80.150 146.000 80.200 V 84.150 Z" stroke="rgb(0,0,255)" stroke-width="0.10" />
  <path d="M 146.000 68.150 V 72.100 C 146.000 72.150 146.050 72.100 146.000 72.100 H 142.100 C 142.050 72.100 142.100 72.150 142.100 72.100 V 64.200 C 142.100 64.150 142.050 64.200 142.100 64.200 H 146.000 C 146.050 64.200 146.000 64.150 146.000 64.200 V 68.150 Z" stroke="rgb(0,0,255)" stroke-width="0.10" />
  <path d="M 128.050 50.200 H 132.000 C 132.050 50.200 132.000 50.150 132.000 50.200 V 54.100 C 132.000 54.150 132.050 54.100 132.000 54.100 H 124.100 C 124.050 54.100 124.100 54.150 124.100 54.100 V 50.200 C 124.100 50.150 124.050 50.200 124.100 50.200 H 128.050 Z" stroke="rgb(0,0,255)" stroke-width="0.10" />
  <path d="M 112.050 50.200 H 116.000 C 116.050 50.200 116.000 50.150 116.000 50.200 V 54.100 C 116.000 54.150 116.050 54.100 116.000 54.100 H 108.100 C 108.050 54.100 108.100 54.150 108.100 54.100 V 50.200 C 108.100 50.150 108.050 50.200 108.100 50.200 H 112.050 Z" stroke="rgb(0,0,255)" stroke-width="0.10" />
  <path d="M 96.050 50.200 H 100.000 C 100.050 50.200 100.000 50.150 100.000 50.200 V 54.100 C 100.000 54.150 100.050 54.100 100.000 54.100 H 92.100 C 92.050 54.100 92.100 54.150 92.100 54.100 V 50.200 C 92.100 50.150 92.050 50.200 92.100 50.200 H 96.050 Z" stroke="rgb(0,0,255)" stroke-width="0.10" />
  <path d="M 80.050 50.200 H 84.000 C 84.050 50.200 84.000 50.150 84.000 50.200 V 54.100 C 84.000 54.150 84.050 54.100 84.000 54.100 H 76.100 C 76.050 54.100 76.100 54.150 76.100 54.100 V 50.200 C 76.100 50.150 76.050 50.200 76.100 50.200 H 80.050 Z" stroke="rgb(0,0,255)" stroke-width="0.10" />
  <path d="M 64.050 50.200 H 68.000 C 68.050 50.200 68.000 50.150 68.000 50.200 V 54.100 C 68.000 54.150 68.050 54.100 68.000 54.100 H 60.100 C 60.050 54.100 60.100 54.150 60.100 54.100 V 50.200 C 60.100 50.150 60.050 50.200 60.100 50.200 H 64.050 Z" stroke="rgb(0,0,255)" stroke-width="0.10" />
  <path d="M 48.050 50.200 H 52.000 C 52.050 50.200 52.000 50.150 52.000 50.200 V 54.100 C 52.000 54.150 52.050 54.100 52.000 54.100 H 44.100 C 44.050 54.100 44.100 54.150 44.100 54.100 V 50.200 C 44.100 50.150 44.050 50.200 44.100 50.200 H 48.050 Z" stroke="rgb(0,0,255)" stroke-width="0.10" />
  <path d="M 32.050 50.200 H 36.000 C 36.050 50.200 36.000 50.150 36.000 50.200 V 54.100 C 36.000 54.150 36.050 54.100 36.000 54.100 H 28.100 C 28.050 54.100 28.100 54.150 28.100 54.100 V 50.200 C 28.100 50.150 28.050 50.200 28.100 50.200 H 32.050 Z" stroke="rgb(0,0,255)" stroke-width="0.10" />
  <path d="M 14.100 68.150 V 64.200 C 14.100 64.150 14.050 64.200 14.100 64.200 H 18.000 C 18.050 64.200 18.000 64.150 18.000 64.200 V 72.100 C 18.000 72.150 18.050 72.100 18.000 72.100 H 14.100 C 14.050 72.100 14.100 72.150 14.100 72.100 V 68.150 Z" stroke="rgb(0,0,255)" stroke-width="0.10" />
  <path d="M 14.100 84.150 V 80.200 C 14.100 80.150 14.050 80.200 14.100 80.200 H 18.000 C 18.050 80.200 18.000 80.150 18.000 80.200 V 88.100 C 18.000 88.150 18.050 88.100 18.000 88.100 H 14.100 C 14.050 88.100 14.100 88.150 14.100 88.100 V 84.150 Z" stroke="rgb(0,0,255)" stroke-width="0.10" />
  <path d="M 14.100 100.150 V 96.200 C 14.100 96.150 14.050 96.200 14.100 96.200 H 18.000 C 18.050 96.200 18.000 96.150 18.000 96.200 V 104.100 C 18.000 104.150 18.050 104.100 18.000 104.100 H 14.100 C 14.050 104.100 14.100 104.150 14.100 104.100 V 100.150 Z" stroke="rgb(0,0,255)" stroke-width="0.10" />
</g>
<g id="p-7" style="fill:none;stroke-linecap:round;stroke-linejoin:round;">
  <path d="M 14.050 40.100 H 24.000 C 24.050 40.100 24.000 40.050 24.000 40.100 V 44.050 C 24.000 44.078 24.022 44.100 24.050 44.100 H 32.050 C 32.078 44.100 32.100 44.078 32.100 44.050 V 40.100 C 32.100 40.050 32.050 40.100 32.100 40.100 H 40.000 C 40.050 40.100 40.000 40.050 40.000 40.100 V 44.050 C 40.000 44.078 40.022 44.100 40.050 44.100 H 48.050 C 48.078 44.100 48.100 44.078 48.100 44.050 V 40.100 C 48.100 40.050 48.050 40.100 48.100 40.100 H 56.000 C 56.050 40.100 56.000 40.050 56.000 40.100 V 44.050 C 56.000 44.078 56.022 44.100 56.050 44.100 H 64.050 C 64.078 44.100 64.100 44.078 64.100 44.050 V 40.100 C 64.100 40.050 64.050 40.100 64.100 40.100 H 74.050 C 74.078 40.100 74.100 40.078 74.100 40.050 V 29.100 C 74.100 29.050 74.050 29.100 74.100 29.100 H 78.050 C 78.078 29.100 78.100 29.078 78.100 29.050 V 21.050 C 78.100 21.022 78.078 21.000 78.050 21.000 H 74.100 C 74.050 21.000 74.100 21.050 74.100 21.000 V 10.050 C 74.100 10.022 74.078 10.000 74.050 10.000 H 14.050 C 14.022 10.000 14.000 10.022 14.000 10.050 V 21.000 C 14.000 21.050 14.050 21.000 14.000 21.000 H 10.050 C 10.022 21.000 10.000 21.022 10.000 21.050 V 29.050 C 10.000 29.078 10.022 29.100 10.050 29.100 H 14.000 C 14.050 29.100 14.000 29.050 14.000 29.100 V 40.050 C 14.000 40.078 14.022 40.100 14.050 40.100 Z" stroke="rgb(0,0,0)" stroke-width="0.10" />
</g>
</svg>