<?xml version='1.0' encoding='utf-8'?>
<svg height="1042.31mm" viewBox="0.0 0.0 260.20 1042.31" width="260.20mm" xmlns="http://www.w3.org/2000/svg" xmlns:cc="http://creativecommons.org/ns#" xmlns:dc="http://purl.org/dc/elements/1.1/" xmlns:inkscape="http://www.inkscape.org/namespaces/inkscape" xmlns:rdf="http://www.w3.org/1999/02/22-rdf-syntax-ns#" xmlns:svg="http://www.w3.org/2000/svg" xmlns:xlink="http://www.w3.org/1999/xlink">
<!--
DisplayShelf - Shelf with slanted floors

Created with Boxes.py (https://boxes.hackerspace-bamberg.de/)
Creation date: 2026-08-06 17:03:41
Command line (remove spaces between dashes): boxes DisplayShelf - -sx - -front_wall_height - -reference - -labels
-->
<title>DisplayShelf</title>
<metadata>
<rdf:RDF><cc:Work>
<dc:title>Shelf - DisplayShelf</dc:title>
<dc:date>2026-08-06 17:03:41</dc:date>
<dc:source>boxes DisplayShelf --sx '120*2' --y 100 --h 300 --outside 1 --num 3 --front_wall_height 0 --angle 30 --include_back 0 --include_front 0 --include_bottom 0 --slope_top 0 --divider_wall_height 20 --bottom_distance 0 --top_distance 0 --thickness 3 --burn 0.1 --reference 0 --labels 0</dc:source>
<dc:description>Shelf with slanted floors

Created with Boxes.py (https://boxes.hackerspace-bamberg.de/)
Command line: boxes DisplayShelf --sx '120*2' --y 100 --h 300 --outside 1 --num 3 --front_wall_height 0 --angle 30 --include_back 0 --include_front 0 --include_bottom 0 --slope_top 0 --divider_wall_height 20 --bottom_distance 0 --top_distance 0 --thickness 3 --burn 0.1 --reference 0 --labels 0
Command line short: boxes DisplayShelf --sx --front_wall_height --reference --labels
</dc:description>
</cc:Work></rdf:RDF></metadata>
<g id="p-0" style="fill:none;stroke-linecap:round;stroke-linejoin:round;">
  <path d="M 21.728 981.943 L 19.216 980.493 C 19.130 980.443 19.166 980.580 19.216 980.493 L 20.616 978.068 C 20.666 977.981 20.530 978.018 20.616 978.068 L 25.639 980.968 C 25.726 981.018 25.689 980.881 25.639 980.968 L 24.239 983.393 C 24.189 983.480 24.326 983.443 24.239 983.393 L 21.728 981.943 Z" stroke="rgb(0,0,255)" stroke-width="0.20" />
  <path d="M 32.120 987.943 L 29.609 986.493 C 29.522 986.443 29.559 986.580 29.609 986.493 L 31.009 984.068 C 31.059 983.981 30.922 984.018 31.009 984.068 L 36.032 986.968 C 36.118 987.018 36.082 986.881 36.032 986.968 L 34.632 989.393 C 34.582 989.480 34.718 989.443 34.632 989.393 L 32.120 987.943 Z" stroke="rgb(0,0,255)" stroke-width="0.20" />
  <path d="M 42.513 993.943 L 40.001 992.493 C 39.914 992.443 39.951 992.580 40.001 992.493 L 41.401 990.068 C 41.451 989.981 41.314 990.018 41.401 990.068 L 46.424 992.968 C 46.511 993.018 46.474 992.881 46.424 992.968 L 45.024 995.393 C 44.974 995.480 45.111 995.443 45.024 995.393 L 42.513 993.943 Z" stroke="rgb(0,0,255)" stroke-width="0.20" />
  <path d="M 52.905 999.943 L 50.393 998.493 C 50.307 998.443 50.343 998.580 50.393 998.493 L 51.793 996.068 C 51.843 995.981 51.707 996.018 51.793 996.068 L 56.816 998.968 C 56.903 999.018 56.866 998.881 56.816 998.968 L 55.416 1001.393 C 55.366 1001.480 55.503 1001.443 55.416 1001.393 L 52.905 999.943 Z" stroke="rgb(0,0,255)" stroke-width="0.20" />
  <path d="M 63.297 1005.943 L 60.786 1004.493 C 60.699 1004.443 60.736 1004.580 60.786 1004.493 L 62.186 1002.068 C 62.236 1001.981 62.099 1002.018 62.186 1002.068 L 67.209 1004.968 C 67.295 1005.018 67.259 1004.881 67.209 1004.968 L 65.809 1007.393 C 65.759 1007.480 65.895 1007.443 65.809 1007.393 L 63.297 1005.943 Z" stroke="rgb(0,0,255)" stroke-width="0.20" />
  <path d="M 73.689 1011.943 L 71.178 1010.493 C 71.091 1010.443 71.128 1010.580 71.178 1010.493 L 72.578 1008.068 C 72.628 1007.981 72.491 1008.018 72.578 1008.068 L 77.601 1010.968 C 77.687 1011.018 77.651 1010.881 77.601 1010.968 L 76.201 1013.393 C 76.151 1013.480 76.287 1013.443 76.201 1013.393 L 73.689 1011.943 Z" stroke="rgb(0,0,255)" stroke-width="0.20" />
  <path d="M 84.082 1017.943 L 81.570 1016.493 C 81.484 1016.443 81.520 1016.580 81.570 1016.493 L 82.970 1014.068 C 83.020 1013.981 82.884 1014.018 82.970 1014.068 L 87.993 1016.968 C 88.080 1017.018 88.043 1016.881 87.993 1016.968 L 86.593 1019.393 C 86.543 1019.480 86.680 1019.443 86.593 1019.393 L 84.082 1017.943 Z" stroke="rgb(0,0,255)" stroke-width="0.20" />
  <path d="M 94.474 1023.943 L 91.963 1022.493 C 91.876 1022.443 91.913 1022.580 91.963 1022.493 L 93.363 1020.068 C 93.413 1019.981 93.276 1020.018 93.363 1020.068 L 98.386 1022.968 C 98.472 1023.018 98.436 1022.881 98.386 1022.968 L 96.986 1025.393 C 96.936 1025.480 97.072 1025.443 96.986 1025.393 L 94.474 1023.943 Z" stroke="rgb(0,0,255)" stroke-width="0.20" />
  <path d="M 21.728 885.730 L 19.216 884.280 C 19.130 884.230 19.166 884.366 19.216 884.280 L 20.616 881.855 C 20.666 881.768 20.530 881.805 20.616 881.855 L 25.639 884.755 C 25.726 884.805 25.689 884.668 25.639 884.755 L 24.239 887.180 C 24.189 887.266 24.326 887.230 24.239 887.180 L 21.728 885.730 Z" stroke="rgb(0,0,255)" stroke-width="0.20" />
  <path d="M 32.120 891.730 L 29.609 890.280 C 29.522 890.230 29.559 890.366 29.609 890.280 L 31.009 887.855 C 31.059 887.768 30.922 887.805 31.009 887.855 L 36.032 890.755 C 36.118 890.805 36.082 890.668 36.032 890.755 L 34.632 893.180 C 34.582 893.266 34.718 893.230 34.632 893.180 L 32.120 891.730 Z" stroke="rgb(0,0,255)" stroke-width="0.20" />
  <path d="M 42.513 897.730 L 40.001 896.280 C 39.914 896.230 39.951 896.366 40.001 896.280 L 41.401 893.855 C 41.451 893.768 41.314 893.805 41.401 893.855 L 46.424 896.755 C 46.511 896.805 46.474 896.668 46.424 896.755 L 45.024 899.180 C 44.974 899.266 45.111 899.230 45.024 899.180 L 42.513 897.730 Z" stroke="rgb(0,0,255)" stroke-width="0.20" />
  <path d="M 52.905 903.730 L 50.393 902.280 C 50.307 902.230 50.343 902.366 50.393 902.280 L 51.793 899.855 C 51.843 899.768 51.707 899.805 51.793 899.855 L 56.816 902.755 C 56.903 902.805 56.866 902.668 56.816 902.755 L 55.416 905.180 C 55.366 905.266 55.503 905.230 55.416 905.180 L 52.905 903.730 Z" stroke="rgb(0,0,255)" stroke-width="0.20" />
  <path d="M 63.297 909.730 L 60.786 908.280 C 60.699 908.230 60.736 908.366 60.786 908.280 L 62.186 905.855 C 62.236 905.768 62.099 905.805 62.186 905.855 L 67.209 908.755 C 67.295 908.805 67.259 908.668 67.209 908.755 L 65.809 911.180 C 65.759 911.266 65.895 911.230 65.809 911.180 L 63.297 909.730 Z" stroke="rgb(0,0,255)" stroke-width="0.20" />
  <path d="M 73.689 915.730 L 71.178 914.280 C 71.091 914.230 71.128 914.366 71.178 914.280 L 72.578 911.855 C 72.628 911.768 72.491 911.805 72.578 911.855 L 77.601 914.755 C 77.687 914.805 77.651 914.668 77.601 914.755 L 76.201 917.180 C 76.151 917.266 76.287 917.230 76.201 917.180 L 73.689 915.730 Z" stroke="rgb(0,0,255)" stroke-width="0.20" />
  <path d="M 84.082 921.730 L 81.570 920.280 C 81.484 920.230 81.520 920.366 81.570 920.280 L 82.970 917.855 C 83.020 917.768 82.884 917.805 82.970 917.855 L 87.993 920.755 C 88.080 920.805 88.043 920.668 87.993 920.755 L 86.593 923.180 C 86.543 923.266 86.680 923.230 86.593 923.180 L 84.082 921.730 Z" stroke="rgb(0,0,255)" stroke-width="0.20" />
  <path d="M 94.474 927.730 L 91.963 926.280 C 91.876 926.230 91.913 926.366 91.963 926.280 L 93.363 923.855 C 93.413 923.768 93.276 923.805 93.363 923.855 L 98.386 926.755 C 98.472 926.805 98.436 926.668 98.386 926.755 L 96.986 929.180 C 96.936 929.266 97.072 929.230 96.986 929.180 L 94.474 927.730 Z" stroke="rgb(0,0,255)" stroke-width="0.20" />
  <path d="M 21.728 789.517 L 19.216 788.067 C 19.130 788.017 19.166 788.153 19.216 788.067 L 20.616 785.642 C 20.666 785.555 20.530 785.592 20.616 785.642 L 25.639 788.542 C 25.726 788.592 25.689 788.455 25.639 788.542 L 24.239 790.967 C 24.189 791.053 24.326 791.017 24.239 790.967 L 21.728 789.517 Z" stroke="rgb(0,0,255)" stroke-width="0.20" />
  <path d="M 32.120 795.517 L 29.609 794.067 C 29.522 794.017 29.559 794.153 29.609 794.067 L 31.009 791.642 C 31.059 791.555 30.922 791.592 31.009 791.642 L 36.032 794.542 C 36.118 794.592 36.082 794.455 36.032 794.542 L 34.632 796.967 C 34.582 797.053 34.718 797.017 34.632 796.967 L 32.120 795.517 Z" stroke="rgb(0,0,255)" stroke-width="0.20" />
  <path d="M 42.513 801.517 L 40.001 800.067 C 39.914 800.017 39.951 800.153 40.001 800.067 L 41.401 797.642 C 41.451 797.555 41.314 797.592 41.401 797.642 L 46.424 800.542 C 46.511 800.592 46.474 800.455 46.424 800.542 L 45.024 802.967 C 44.974 803.053 45.111 803.017 45.024 802.967 L 42.513 801.517 Z" stroke="rgb(0,0,255)" stroke-width="0.20" />
  <path d="M 52.905 807.517 L 50.393 806.067 C 50.307 806.017 50.343 806.153 50.393 806.067 L 51.793 803.642 C 51.843 803.555 51.707 803.592 51.793 803.642 L 56.816 806.542 C 56.903 806.592 56.866 806.455 56.816 806.542 L 55.416 808.967 C 55.366 809.053 55.503 809.017 55.416 808.967 L 52.905 807.517 Z" stroke="rgb(0,0,255)" stroke-width="0.20" />
  <path d="M 63.297 813.517 L 60.786 812.067 C 60.699 812.017 60.736 812.153 60.786 812.067 L 62.186 809.642 C 62.236 809.555 62.099 809.592 62.186 809.642 L 67.209 812.542 C 67.295 812.592 67.259 812.455 67.209 812.542 L 65.809 814.967 C 65.759 815.053 65.895 815.017 65.809 814.967 L 63.297 813.517 Z" stroke="rgb(0,0,255)" stroke-width="0.20" />
  <path d="M 73.689 819.517 L 71.178 818.067 C 71.091 818.017 71.128 818.153 71.178 818.067 L 72.578 815.642 C 72.628 815.555 72.491 815.592 72.578 815.642 L 77.601 818.542 C 77.687 818.592 77.651 818.455 77.601 818.542 L 76.201 820.967 C 76.151 821.053 76.287 821.017 76.201 820.967 L 73.689 819.517 Z" stroke="rgb(0,0,255)" stroke-width="0.20" />
  <path d="M 84.082 825.517 L 81.570 824.067 C 81.484 824.017 81.520 824.153 81.570 824.067 L 82.970 821.642 C 83.020 821.555 82.884 821.592 82.970 821.642 L 87.993 824.542 C 88.080 824.592 88.043 824.455 87.993 824.542 L 86.593 826.967 C 86.543 827.053 86.680 827.017 86.593 826.967 L 84.082 825.517 Z" stroke="rgb(0,0,255)" stroke-width="0.20" />
  <path d="M 94.474 831.517 L 91.963 830.067 C 91.876 830.017 91.913 830.153 91.963 830.067 L 93.363 827.642 C 93.413 827.555 93.276 827.592 93.363 827.642 L 98.386 830.542 C 98.472 830.592 98.436 830.455 98.386 830.542 L 96.986 832.967 C 96.936 833.053 97.072 833.017 96.986 832.967 L 94.474 831.517 Z" stroke="rgb(0,0,255)" stroke-width="0.20" />
  <path d="M 10.100 1032.314 H 110.100 C 110.155 1032.314 110.200 1032.269 110.200 1032.214 V 732.214 C 110.200 732.159 110.155 732.114 110.100 732.114 H 10.100 C 10.045 732.114 10.000 732.159 10.000 732.214 V 1032.214 C 10.000 1032.269 10.045 1032.314 10.100 1032.314 Z" stroke="rgb(0,0,0)" stroke-width="0.20" />
</g>
<g id="p-1" style="fill:none;stroke-linecap:round;stroke-linejoin:round;">
  <path d="M 21.728 680.243 L 19.216 678.793 C 19.130 678.743 19.166 678.880 19.216 678.793 L 20.616 676.368 C 20.666 676.281 20.530 676.318 20.616 676.368 L 25.639 679.268 C 25.726 679.318 25.689 679.181 25.639 679.268 L 24.239 681.693 C 24.189 681.780 24.326 681.743 24.239 681.693 L 21.728 680.243 Z" stroke="rgb(0,0,255)" stroke-width="0.20" />
  <path d="M 32.120 686.243 L 29.609 684.793 C 29.522 684.743 29.559 684.880 29.609 684.793 L 31.009 682.368 C 31.059 682.281 30.922 682.318 31.009 682.368 L 36.032 685.268 C 36.118 685.318 36.082 685.181 36.032 685.268 L 34.632 687.693 C 34.582 687.780 34.718 687.743 34.632 687.693 L 32.120 686.243 Z" stroke="rgb(0,0,255)" stroke-width="0.20" />
  <path d="M 42.513 692.243 L 40.001 690.793 C 39.914 690.743 39.951 690.880 40.001 690.793 L 41.401 688.368 C 41.451 688.281 41.314 688.318 41.401 688.368 L 46.424 691.268 C 46.511 691.318 46.474 691.181 46.424 691.268 L 45.024 693.693 C 44.974 693.780 45.111 693.743 45.024 693.693 L 42.513 692.243 Z" stroke="rgb(0,0,255)" stroke-width="0.20" />
  <path d="M 52.905 698.243 L 50.393 696.793 C 50.307 696.743 50.343 696.880 50.393 696.793 L 51.793 694.368 C 51.843 694.281 51.707 694.318 51.793 694.368 L 56.816 697.268 C 56.903 697.318 56.866 697.181 56.816 697.268 L 55.416 699.693 C 55.366 699.780 55.503 699.743 55.416 699.693 L 52.905 698.243 Z" stroke="rgb(0,0,255)" stroke-width="0.20" />
  <path d="M 63.297 704.243 L 60.786 702.793 C 60.699 702.743 60.736 702.880 60.786 702.793 L 62.186 700.368 C 62.236 700.281 62.099 700.318 62.186 700.368 L 67.209 703.268 C 67.295 703.318 67.259 703.181 67.209 703.268 L 65.809 705.693 C 65.759 705.780 65.895 705.743 65.809 705.693 L 63.297 704.243 Z" stroke="rgb(0,0,255)" stroke-width="0.20" />
  <path d="M 73.689 710.243 L 71.178 708.793 C 71.091 708.743 71.128 708.880 71.178 708.793 L 72.578 706.368 C 72.628 706.281 72.491 706.318 72.578 706.368 L 77.601 709.268 C 77.687 709.318 77.651 709.181 77.601 709.268 L 76.201 711.693 C 76.151 711.780 76.287 711.743 76.201 711.693 L 73.689 710.243 Z" stroke="rgb(0,0,255)" stroke-width="0.20" />
  <path d="M 84.082 716.243 L 81.570 714.793 C 81.484 714.743 81.520 714.880 81.570 714.793 L 82.970 712.368 C 83.020 712.281 82.884 712.318 82.970 712.368 L 87.993 715.268 C 88.080 715.318 88.043 715.181 87.993 715.268 L 86.593 717.693 C 86.543 717.780 86.680 717.743 86.593 717.693 L 84.082 716.243 Z" stroke="rgb(0,0,255)" stroke-width="0.20" />
  <path d="M 94.474 722.243 L 91.963 720.793 C 91.876 720.743 91.913 720.880 91.963 720.793 L 93.363 718.368 C 93.413 718.281 93.276 718.318 93.363 718.368 L 98.386 721.268 C 98.472 721.318 98.436 721.181 98.386 721.268 L 96.986 723.693 C 96.936 723.780 97.072 723.743 96.986 723.693 L 94.474 722.243 Z" stroke="rgb(0,0,255)" stroke-width="0.20" />
  <path d="M 21.728 584.030 L 19.216 582.580 C 19.130 582.530 19.166 582.666 19.216 582.580 L 20.616 580.155 C 20.666 580.068 20.530 580.105 20.616 580.155 L 25.639 583.055 C 25.726 583.105 25.689 582.968 25.639 583.055 L 24.239 585.480 C 24.189 585.566 24.326 585.530 24.239 585.480 L 21.728 584.030 Z" stroke="rgb(0,0,255)" stroke-width="0.20" />
  <path d="M 32.120 590.030 L 29.609 588.580 C 29.522 588.530 29.559 588.666 29.609 588.580 L 31.009 586.155 C 31.059 586.068 30.922 586.105 31.009 586.155 L 36.032 589.055 C 36.118 589.105 36.082 588.968 36.032 589.055 L 34.632 591.480 C 34.582 591.566 34.718 591.530 34.632 591.480 L 32.120 590.030 Z" stroke="rgb(0,0,255)" stroke-width="0.20" />
  <path d="M 42.513 596.030 L 40.001 594.580 C 39.914 594.530 39.951 594.666 40.001 594.580 L 41.401 592.155 C 41.451 592.068 41.314 592.105 41.401 592.155 L 46.424 595.055 C 46.511 595.105 46.474 594.968 46.424 595.055 L 45.024 597.480 C 44.974 597.566 45.111 597.530 45.024 597.480 L 42.513 596.030 Z" stroke="rgb(0,0,255)" stroke-width="0.20" />
  <path d="M 52.905 602.030 L 50.393 600.580 C 50.307 600.530 50.343 600.666 50.393 600.580 L 51.793 598.155 C 51.843 598.068 51.707 598.105 51.793 598.155 L 56.816 601.055 C 56.903 601.105 56.866 600.968 56.816 601.055 L 55.416 603.480 C 55.366 603.566 55.503 603.530 55.416 603.480 L 52.905 602.030 Z" stroke="rgb(0,0,255)" stroke-width="0.20" />
  <path d="M 63.297 608.030 L 60.786 606.580 C 60.699 606.530 60.736 606.666 60.786 606.580 L 62.186 604.155 C 62.236 604.068 62.099 604.105 62.186 604.155 L 67.209 607.055 C 67.295 607.105 67.259 606.968 67.209 607.055 L 65.809 609.480 C 65.759 609.566 65.895 609.530 65.809 609.480 L 63.297 608.030 Z" stroke="rgb(0,0,255)" stroke-width="0.20" />
  <path d="M 73.689 614.030 L 71.178 612.580 C 71.091 612.530 71.128 612.666 71.178 612.580 L 72.578 610.155 C 72.628 610.068 72.491 610.105 72.578 610.155 L 77.601 613.055 C 77.687 613.105 77.651 612.968 77.601 613.055 L 76.201 615.480 C 76.151 615.566 76.287 615.530 76.201 615.480 L 73.689 614.030 Z" stroke="rgb(0,0,255)" stroke-width="0.20" />
  <path d="M 84.082 620.030 L 81.570 618.580 C 81.484 618.530 81.520 618.666 81.570 618.580 L 82.970 616.155 C 83.020 616.068 82.884 616.105 82.970 616.155 L 87.993 619.055 C 88.080 619.105 88.043 618.968 87.993 619.055 L 86.593 621.480 C 86.543 621.566 86.680 621.530 86.593 621.480 L 84.082 620.030 Z" stroke="rgb(0,0,255)" stroke-width="0.20" />
  <path d="M 94.474 626.030 L 91.963 624.580 C 91.876 624.530 91.913 624.666 91.963 624.580 L 93.363 622.155 C 93.413 622.068 93.276 622.105 93.363 622.155 L 98.386 625.055 C 98.472 625.105 98.436 624.968 98.386 625.055 L 96.986 627.480 C 96.936 627.566 97.072 627.530 96.986 627.480 L 94.474 626.030 Z" stroke="rgb(0,0,255)" stroke-width="0.20" />
  <path d="M 21.728 487.817 L 19.216 486.367 C 19.130 486.317 19.166 486.453 19.216 486.367 L 20.616 483.942 C 20.666 483.855 20.530 483.892 20.616 483.942 L 25.639 486.842 C 25.726 486.892 25.689 486.755 25.639 486.842 L 24.239 489.267 C 24.189 489.353 24.326 489.317 24.239 489.267 L 21.728 487.817 Z" stroke="rgb(0,0,255)" stroke-width="0.20" />
  <path d="M 32.120 493.817 L 29.609 492.367 C 29.522 492.317 29.559 492.453 29.609 492.367 L 31.009 489.942 C 31.059 489.855 30.922 489.892 31.009 489.942 L 36.032 492.842 C 36.118 492.892 36.082 492.755 36.032 492.842 L 34.632 495.267 C 34.582 495.353 34.718 495.317 34.632 495.267 L 32.120 493.817 Z" stroke="rgb(0,0,255)" stroke-width="0.20" />
  <path d="M 42.513 499.817 L 40.001 498.367 C 39.914 498.317 39.951 498.453 40.001 498.367 L 41.401 495.942 C 41.451 495.855 41.314 495.892 41.401 495.942 L 46.424 498.842 C 46.511 498.892 46.474 498.755 46.424 498.842 L 45.024 501.267 C 44.974 501.353 45.111 501.317 45.024 501.267 L 42.513 499.817 Z" stroke="rgb(0,0,255)" stroke-width="0.20" />
  <path d="M 52.905 505.817 L 50.393 504.367 C 50.307 504.317 50.343 504.453 50.393 504.367 L 51.793 501.942 C 51.843 501.855 51.707 501.892 51.793 501.942 L 56.816 504.842 C 56.903 504.892 56.866 504.755 56.816 504.842 L 55.416 507.267 C 55.366 507.353 55.503 507.317 55.416 507.267 L 52.905 505.817 Z" stroke="rgb(0,0,255)" stroke-width="0.20" />
  <path d="M 63.297 511.817 L 60.786 510.367 C 60.699 510.317 60.736 510.453 60.786 510.367 L 62.186 507.942 C 62.236 507.855 62.099 507.892 62.186 507.942 L 67.209 510.842 C 67.295 510.892 67.259 510.755 67.209 510.842 L 65.809 513.267 C 65.759 513.353 65.895 513.317 65.809 513.267 L 63.297 511.817 Z" stroke="rgb(0,0,255)" stroke-width="0.20" />
  <path d="M 73.689 517.817 L 71.178 516.367 C 71.091 516.317 71.128 516.453 71.178 516.367 L 72.578 513.942 C 72.628 513.855 72.491 513.892 72.578 513.942 L 77.601 516.842 C 77.687 516.892 77.651 516.755 77.601 516.842 L 76.201 519.267 C 76.151 519.353 76.287 519.317 76.201 519.267 L 73.689 517.817 Z" stroke="rgb(0,0,255)" stroke-width="0.20" />
  <path d="M 84.082 523.817 L 81.570 522.367 C 81.484 522.317 81.520 522.453 81.570 522.367 L 82.970 519.942 C 83.020 519.855 82.884 519.892 82.970 519.942 L 87.993 522.842 C 88.080 522.892 88.043 522.755 87.993 522.842 L 86.593 525.267 C 86.543 525.353 86.680 525.317 86.593 525.267 L 84.082 523.817 Z" stroke="rgb(0,0,255)" stroke-width="0.20" />
  <path d="M 94.474 529.817 L 91.963 528.367 C 91.876 528.317 91.913 528.453 91.963 528.367 L 93.363 525.942 C 93.413 525.855 93.276 525.892 93.363 525.942 L 98.386 528.842 C 98.472 528.892 98.436 528.755 98.386 528.842 L 96.986 531.267 C 96.936 531.353 97.072 531.317 96.986 531.267 L 94.474 529.817 Z" stroke="rgb(0,0,255)" stroke-width="0.20" />
  <path d="M 10.100 730.614 H 110.100 C 110.155 730.614 110.200 730.569 110.200 730.514 V 430.514 C 110.200 430.459 110.155 430.414 110.100 430.414 H 10.100 C 10.045 430.414 10.000 430.459 10.000 430.514 V 730.514 C 10.000 730.569 10.045 730.614 10.100 730.614 Z" stroke="rgb(0,0,0)" stroke-width="0.20" />
</g>
<g id="p-2" style="fill:none;stroke-linecap:round;stroke-linejoin:round;">
  <path d="M 131.500 412.445 V 415.345 C 131.500 415.445 131.600 415.345 131.500 415.345 H 128.700 C 128.600 415.345 128.700 415.445 128.700 415.345 V 409.545 C 128.700 409.445 128.600 409.545 128.700 409.545 H 131.500 C 131.600 409.545 131.500 409.445 131.500 409.545 V 412.445 Z" stroke="rgb(0,0,255)" stroke-width="0.20" />
  <path d="M 131.500 400.445 V 403.345 C 131.500 403.445 131.600 403.345 131.500 403.345 H 128.700 C 128.600 403.345 128.700 403.445 128.700 403.345 V 397.545 C 128.700 397.445 128.600 397.545 128.700 397.545 H 131.500 C 131.600 397.545 131.500 397.445 131.500 397.545 V 400.445 Z" stroke="rgb(0,0,255)" stroke-width="0.20" />
  <path d="M 131.500 388.445 V 391.345 C 131.500 391.445 131.600 391.345 131.500 391.345 H 128.700 C 128.600 391.345 128.700 391.445 128.700 391.345 V 385.545 C 128.700 385.445 128.600 385.545 128.700 385.545 H 131.500 C 131.600 385.545 131.500 385.445 131.500 385.545 V 388.445 Z" stroke="rgb(0,0,255)" stroke-width="0.20" />
  <path d="M 131.500 376.445 V 379.345 C 131.500 379.445 131.600 379.345 131.500 379.345 H 128.700 C 128.600 379.345 128.700 379.445 128.700 379.345 V 373.545 C 128.700 373.445 128.600 373.545 128.700 373.545 H 131.500 C 131.600 373.545 131.500 373.445 131.500 373.545 V 376.445 Z" stroke="rgb(0,0,255)" stroke-width="0.20" />
  <path d="M 131.500 364.445 V 367.345 C 131.500 367.445 131.600 367.345 131.500 367.345 H 128.700 C 128.600 367.345 128.700 367.445 128.700 367.345 V 361.545 C 128.700 361.445 128.600 361.545 128.700 361.545 H 131.500 C 131.600 361.545 131.500 361.445 131.500 361.545 V 364.445 Z" stroke="rgb(0,0,255)" stroke-width="0.20" />
  <path d="M 131.500 352.445 V 355.345 C 131.500 355.445 131.600 355.345 131.500 355.345 H 128.700 C 128.600 355.345 128.700 355.445 128.700 355.345 V 349.545 C 128.700 349.445 128.600 349.545 128.700 349.545 H 131.500 C 131.600 349.545 131.500 349.445 131.500 349.545 V 352.445 Z" stroke="rgb(0,0,255)" stroke-width="0.20" />
  <path d="M 131.500 340.445 V 343.345 C 131.500 343.445 131.600 343.345 131.500 343.345 H 128.700 C 128.600 343.345 128.700 343.445 128.700 343.345 V 337.545 C 128.700 337.445 128.600 337.545 128.700 337.545 H 131.500 C 131.600 337.545 131.500 337.445 131.500 337.545 V 340.445 Z" stroke="rgb(0,0,255)" stroke-width="0.20" />
  <path d="M 131.500 328.445 V 331.345 C 131.500 331.445 131.600 331.345 131.500 331.345 H 128.700 C 128.600 331.345 128.700 331.445 128.700 331.345 V 325.545 C 128.700 325.445 128.600 325.545 128.700 325.545 H 131.500 C 131.600 325.545 131.500 325.445 131.500 325.545 V 328.445 Z" stroke="rgb(0,0,255)" stroke-width="0.20" />
  <path d="M 13.100 428.914 H 247.100 C 247.155 428.914 247.200 428.869 247.200 428.814 V 425.814 V 415.545 C 247.200 415.445 247.100 415.545 247.200 415.545 H 250.100 C 250.155 415.545 250.200 415.500 250.200 415.445 V 409.445 C 250.200 409.390 250.155 409.345 250.100 409.345 H 247.200 C 247.100 409.345 247.200 409.445 247.200 409.345 V 403.545 C 247.200 403.445 247.100 403.545 247.200 403.545 H 250.100 C 250.155 403.545 250.200 403.500 250.200 403.445 V 397.445 C 250.200 397.390 250.155 397.345 250.100 397.345 H 247.200 C 247.100 397.345 247.200 397.445 247.200 397.345 V 391.545 C 247.200 391.445 247.100 391.545 247.200 391.545 H 250.100 C 250.155 391.545 250.200 391.500 250.200 391.445 V 385.445 C 250.200 385.390 250.155 385.345 250.100 385.345 H 247.200 C 247.100 385.345 247.200 385.445 247.200 385.345 V 379.545 C 247.200 379.445 247.100 379.545 247.200 379.545 H 250.100 C 250.155 379.545 250.200 379.500 250.200 379.445 V 373.445 C 250.200 373.390 250.155 373.345 250.100 373.345 H 247.200 C 247.100 373.345 247.200 373.445 247.200 373.345 V 367.545 C 247.200 367.445 247.100 367.545 247.200 367.545 H 250.100 C 250.155 367.545 250.200 367.500 250.200 367.445 V 361.445 C 250.200 361.390 250.155 361.345 250.100 361.345 H 247.200 C 247.100 361.345 247.200 361.445 247.200 361.345 V 355.545 C 247.200 355.445 247.100 355.545 247.200 355.545 H 250.100 C 250.155 355.545 250.200 355.500 250.200 355.445 V 349.445 C 250.200 349.390 250.155 349.345 250.100 349.345 H 247.200 C 247.100 349.345 247.200 349.445 247.200 349.345 V 343.545 C 247.200 343.445 247.100 343.545 247.200 343.545 H 250.100 C 250.155 343.545 250.200 343.500 250.200 343.445 V 337.445 C 250.200 337.390 250.155 337.345 250.100 337.345 H 247.200 C 247.100 337.345 247.200 337.445 247.200 337.345 V 331.545 C 247.200 331.445 247.100 331.545 247.200 331.545 H 250.100 C 250.155 331.545 250.200 331.500 250.200 331.445 V 325.445 C 250.200 325.390 250.155 325.345 250.100 325.345 H 247.200 C 247.100 325.345 247.200 325.445 247.200 325.345 V 315.076 C 247.200 315.021 247.155 314.976 247.100 314.976 H 13.100 C 13.045 314.976 13.000 315.021 13.000 315.076 V 325.345 C 13.000 325.445 13.100 325.345 13.000 325.345 H 10.100 C 10.045 325.345 10.000 325.390 10.000 325.445 V 331.445 C 10.000 331.500 10.045 331.545 10.100 331.545 H 13.000 C 13.100 331.545 13.000 331.445 13.000 331.545 V 337.345 C 13.000 337.445 13.100 337.345 13.000 337.345 H 10.100 C 10.045 337.345 10.000 337.390 10.000 337.445 V 343.445 C 10.000 343.500 10.045 343.545 10.100 343.545 H 13.000 C 13.100 343.545 13.000 343.445 13.000 343.545 V 349.345 C 13.000 349.445 13.100 349.345 13.000 349.345 H 10.100 C 10.045 349.345 10.000 349.390 10.000 349.445 V 355.445 C 10.000 355.500 10.045 355.545 10.100 355.545 H 13.000 C 13.100 355.545 13.000 355.445 13.000 355.545 V 361.345 C 13.000 361.445 13.100 361.345 13.000 361.345 H 10.100 C 10.045 361.345 10.000 361.390 10.000 361.445 V 367.445 C 10.000 367.500 10.045 367.545 10.100 367.545 H 13.000 C 13.100 367.545 13.000 367.445 13.000 367.545 V 373.345 C 13.000 373.445 13.100 373.345 13.000 373.345 H 10.100 C 10.045 373.345 10.000 373.390 10.000 373.445 V 379.445 C 10.000 379.500 10.045 379.545 10.100 379.545 H 13.000 C 13.100 379.545 13.000 379.445 13.000 379.545 V 385.345 C 13.000 385.445 13.100 385.345 13.000 385.345 H 10.100 C 10.045 385.345 10.000 385.390 10.000 385.445 V 391.445 C 10.000 391.500 10.045 391.545 10.100 391.545 H 13.000 C 13.100 391.545 13.000 391.445 13.000 391.545 V 397.345 C 13.000 397.445 13.100 397.345 13.000 397.345 H 10.100 C 10.045 397.345 10.000 397.390 10.000 397.445 V 403.445 C 10.000 403.500 10.045 403.545 10.100 403.545 H 13.000 C 13.100 403.545 13.000 403.445 13.000 403.545 V 409.345 C 13.000 409.445 13.100 409.345 13.000 409.345 H 10.100 C 10.045 409.345 10.000 409.390 10.000 409.445 V 415.445 C 10.000 415.500 10.045 415.545 10.100 415.545 H 13.000 C 13.100 415.545 13.000 415.445 13.000 415.545 V 425.814 V 428.814 C 13.000 428.869 13.045 428.914 13.100 428.914 Z" stroke="rgb(0,0,0)" stroke-width="0.20" />
</g>
<g id="p-3" style="fill:none;stroke-linecap:round;stroke-linejoin:round;">
  <path d="M 131.500 297.007 V 299.907 C 131.500 300.007 131.600 299.907 131.500 299.907 H 128.700 C 128.600 299.907 128.700 300.007 128.700 299.907 V 294.107 C 128.700 294.007 128.600 294.107 128.700 294.107 H 131.500 C 131.600 294.107 131.500 294.007 131.500 294.107 V 297.007 Z" stroke="rgb(0,0,255)" stroke-width="0.20" />
  <path d="M 131.500 285.007 V 287.907 C 131.500 288.007 131.600 287.907 131.500 287.907 H 128.700 C 128.600 287.907 128.700 288.007 128.700 287.907 V 282.107 C 128.700 282.007 128.600 282.107 128.700 282.107 H 131.500 C 131.600 282.107 131.500 282.007 131.500 282.107 V 285.007 Z" stroke="rgb(0,0,255)" stroke-width="0.20" />
  <path d="M 131.500 273.007 V 275.907 C 131.500 276.007 131.600 275.907 131.500 275.907 H 128.700 C 128.600 275.907 128.700 276.007 128.700 275.907 V 270.107 C 128.700 270.007 128.600 270.107 128.700 270.107 H 131.500 C 131.600 270.107 131.500 270.007 131.500 270.107 V 273.007 Z" stroke="rgb(0,0,255)" stroke-width="0.20" />
  <path d="M 131.500 261.007 V 263.907 C 131.500 264.007 131.600 263.907 131.500 263.907 H 128.700 C 128.600 263.907 128.700 264.007 128.700 263.907 V 258.107 C 128.700 258.007 128.600 258.107 128.700 258.107 H 131.500 C 131.600 258.107 131.500 258.007 131.500 258.107 V 261.007 Z" stroke="rgb(0,0,255)" stroke-width="0.20" />
  <path d="M 131.500 249.007 V 251.907 C 131.500 252.007 131.600 251.907 131.500 251.907 H 128.700 C 128.600 251.907 128.700 252.007 128.700 251.907 V 246.107 C 128.700 246.007 128.600 246.107 128.700 246.107 H 131.500 C 131.600 246.107 131.500 246.007 131.500 246.107 V 249.007 Z" stroke="rgb(0,0,255)" stroke-width="0.20" />
  <path d="M 131.500 237.007 V 239.907 C 131.500 240.007 131.600 239.907 131.500 239.907 H 128.700 C 128.600 239.907 128.700 240.007 128.700 239.907 V 234.107 C 128.700 234.007 128.600 234.107 128.700 234.107 H 131.500 C 131.600 234.107 131.500 234.007 131.500 234.107 V 237.007 Z" stroke="rgb(0,0,255)" stroke-width="0.20" />
  <path d="M 131.500 225.007 V 227.907 C 131.500 228.007 131.600 227.907 131.500 227.907 H 128.700 C 128.600 227.907 128.700 228.007 128.700 227.907 V 222.107 C 128.700 222.007 128.600 222.107 128.700 222.107 H 131.500 C 131.600 222.107 131.500 222.007 131.500 222.107 V 225.007 Z" stroke="rgb(0,0,255)" stroke-width="0.20" />
  <path d="M 131.500 213.007 V 215.907 C 131.500 216.007 131.600 215.907 131.500 215.907 H 128.700 C 128.600 215.907 128.700 216.007 128.700 215.907 V 210.107 C 128.700 210.007 128.600 210.107 128.700 210.107 H 131.500 C 131.600 210.107 131.500 210.007 131.500 210.107 V 213.007 Z" stroke="rgb(0,0,255)" stroke-width="0.20" />
  <path d="M 13.100 313.476 H 247.100 C 247.155 313.476 247.200 313.431 247.200 313.376 V 310.376 V 300.107 C 247.200 300.007 247.100 300.107 247.200 300.107 H 250.100 C 250.155 300.107 250.200 300.062 250.200 300.007 V 294.007 C 250.200 293.952 250.155 293.907 250.100 293.907 H 247.200 C 247.100 293.907 247.200 294.007 247.200 293.907 V 288.107 C 247.200 288.007 247.100 288.107 247.200 288.107 H 250.100 C 250.155 288.107 250.200 288.062 250.200 288.007 V 282.007 C 250.200 281.952 250.155 281.907 250.100 281.907 H 247.200 C 247.100 281.907 247.200 282.007 247.200 281.907 V 276.107 C 247.200 276.007 247.100 276.107 247.200 276.107 H 250.100 C 250.155 276.107 250.200 276.062 250.200 276.007 V 270.007 C 250.200 269.952 250.155 269.907 250.100 269.907 H 247.200 C 247.100 269.907 247.200 270.007 247.200 269.907 V 264.107 C 247.200 264.007 247.100 264.107 247.200 264.107 H 250.100 C 250.155 264.107 250.200 264.062 250.200 264.007 V 258.007 C 250.200 257.952 250.155 257.907 250.100 257.907 H 247.200 C 247.100 257.907 247.200 258.007 247.200 257.907 V 252.107 C 247.200 252.007 247.100 252.107 247.200 252.107 H 250.100 C 250.155 252.107 250.200 252.062 250.200 252.007 V 246.007 C 250.200 245.952 250.155 245.907 250.100 245.907 H 247.200 C 247.100 245.907 247.200 246.007 247.200 245.907 V 240.107 C 247.200 240.007 247.100 240.107 247.200 240.107 H 250.100 C 250.155 240.107 250.200 240.062 250.200 240.007 V 234.007 C 250.200 233.952 250.155 233.907 250.100 233.907 H 247.200 C 247.100 233.907 247.200 234.007 247.200 233.907 V 228.107 C 247.200 228.007 247.100 228.107 247.200 228.107 H 250.100 C 250.155 228.107 250.200 228.062 250.200 228.007 V 222.007 C 250.200 221.952 250.155 221.907 250.100 221.907 H 247.200 C 247.100 221.907 247.200 222.007 247.200 221.907 V 216.107 C 247.200 216.007 247.100 216.107 247.200 216.107 H 250.100 C 250.155 216.107 250.200 216.062 250.200 216.007 V 210.007 C 250.200 209.952 250.155 209.907 250.100 209.907 H 247.200 C 247.100 209.907 247.200 210.007 247.200 209.907 V 199.638 C 247.200 199.583 247.155 199.538 247.100 199.538 H 13.100 C 13.045 199.538 13.000 199.583 13.000 199.638 V 209.907 C 13.000 210.007 13.100 209.907 13.000 209.907 H 10.100 C 10.045 209.907 10.000 209.952 10.000 210.007 V 216.007 C 10.000 216.062 10.045 216.107 10.100 216.107 H 13.000 C 13.100 216.107 13.000 216.007 13.000 216.107 V 221.907 C 13.000 222.007 13.100 221.907 13.000 221.907 H 10.100 C 10.045 221.907 10.000 221.952 10.000 222.007 V 228.007 C 10.000 228.062 10.045 228.107 10.100 228.107 H 13.000 C 13.100 228.107 13.000 228.007 13.000 228.107 V 233.907 C 13.000 234.007 13.100 233.907 13.000 233.907 H 10.100 C 10.045 233.907 10.000 233.952 10.000 234.007 V 240.007 C 10.000 240.062 10.045 240.107 10.100 240.107 H 13.000 C 13.100 240.107 13.000 240.007 13.000 240.107 V 245.907 C 13.000 246.007 13.100 245.907 13.000 245.907 H 10.100 C 10.045 245.907 10.000 245.952 10.000 246.007 V 252.007 C 10.000 252.062 10.045 252.107 10.100 252.107 H 13.000 C 13.100 252.107 13.000 252.007 13.000 252.107 V 257.907 C 13.000 258.007 13.100 257.907 13.000 257.907 H 10.100 C 10.045 257.907 10.000 257.952 10.000 258.007 V 264.007 C 10.000 264.062 10.045 264.107 10.100 264.107 H 13.000 C 13.100 264.107 13.000 264.007 13.000 264.107 V 269.907 C 13.000 270.007 13.100 269.907 13.000 269.907 H 10.100 C 10.045 269.907 10.000 269.952 10.000 270.007 V 276.007 C 10.000 276.062 10.045 276.107 10.100 276.107 H 13.000 C 13.100 276.107 13.000 276.007 13.000 276.107 V 281.907 C 13.000 282.007 13.100 281.907 13.000 281.907 H 10.100 C 10.045 281.907 10.000 281.952 10.000 282.007 V 288.007 C 10.000 288.062 10.045 288.107 10.100 288.107 H 13.000 C 13.100 288.107 13.000 288.007 13.000 288.107 V 293.907 C 13.000 294.007 13.100 293.907 13.000 293.907 H 10.100 C 10.045 293.907 10.000 293.952 10.000 294.007 V 300.007 C 10.000 300.062 10.045 300.107 10.100 300.107 H 13.000 C 13.100 300.107 13.000 300.007 13.000 300.107 V 310.376 V 313.376 C 13.000 313.431 13.045 313.476 13.100 313.476 Z" stroke="rgb(0,0,0)" stroke-width="0.20" />
</g>
<g id="p-4" style="fill:none;stroke-linecap:round;stroke-linejoin:round;">
  <path d="M 131.500 181.569 V 184.469 C 131.500 184.569 131.600 184.469 131.500 184.469 H 128.700 C 128.600 184.469 128.700 184.569 128.700 184.469 V 178.669 C 128.700 178.569 128.600 178.669 128.700 178.669 H 131.500 C 131.600 178.669 131.500 178.569 131.500 178.669 V 181.569 Z" stroke="rgb(0,0,255)" stroke-width="0.20" />
  <path d="M 131.500 169.569 V 172.469 C 131.500 172.569 131.600 172.469 131.500 172.469 H 128.700 C 128.600 172.469 128.700 172.569 128.700 172.469 V 166.669 C 128.700 166.569 128.600 166.669 128.700 166.669 H 131.500 C 131.600 166.669 131.500 166.569 131.500 166.669 V 169.569 Z" stroke="rgb(0,0,255)" stroke-width="0.20" />
  <path d="M 131.500 157.569 V 160.469 C 131.500 160.569 131.600 160.469 131.500 160.469 H 128.700 C 128.600 160.469 128.700 160.569 128.700 160.469 V 154.669 C 128.700 154.569 128.600 154.669 128.700 154.669 H 131.500 C 131.600 154.669 131.500 154.569 131.500 154.669 V 157.569 Z" stroke="rgb(0,0,255)" stroke-width="0.20" />
  <path d="M 131.500 145.569 V 148.469 C 131.500 148.569 131.600 148.469 131.500 148.469 H 128.700 C 128.600 148.469 128.700 148.569 128.700 148.469 V 142.669 C 128.700 142.569 128.600 142.669 128.700 142.669 H 131.500 C 131.600 142.669 131.500 142.569 131.500 142.669 V 145.569 Z" stroke="rgb(0,0,255)" stroke-width="0.20" />
  <path d="M 131.500 133.569 V 136.469 C 131.500 136.569 131.600 136.469 131.500 136.469 H 128.700 C 128.600 136.469 128.700 136.569 128.700 136.469 V 130.669 C 128.700 130.569 128.600 130.669 128.700 130.669 H 131.500 C 131.600 130.669 131.500 130.569 131.500 130.669 V 133.569 Z" stroke="rgb(0,0,255)" stroke-width="0.20" />
  <path d="M 131.500 121.569 V 124.469 C 131.500 124.569 131.600 124.469 131.500 124.469 H 128.700 C 128.600 124.469 128.700 124.569 128.700 124.469 V 118.669 C 128.700 118.569 128.600 118.669 128.700 118.669 H 131.500 C 131.600 118.669 131.500 118.569 131.500 118.669 V 121.569 Z" stroke="rgb(0,0,255)" stroke-width="0.20" />
  <path d="M 131.500 109.569 V 112.469 C 131.500 112.569 131.600 112.469 131.500 112.469 H 128.700 C 128.600 112.469 128.700 112.569 128.700 112.469 V 106.669 C 128.700 106.569 128.600 106.669 128.700 106.669 H 131.500 C 131.600 106.669 131.500 106.569 131.500 106.669 V 109.569 Z" stroke="rgb(0,0,255)" stroke-width="0.20" />
  <path d="M 131.500 97.569 V 100.469 C 131.500 100.569 131.600 100.469 131.500 100.469 H 128.700 C 128.600 100.469 128.700 100.569 128.700 100.469 V 94.669 C 128.700 94.569 128.600 94.669 128.700 94.669 H 131.500 C 131.600 94.669 131.500 94.569 131.500 94.669 V 97.569 Z" stroke="rgb(0,0,255)" stroke-width="0.20" />
  <path d="M 13.100 198.038 H 247.100 C 247.155 198.038 247.200 197.993 247.200 197.938 V 194.938 V 184.669 C 247.200 184.569 247.100 184.669 247.200 184.669 H 250.100 C 250.155 184.669 250.200 184.624 250.200 184.569 V 178.569 C 250.200 178.514 250.155 178.469 250.100 178.469 H 247.200 C 247.100 178.469 247.200 178.569 247.200 178.469 V 172.669 C 247.200 172.569 247.100 172.669 247.200 172.669 H 250.100 C 250.155 172.669 250.200 172.624 250.200 172.569 V 166.569 C 250.200 166.514 250.155 166.469 250.100 166.469 H 247.200 C 247.100 166.469 247.200 166.569 247.200 166.469 V 160.669 C 247.200 160.569 247.100 160.669 247.200 160.669 H 250.100 C 250.155 160.669 250.200 160.624 250.200 160.569 V 154.569 C 250.200 154.514 250.155 154.469 250.100 154.469 H 247.200 C 247.100 154.469 247.200 154.569 247.200 154.469 V 148.669 C 247.200 148.569 247.100 148.669 247.200 148.669 H 250.100 C 250.155 148.669 250.200 148.624 250.200 148.569 V 142.569 C 250.200 142.514 250.155 142.469 250.100 142.469 H 247.200 C 247.100 142.469 247.200 142.569 247.200 142.469 V 136.669 C 247.200 136.569 247.100 136.669 247.200 136.669 H 250.100 C 250.155 136.669 250.200 136.624 250.200 136.569 V 130.569 C 250.200 130.514 250.155 130.469 250.100 130.469 H 247.200 C 247.100 130.469 247.200 130.569 247.200 130.469 V 124.669 C 247.200 124.569 247.100 124.669 247.200 124.669 H 250.100 C 250.155 124.669 250.200 124.624 250.200 124.569 V 118.569 C 250.200 118.514 250.155 118.469 250.100 118.469 H 247.200 C 247.100 118.469 247.200 118.569 247.200 118.469 V 112.669 C 247.200 112.569 247.100 112.669 247.200 112.669 H 250.100 C 250.155 112.669 250.200 112.624 250.200 112.569 V 106.569 C 250.200 106.514 250.155 106.469 250.100 106.469 H 247.200 C 247.100 106.469 247.200 106.569 247.200 106.469 V 100.669 C 247.200 100.569 247.100 100.669 247.200 100.669 H 250.100 C 250.155 100.669 250.200 100.624 250.200 100.569 V 94.569 C 250.200 94.514 250.155 94.469 250.100 94.469 H 247.200 C 247.100 94.469 247.200 94.569 247.200 94.469 V 84.200 C 247.200 84.145 247.155 84.100 247.100 84.100 H 13.100 C 13.045 84.100 13.000 84.145 13.000 84.200 V 94.469 C 13.000 94.569 13.100 94.469 13.000 94.469 H 10.100 C 10.045 94.469 10.000 94.514 10.000 94.569 V 100.569 C 10.000 100.624 10.045 100.669 10.100 100.669 H 13.000 C 13.100 100.669 13.000 100.569 13.000 100.669 V 106.469 C 13.000 106.569 13.100 106.469 13.000 106.469 H 10.100 C 10.045 106.469 10.000 106.514 10.000 106.569 V 112.569 C 10.000 112.624 10.045 112.669 10.100 112.669 H 13.000 C 13.100 112.669 13.000 112.569 13.000 112.669 V 118.469 C 13.000 118.569 13.100 118.469 13.000 118.469 H 10.100 C 10.045 118.469 10.000 118.514 10.000 118.569 V 124.569 C 10.000 124.624 10.045 124.669 10.100 124.669 H 13.000 C 13.100 124.669 13.000 124.569 13.000 124.669 V 130.469 C 13.000 130.569 13.100 130.469 13.000 130.469 H 10.100 C 10.045 130.469 10.000 130.514 10.000 130.569 V 136.569 C 10.000 136.624 10.045 136.669 10.100 136.669 H 13.000 C 13.100 136.669 13.000 136.569 13.000 136.669 V 142.469 C 13.000 142.569 13.100 142.469 13.000 142.469 H 10.100 C 10.045 142.469 10.000 142.514 10.000 142.569 V 148.569 C 10.000 148.624 10.045 148.669 10.100 148.669 H 13.000 C 13.100 148.669 13.000 148.569 13.000 148.669 V 154.469 C 13.000 154.569 13.100 154.469 13.000 154.469 H 10.100 C 10.045 154.469 10.000 154.514 10.000 154.569 V 160.569 C 10.000 160.624 10.045 160.669 10.100 160.669 H 13.000 C 13.100 160.669 13.000 160.569 13.000 160.669 V 166.469 C 13.000 166.569 13.100 166.469 13.000 166.469 H 10.100 C 10.045 166.469 10.000 166.514 10.000 166.569 V 172.569 C 10.000 172.624 10.045 172.669 10.100 172.669 H 13.000 C 13.100 172.669 13.000 172.569 13.000 172.669 V 178.469 C 13.000 178.569 13.100 178.469 13.000 178.469 H 10.100 C 10.045 178.469 10.000 178.514 10.000 178.569 V 184.569 C 10.000 184.624 10.045 184.669 10.100 184.669 H 13.000 C 13.100 184.669 13.000 184.569 13.000 184.669 V 194.938 V 197.938 C 13.000 197.993 13.045 198.038 13.100 198.038 Z" stroke="rgb(0,0,0)" stroke-width="0.20" />
</g>
<g id="p-5" style="fill:none;stroke-linecap:round;stroke-linejoin:round;">
  <path d="M 10.100 79.600 H 20.369 C 20.469 79.600 20.369 79.500 20.369 79.600 V 82.500 C 20.369 82.555 20.414 82.600 20.469 82.600 H 26.469 C 26.524 82.600 26.569 82.555 26.569 82.500 V 79.600 C 26.569 79.500 26.469 79.600 26.569 79.600 H 32.369 C 32.469 79.600 32.369 79.500 32.369 79.600 V 82.500 C 32.369 82.555 32.414 82.600 32.469 82.600 H 38.469 C 38.524 82.600 38.569 82.555 38.569 82.500 V 79.600 C 38.569 79.500 38.469 79.600 38.569 79.600 H 44.369 C 44.469 79.600 44.369 79.500 44.369 79.600 V 82.500 C 44.369 82.555 44.414 82.600 44.469 82.600 H 50.469 C 50.524 82.600 50.569 82.555 50.569 82.500 V 79.600 C 50.569 79.500 50.469 79.600 50.569 79.600 H 56.369 C 56.469 79.600 56.369 79.500 56.369 79.600 V 82.500 C 56.369 82.555 56.414 82.600 56.469 82.600 H 62.469 C 62.524 82.600 62.569 82.555 62.569 82.500 V 79.600 C 62.569 79.500 62.469 79.600 62.569 79.600 H 68.369 C 68.469 79.600 68.369 79.500 68.369 79.600 V 82.500 C 68.369 82.555 68.414 82.600 68.469 82.600 H 74.469 C 74.524 82.600 74.569 82.555 74.569 82.500 V 79.600 C 74.569 79.500 74.469 79.600 74.569 79.600 H 80.369 C 80.469 79.600 80.369 79.500 80.369 79.600 V 82.500 C 80.369 82.555 80.414 82.600 80.469 82.600 H 86.469 C 86.524 82.600 86.569 82.555 86.569 82.500 V 79.600 C 86.569 79.500 86.469 79.600 86.569 79.600 H 92.369 C 92.469 79.600 92.369 79.500 92.369 79.600 V 82.500 C 92.369 82.555 92.414 82.600 92.469 82.600 H 98.469 C 98.524 82.600 98.569 82.555 98.569 82.500 V 79.600 C 98.569 79.500 98.469 79.600 98.569 79.600 H 104.369 C 104.469 79.600 104.369 79.500 104.369 79.600 V 82.500 C 104.369 82.555 104.414 82.600 104.469 82.600 H 110.469 C 110.524 82.600 110.569 82.555 110.569 82.500 V 79.600 C 110.569 79.500 110.469 79.600 110.569 79.600 H 120.838 C 120.893 79.600 120.938 79.555 120.938 79.500 V 59.500 C 120.938 59.445 120.893 59.400 120.838 59.400 H 10.100 C 10.045 59.400 10.000 59.445 10.000 59.500 V 79.500 C 10.000 79.555 10.045 79.600 10.100 79.600 Z" stroke="rgb(0,0,0)" stroke-width="0.20" />
</g>
<g id="p-6" style="fill:none;stroke-linecap:round;stroke-linejoin:round;">
  <path d="M 10.100 54.900 H 20.369 C 20.469 54.900 20.369 54.800 20.369 54.900 V 57.800 C 20.369 57.855 20.414 57.900 20.469 57.900 H 26.469 C 26.524 57.900 26.569 57.855 26.569 57.800 V 54.900 C 26.569 54.800 26.469 54.900 26.569 54.900 H 32.369 C 32.469 54.900 32.369 54.800 32.369 54.900 V 57.800 C 32.369 57.855 32.414 57.900 32.469 57.900 H 38.469 C 38.524 57.900 38.569 57.855 38.569 57.800 V 54.900 C 38.569 54.800 38.469 54.900 38.569 54.900 H 44.369 C 44.469 54.900 44.369 54.800 44.369 54.900 V 57.800 C 44.369 57.855 44.414 57.900 44.469 57.900 H 50.469 C 50.524 57.900 50.569 57.855 50.569 57.800 V 54.900 C 50.569 54.800 50.469 54.900 50.569 54.900 H 56.369 C 56.469 54.900 56.369 54.800 56.369 54.900 V 57.800 C 56.369 57.855 56.414 57.900 56.469 57.900 H 62.469 C 62.524 57.900 62.569 57.855 62.569 57.800 V 54.900 C 62.569 54.800 62.469 54.900 62.569 54.900 H 68.369 C 68.469 54.900 68.369 54.800 68.369 54.900 V 57.800 C 68.369 57.855 68.414 57.900 68.469 57.900 H 74.469 C 74.524 57.900 74.569 57.855 74.569 57.800 V 54.900 C 74.569 54.800 74.469 54.900 74.569 54.900 H 80.369 C 80.469 54.900 80.369 54.800 80.369 54.900 V 57.800 C 80.369 57.855 80.414 57.900 80.469 57.900 H 86.469 C 86.524 57.900 86.569 57.855 86.569 57.800 V 54.900 C 86.569 54.800 86.469 54.900 86.569 54.900 H 92.369 C 92.469 54.900 92.369 54.800 92.369 54.900 V 57.800 C 92.369 57.855 92.414 57.900 92.469 57.900 H 98.469 C 98.524 57.900 98.569 57.855 98.569 57.800 V 54.900 C 98.569 54.800 98.469 54.900 98.569 54.900 H 104.369 C 104.469 54.900 104.369 54.800 104.369 54.900 V 57.800 C 104.369 57.855 104.414 57.900 104.469 57.900 H 110.469 C 110.524 57.900 110.569 57.855 110.569 57.800 V 54.900 C 110.569 54.800 110.469 54.900 110.569 54.900 H 120.838 C 120.893 54.900 120.938 54.855 120.938 54.800 V 34.800 C 120.938 34.745 120.893 34.700 120.838 34.700 H 10.100 C 10.045 34.700 10.000 34.745 10.000 34.800 V 54.800 C 10.000 54.855 10.045 54.900 10.100 54.900 Z" stroke="rgb(0,0,0)" stroke-width="0.20" />
</g>
<g id="p-7" style="fill:none;stroke-linecap:round;stroke-linejoin:round;">
  <path d="M 10.100 30.200 H 20.369 C 20.469 30.200 20.369 30.100 20.369 30.200 V 33.100 C 20.369 33.155 20.414 33.200 20.469 33.200 H 26.469 C 26.524 33.200 26.569 33.155 26.569 33.100 V 30.200 C 26.569 30.100 26.469 30.200 26.569 30.200 H 32.369 C 32.469 30.200 32.369 30.100 32.369 30.200 V 33.100 C 32.369 33.155 32.414 33.200 32.469 33.200 H 38.469 C 38.524 33.200 38.569 33.155 38.569 33.100 V 30.200 C 38.569 30.100 38.469 30.200 38.569 30.200 H 44.369 C 44.469 30.200 44.369 30.100 44.369 30.200 V 33.100 C 44.369 33.155 44.414 33.200 44.469 33.200 H 50.469 C 50.524 33.200 50.569 33.155 50.569 33.100 V 30.200 C 50.569 30.100 50.469 30.200 50.569 30.200 H 56.369 C 56.469 30.200 56.369 30.100 56.369 30.200 V 33.100 C 56.369 33.155 56.414 33.200 56.469 33.200 H 62.469 C 62.524 33.200 62.569 33.155 62.569 33.100 V 30.200 C 62.569 30.100 62.469 30.200 62.569 30.200 H 68.369 C 68.469 30.200 68.369 30.100 68.369 30.200 V 33.100 C 68.369 33.155 68.414 33.200 68.469 33.200 H 74.469 C 74.524 33.200 74.569 33.155 74.569 33.100 V 30.200 C 74.569 30.100 74.469 30.200 74.569 30.200 H 80.369 C 80.469 30.200 80.369 30.100 80.369 30.200 V 33.100 C 80.369 33.155 80.414 33.200 80.469 33.200 H 86.469 C 86.524 33.200 86.569 33.155 86.569 33.100 V 30.200 C 86.569 30.100 86.469 30.200 86.569 30.200 H 92.369 C 92.469 30.200 92.369 30.100 92.369 30.200 V 33.100 C 92.369 33.155 92.414 33.200 92.469 33.200 H 98.469 C 98.524 33.200 98.569 33.155 98.569 33.100 V 30.200 C 98.569 30.100 98.469 30.200 98.569 30.200 H 104.369 C 104.469 30.200 104.369 30.100 104.369 30.200 V 33.100 C 104.369 33.155 104.414 33.200 104.469 33.200 H 110.469 C 110.524 33.200 110.569 33.155 110.569 33.100 V 30.200 C 110.569 30.100 110.469 30.200 110.569 30.200 H 120.838 C 120.893 30.200 120.938 30.155 120.938 30.100 V 10.100 C 120.938 10.045 120.893 10.000 120.838 10.000 H 10.100 C 10.045 10.000 10.000 10.045 10.000 10.100 V 30.100 C 10.000 30.155 10.045 30.200 10.100 30.200 Z" stroke="rgb(0,0,0)" stroke-width="0.20" />
</g>
</svg>