<?xml version='1.0' encoding='utf-8'?>
<svg height="536.70mm" viewBox="0.0 0.0 282.90 536.70" width="282.90mm" xmlns="http://www.w3.org/2000/svg" xmlns:cc="http://creativecommons.org/ns#" xmlns:dc="http://purl.org/dc/elements/1.1/" xmlns:inkscape="http://www.inkscape.org/namespaces/inkscape" xmlns:rdf="http://www.w3.org/1999/02/22-rdf-syntax-ns#" xmlns:svg="http://www.w3.org/2000/svg" xmlns:xlink="http://www.w3.org/1999/xlink">
<!--
TypeTray - Type tray - allows only continuous walls

Created with Boxes.py (https://boxes.hackerspace-bamberg.de/)
Creation date: 2026-08-04 12:50:52
Command line (remove spaces between dashes): boxes TypeTray - -sx - -sy - -h - -hi - -outside - -top_edge - -fingerholes - -reference - -labels
-->
<title>TypeTray</title>
<metadata>
<rdf:RDF><cc:Work>
<dc:title>Tray - TypeTray</dc:title>
<dc:date>2026-08-04 12:50:52</dc:date>
<dc:source>boxes TypeTray --sx '60*2' --sy '40*3' --h 70 --hi 40 --outside 0 --bottom_edge h --top_edge f --fingerholes front-and-back --gripwidth 0 --gripheight 30 --thickness 3 --burn 0.1 --reference 0 --labels 0</dc:source>
<dc:description>Type tray - allows only continuous walls

Created with Boxes.py (https://boxes.hackerspace-bamberg.de/)
Command line: boxes TypeTray --sx '60*2' --sy '40*3' --h 70 --hi 40 --outside 0 --bottom_edge h --top_edge f --fingerholes front-and-back --gripwidth 0 --gripheight 30 --thickness 3 --burn 0.1 --reference 0 --labels 0
Command line short: boxes TypeTray --sx --sy --h --hi --outside --top_edge --fingerholes --reference --labels
</dc:description>
</cc:Work></rdf:RDF></metadata>
<g id="p-0" style="fill:none;stroke-linecap:round;stroke-linejoin:round;">
  <path d="M 76.000 515.600 V 518.500 C 76.000 518.600 76.100 518.500 76.000 518.500 H 73.200 C 73.100 518.500 73.200 518.600 73.200 518.500 V 512.700 C 73.200 512.600 73.100 512.700 73.200 512.700 H 76.000 C 76.100 512.700 76.000 512.600 76.000 512.700 V 515.600 Z" stroke="rgb(0,0,255)" stroke-width="0.20" />
  <path d="M 76.000 503.600 V 506.500 C 76.000 506.600 76.100 506.500 76.000 506.500 H 73.200 C 73.100 506.500 73.200 506.600 73.200 506.500 V 500.700 C 73.200 500.600 73.100 500.700 73.200 500.700 H 76.000 C 76.100 500.700 76.000 500.600 76.000 500.700 V 503.600 Z" stroke="rgb(0,0,255)" stroke-width="0.20" />
  <path d="M 76.000 491.600 V 494.500 C 76.000 494.600 76.100 494.500 76.000 494.500 H 73.200 C 73.100 494.500 73.200 494.600 73.200 494.500 V 488.700 C 73.200 488.600 73.100 488.700 73.200 488.700 H 76.000 C 76.100 488.700 76.000 488.600 76.000 488.700 V 491.600 Z" stroke="rgb(0,0,255)" stroke-width="0.20" />
  <path d="M 76.000 472.600 V 475.500 C 76.000 475.600 76.100 475.500 76.000 475.500 H 73.200 C 73.100 475.500 73.200 475.600 73.200 475.500 V 469.700 C 73.200 469.600 73.100 469.700 73.200 469.700 H 76.000 C 76.100 469.700 76.000 469.600 76.000 469.700 V 472.600 Z" stroke="rgb(0,0,255)" stroke-width="0.20" />
  <path d="M 76.000 460.600 V 463.500 C 76.000 463.600 76.100 463.500 76.000 463.500 H 73.200 C 73.100 463.500 73.200 463.600 73.200 463.500 V 457.700 C 73.200 457.600 73.100 457.700 73.200 457.700 H 76.000 C 76.100 457.700 76.000 457.600 76.000 457.700 V 460.600 Z" stroke="rgb(0,0,255)" stroke-width="0.20" />
  <path d="M 76.000 448.600 V 451.500 C 76.000 451.600 76.100 451.500 76.000 451.500 H 73.200 C 73.100 451.500 73.200 451.600 73.200 451.500 V 445.700 C 73.200 445.600 73.100 445.700 73.200 445.700 H 76.000 C 76.100 445.700 76.000 445.600 76.000 445.700 V 448.600 Z" stroke="rgb(0,0,255)" stroke-width="0.20" />
  <path d="M 76.000 429.600 V 432.500 C 76.000 432.600 76.100 432.500 76.000 432.500 H 73.200 C 73.100 432.500 73.200 432.600 73.200 432.500 V 426.700 C 73.200 426.600 73.100 426.700 73.200 426.700 H 76.000 C 76.100 426.700 76.000 426.600 76.000 426.700 V 429.600 Z" stroke="rgb(0,0,255)" stroke-width="0.20" />
  <path d="M 76.000 417.600 V 420.500 C 76.000 420.600 76.100 420.500 76.000 420.500 H 73.200 C 73.100 420.500 73.200 420.600 73.200 420.500 V 414.700 C 73.200 414.600 73.100 414.700 73.200 414.700 H 76.000 C 76.100 414.700 76.000 414.600 76.000 414.700 V 417.600 Z" stroke="rgb(0,0,255)" stroke-width="0.20" />
  <path d="M 76.000 405.600 V 408.500 C 76.000 408.600 76.100 408.500 76.000 408.500 H 73.200 C 73.100 408.500 73.200 408.600 73.200 408.500 V 402.700 C 73.200 402.600 73.100 402.700 73.200 402.700 H 76.000 C 76.100 402.700 76.000 402.600 76.000 402.700 V 405.600 Z" stroke="rgb(0,0,255)" stroke-width="0.20" />
  <path d="M 13.100 523.700 H 17.500 C 17.600 523.700 17.500 523.600 17.500 523.700 V 526.600 C 17.500 526.655 17.545 526.700 17.600 526.700 H 23.600 C 23.655 526.700 23.700 526.655 23.700 526.600 V 523.700 C 23.700 523.600 23.600 523.700 23.700 523.700 H 29.500 C 29.600 523.700 29.500 523.600 29.500 523.700 V 526.600 C 29.500 526.655 29.545 526.700 29.600 526.700 H 35.600 C 35.655 526.700 35.700 526.655 35.700 526.600 V 523.700 C 35.700 523.600 35.600 523.700 35.700 523.700 H 41.500 C 41.600 523.700 41.500 523.600 41.500 523.700 V 526.600 C 41.500 526.655 41.545 526.700 41.600 526.700 H 47.600 C 47.655 526.700 47.700 526.655 47.700 526.600 V 523.700 C 47.700 523.600 47.600 523.700 47.700 523.700 H 53.500 C 53.600 523.700 53.500 523.600 53.500 523.700 V 526.600 C 53.500 526.655 53.545 526.700 53.600 526.700 H 59.600 C 59.655 526.700 59.700 526.655 59.700 526.600 V 523.700 C 59.700 523.600 59.600 523.700 59.700 523.700 H 65.500 C 65.600 523.700 65.500 523.600 65.500 523.700 V 526.600 C 65.500 526.655 65.545 526.700 65.600 526.700 H 71.600 C 71.655 526.700 71.700 526.655 71.700 526.600 V 523.700 C 71.700 523.600 71.600 523.700 71.700 523.700 H 77.500 C 77.600 523.700 77.500 523.600 77.500 523.700 V 526.600 C 77.500 526.655 77.545 526.700 77.600 526.700 H 83.600 C 83.655 526.700 83.700 526.655 83.700 526.600 V 523.700 C 83.700 523.600 83.600 523.700 83.700 523.700 H 89.500 C 89.600 523.700 89.500 523.600 89.500 523.700 V 526.600 C 89.500 526.655 89.545 526.700 89.600 526.700 H 95.600 C 95.655 526.700 95.700 526.655 95.700 526.600 V 523.700 C 95.700 523.600 95.600 523.700 95.700 523.700 H 101.500 C 101.600 523.700 101.500 523.600 101.500 523.700 V 526.600 C 101.500 526.655 101.545 526.700 101.600 526.700 H 107.600 C 107.655 526.700 107.700 526.655 107.700 526.600 V 523.700 C 107.700 523.600 107.600 523.700 107.700 523.700 H 113.500 C 113.600 523.700 113.500 523.600 113.500 523.700 V 526.600 C 113.500 526.655 113.545 526.700 113.600 526.700 H 119.600 C 119.655 526.700 119.700 526.655 119.700 526.600 V 523.700 C 119.700 523.600 119.600 523.700 119.700 523.700 H 125.500 C 125.600 523.700 125.500 523.600 125.500 523.700 V 526.600 C 125.500 526.655 125.545 526.700 125.600 526.700 H 131.600 C 131.655 526.700 131.700 526.655 131.700 526.600 V 523.700 C 131.700 523.600 131.600 523.700 131.700 523.700 H 136.100 C 136.155 523.700 136.200 523.655 136.200 523.600 V 517.700 C 136.200 517.600 136.100 517.700 136.200 517.700 H 139.100 C 139.155 517.700 139.200 517.655 139.200 517.600 V 511.600 C 139.200 511.545 139.155 511.500 139.100 511.500 H 136.200 C 136.100 511.500 136.200 511.600 136.200 511.500 V 505.700 C 136.200 505.600 136.100 505.700 136.200 505.700 H 139.100 C 139.155 505.700 139.200 505.655 139.200 505.600 V 499.600 C 139.200 499.545 139.155 499.500 139.100 499.500 H 136.200 C 136.100 499.500 136.200 499.600 136.200 499.500 V 493.700 C 136.200 493.600 136.100 493.700 136.200 493.700 H 139.100 C 139.155 493.700 139.200 493.655 139.200 493.600 V 487.600 C 139.200 487.545 139.155 487.500 139.100 487.500 H 136.200 C 136.100 487.500 136.200 487.600 136.200 487.500 V 481.700 C 136.200 481.600 136.100 481.700 136.200 481.700 H 139.100 C 139.155 481.700 139.200 481.655 139.200 481.600 V 475.600 C 139.200 475.545 139.155 475.500 139.100 475.500 H 136.200 C 136.100 475.500 136.200 475.600 136.200 475.500 V 469.700 C 136.200 469.600 136.100 469.700 136.200 469.700 H 139.100 C 139.155 469.700 139.200 469.655 139.200 469.600 V 463.600 C 139.200 463.545 139.155 463.500 139.100 463.500 H 136.200 C 136.100 463.500 136.200 463.600 136.200 463.500 V 457.700 C 136.200 457.600 136.100 457.700 136.200 457.700 H 139.100 C 139.155 457.700 139.200 457.655 139.200 457.600 V 451.600 C 139.200 451.545 139.155 451.500 139.100 451.500 H 136.200 C 136.100 451.500 136.200 451.600 136.200 451.500 V 445.700 C 136.200 445.600 136.100 445.700 136.200 445.700 H 139.100 C 139.155 445.700 139.200 445.655 139.200 445.600 V 439.600 C 139.200 439.545 139.155 439.500 139.100 439.500 H 136.200 C 136.100 439.500 136.200 439.600 136.200 439.500 V 433.700 C 136.200 433.600 136.100 433.700 136.200 433.700 H 139.100 C 139.155 433.700 139.200 433.655 139.200 433.600 V 427.600 C 139.200 427.545 139.155 427.500 139.100 427.500 H 136.200 C 136.100 427.500 136.200 427.600 136.200 427.500 V 421.700 C 136.200 421.600 136.100 421.700 136.200 421.700 H 139.100 C 139.155 421.700 139.200 421.655 139.200 421.600 V 415.600 C 139.200 415.545 139.155 415.500 139.100 415.500 H 136.200 C 136.100 415.500 136.200 415.600 136.200 415.500 V 409.700 C 136.200 409.600 136.100 409.700 136.200 409.700 H 139.100 C 139.155 409.700 139.200 409.655 139.200 409.600 V 403.600 C 139.200 403.545 139.155 403.500 139.100 403.500 H 136.200 C 136.100 403.500 136.200 403.600 136.200 403.500 V 397.600 C 136.200 397.545 136.155 397.500 136.100 397.500 H 131.700 C 131.600 397.500 131.700 397.600 131.700 397.500 V 394.600 C 131.700 394.545 131.655 394.500 131.600 394.500 H 125.600 C 125.545 394.500 125.500 394.545 125.500 394.600 V 397.500 C 125.500 397.600 125.600 397.500 125.500 397.500 H 119.700 C 119.600 397.500 119.700 397.600 119.700 397.500 V 394.600 C 119.700 394.545 119.655 394.500 119.600 394.500 H 113.600 C 113.545 394.500 113.500 394.545 113.500 394.600 V 397.500 C 113.500 397.600 113.600 397.500 113.500 397.500 H 107.700 C 107.600 397.500 107.700 397.600 107.700 397.500 V 394.600 C 107.700 394.545 107.655 394.500 107.600 394.500 H 101.600 C 101.545 394.500 101.500 394.545 101.500 394.600 V 397.500 C 101.500 397.600 101.600 397.500 101.500 397.500 H 95.700 C 95.600 397.500 95.700 397.600 95.700 397.500 V 394.600 C 95.700 394.545 95.655 394.500 95.600 394.500 H 89.600 C 89.545 394.500 89.500 394.545 89.500 394.600 V 397.500 C 89.500 397.600 89.600 397.500 89.500 397.500 H 83.700 C 83.600 397.500 83.700 397.600 83.700 397.500 V 394.600 C 83.700 394.545 83.655 394.500 83.600 394.500 H 77.600 C 77.545 394.500 77.500 394.545 77.500 394.600 V 397.500 C 77.500 397.600 77.600 397.500 77.500 397.500 H 71.700 C 71.600 397.500 71.700 397.600 71.700 397.500 V 394.600 C 71.700 394.545 71.655 394.500 71.600 394.500 H 65.600 C 65.545 394.500 65.500 394.545 65.500 394.600 V 397.500 C 65.500 397.600 65.600 397.500 65.500 397.500 H 59.700 C 59.600 397.500 59.700 397.600 59.700 397.500 V 394.600 C 59.700 394.545 59.655 394.500 59.600 394.500 H 53.600 C 53.545 394.500 53.500 394.545 53.500 394.600 V 397.500 C 53.500 397.600 53.600 397.500 53.500 397.500 H 47.700 C 47.600 397.500 47.700 397.600 47.700 397.500 V 394.600 C 47.700 394.545 47.655 394.500 47.600 394.500 H 41.600 C 41.545 394.500 41.500 394.545 41.500 394.600 V 397.500 C 41.500 397.600 41.600 397.500 41.500 397.500 H 35.700 C 35.600 397.500 35.700 397.600 35.700 397.500 V 394.600 C 35.700 394.545 35.655 394.500 35.600 394.500 H 29.600 C 29.545 394.500 29.500 394.545 29.500 394.600 V 397.500 C 29.500 397.600 29.600 397.500 29.500 397.500 H 23.700 C 23.600 397.500 23.700 397.600 23.700 397.500 V 394.600 C 23.700 394.545 23.655 394.500 23.600 394.500 H 17.600 C 17.545 394.500 17.500 394.545 17.500 394.600 V 397.500 C 17.500 397.600 17.600 397.500 17.500 397.500 H 13.100 C 13.045 397.500 13.000 397.545 13.000 397.600 V 403.500 C 13.000 403.600 13.100 403.500 13.000 403.500 H 10.100 C 10.045 403.500 10.000 403.545 10.000 403.600 V 409.600 C 10.000 409.655 10.045 409.700 10.100 409.700 H 13.000 C 13.100 409.700 13.000 409.600 13.000 409.700 V 415.500 C 13.000 415.600 13.100 415.500 13.000 415.500 H 10.100 C 10.045 415.500 10.000 415.545 10.000 415.600 V 421.600 C 10.000 421.655 10.045 421.700 10.100 421.700 H 13.000 C 13.100 421.700 13.000 421.600 13.000 421.700 V 427.500 C 13.000 427.600 13.100 427.500 13.000 427.500 H 10.100 C 10.045 427.500 10.000 427.545 10.000 427.600 V 433.600 C 10.000 433.655 10.045 433.700 10.100 433.700 H 13.000 C 13.100 433.700 13.000 433.600 13.000 433.700 V 439.500 C 13.000 439.600 13.100 439.500 13.000 439.500 H 10.100 C 10.045 439.500 10.000 439.545 10.000 439.600 V 445.600 C 10.000 445.655 10.045 445.700 10.100 445.700 H 13.000 C 13.100 445.700 13.000 445.600 13.000 445.700 V 451.500 C 13.000 451.600 13.100 451.500 13.000 451.500 H 10.100 C 10.045 451.500 10.000 451.545 10.000 451.600 V 457.600 C 10.000 457.655 10.045 457.700 10.100 457.700 H 13.000 C 13.100 457.700 13.000 457.600 13.000 457.700 V 463.500 C 13.000 463.600 13.100 463.500 13.000 463.500 H 10.100 C 10.045 463.500 10.000 463.545 10.000 463.600 V 469.600 C 10.000 469.655 10.045 469.700 10.100 469.700 H 13.000 C 13.100 469.700 13.000 469.600 13.000 469.700 V 475.500 C 13.000 475.600 13.100 475.500 13.000 475.500 H 10.100 C 10.045 475.500 10.000 475.545 10.000 475.600 V 481.600 C 10.000 481.655 10.045 481.700 10.100 481.700 H 13.000 C 13.100 481.700 13.000 481.600 13.000 481.700 V 487.500 C 13.000 487.600 13.100 487.500 13.000 487.500 H 10.100 C 10.045 487.500 10.000 487.545 10.000 487.600 V 493.600 C 10.000 493.655 10.045 493.700 10.100 493.700 H 13.000 C 13.100 493.700 13.000 493.600 13.000 493.700 V 499.500 C 13.000 499.600 13.100 499.500 13.000 499.500 H 10.100 C 10.045 499.500 10.000 499.545 10.000 499.600 V 505.600 C 10.000 505.655 10.045 505.700 10.100 505.700 H 13.000 C 13.100 505.700 13.000 505.600 13.000 505.700 V 511.500 C 13.000 511.600 13.100 511.500 13.000 511.500 H 10.100 C 10.045 511.500 10.000 511.545 10.000 511.600 V 517.600 C 10.000 517.655 10.045 517.700 10.100 517.700 H 13.000 C 13.100 517.700 13.000 517.600 13.000 517.700 V 523.600 C 13.000 523.655 13.045 523.700 13.100 523.700 Z" stroke="rgb(0,0,0)" stroke-width="0.20" />
  <path d="M 130.100 480.700 H 133.000 C 133.100 480.700 133.000 480.600 133.000 480.700 V 483.500 C 133.000 483.600 133.100 483.500 133.000 483.500 H 127.200 C 127.100 483.500 127.200 483.600 127.200 483.500 V 480.700 C 127.200 480.600 127.100 480.700 127.200 480.700 H 130.100 Z" stroke="rgb(0,0,255)" stroke-width="0.20" />
  <path d="M 118.100 480.700 H 121.000 C 121.100 480.700 121.000 480.600 121.000 480.700 V 483.500 C 121.000 483.600 121.100 483.500 121.000 483.500 H 115.200 C 115.100 483.500 115.200 483.600 115.200 483.500 V 480.700 C 115.200 480.600 115.100 480.700 115.200 480.700 H 118.100 Z" stroke="rgb(0,0,255)" stroke-width="0.20" />
  <path d="M 106.100 480.700 H 109.000 C 109.100 480.700 109.000 480.600 109.000 480.700 V 483.500 C 109.000 483.600 109.100 483.500 109.000 483.500 H 103.200 C 103.100 483.500 103.200 483.600 103.200 483.500 V 480.700 C 103.200 480.600 103.100 480.700 103.200 480.700 H 106.100 Z" stroke="rgb(0,0,255)" stroke-width="0.20" />
  <path d="M 94.100 480.700 H 97.000 C 97.100 480.700 97.000 480.600 97.000 480.700 V 483.500 C 97.000 483.600 97.100 483.500 97.000 483.500 H 91.200 C 91.100 483.500 91.200 483.600 91.200 483.500 V 480.700 C 91.200 480.600 91.100 480.700 91.200 480.700 H 94.100 Z" stroke="rgb(0,0,255)" stroke-width="0.20" />
  <path d="M 82.100 480.700 H 85.000 C 85.100 480.700 85.000 480.600 85.000 480.700 V 483.500 C 85.000 483.600 85.100 483.500 85.000 483.500 H 79.200 C 79.100 483.500 79.200 483.600 79.200 483.500 V 480.700 C 79.200 480.600 79.100 480.700 79.200 480.700 H 82.100 Z" stroke="rgb(0,0,255)" stroke-width="0.20" />
  <path d="M 67.100 480.700 H 70.000 C 70.100 480.700 70.000 480.600 70.000 480.700 V 483.500 C 70.000 483.600 70.100 483.500 70.000 483.500 H 64.200 C 64.100 483.500 64.200 483.600 64.200 483.500 V 480.700 C 64.200 480.600 64.100 480.700 64.200 480.700 H 67.100 Z" stroke="rgb(0,0,255)" stroke-width="0.20" />
  <path d="M 55.100 480.700 H 58.000 C 58.100 480.700 58.000 480.600 58.000 480.700 V 483.500 C 58.000 483.600 58.100 483.500 58.000 483.500 H 52.200 C 52.100 483.500 52.200 483.600 52.200 483.500 V 480.700 C 52.200 480.600 52.100 480.700 52.200 480.700 H 55.100 Z" stroke="rgb(0,0,255)" stroke-width="0.20" />
  <path d="M 43.100 480.700 H 46.000 C 46.100 480.700 46.000 480.600 46.000 480.700 V 483.500 C 46.000 483.600 46.100 483.500 46.000 483.500 H 40.200 C 40.100 483.500 40.200 483.600 40.200 483.500 V 480.700 C 40.200 480.600 40.100 480.700 40.200 480.700 H 43.100 Z" stroke="rgb(0,0,255)" stroke-width="0.20" />
  <path d="M 31.100 480.700 H 34.000 C 34.100 480.700 34.000 480.600 34.000 480.700 V 483.500 C 34.000 483.600 34.100 483.500 34.000 483.500 H 28.200 C 28.100 483.500 28.200 483.600 28.200 483.500 V 480.700 C 28.200 480.600 28.100 480.700 28.200 480.700 H 31.100 Z" stroke="rgb(0,0,255)" stroke-width="0.20" />
  <path d="M 19.100 480.700 H 22.000 C 22.100 480.700 22.000 480.600 22.000 480.700 V 483.500 C 22.000 483.600 22.100 483.500 22.000 483.500 H 16.200 C 16.100 483.500 16.200 483.600 16.200 483.500 V 480.700 C 16.200 480.600 16.100 480.700 16.200 480.700 H 19.100 Z" stroke="rgb(0,0,255)" stroke-width="0.20" />
  <path d="M 130.100 437.700 H 133.000 C 133.100 437.700 133.000 437.600 133.000 437.700 V 440.500 C 133.000 440.600 133.100 440.500 133.000 440.500 H 127.200 C 127.100 440.500 127.200 440.600 127.200 440.500 V 437.700 C 127.200 437.600 127.100 437.700 127.200 437.700 H 130.100 Z" stroke="rgb(0,0,255)" stroke-width="0.20" />
  <path d="M 118.100 437.700 H 121.000 C 121.100 437.700 121.000 437.600 121.000 437.700 V 440.500 C 121.000 440.600 121.100 440.500 121.000 440.500 H 115.200 C 115.100 440.500 115.200 440.600 115.200 440.500 V 437.700 C 115.200 437.600 115.100 437.700 115.200 437.700 H 118.100 Z" stroke="rgb(0,0,255)" stroke-width="0.20" />
  <path d="M 106.100 437.700 H 109.000 C 109.100 437.700 109.000 437.600 109.000 437.700 V 440.500 C 109.000 440.600 109.100 440.500 109.000 440.500 H 103.200 C 103.100 440.500 103.200 440.600 103.200 440.500 V 437.700 C 103.200 437.600 103.100 437.700 103.200 437.700 H 106.100 Z" stroke="rgb(0,0,255)" stroke-width="0.20" />
  <path d="M 94.100 437.700 H 97.000 C 97.100 437.700 97.000 437.600 97.000 437.700 V 440.500 C 97.000 440.600 97.100 440.500 97.000 440.500 H 91.200 C 91.100 440.500 91.200 440.600 91.200 440.500 V 437.700 C 91.200 437.600 91.100 437.700 91.200 437.700 H 94.100 Z" stroke="rgb(0,0,255)" stroke-width="0.20" />
  <path d="M 82.100 437.700 H 85.000 C 85.100 437.700 85.000 437.600 85.000 437.700 V 440.500 C 85.000 440.600 85.100 440.500 85.000 440.500 H 79.200 C 79.100 440.500 79.200 440.600 79.200 440.500 V 437.700 C 79.200 437.600 79.100 437.700 79.200 437.700 H 82.100 Z" stroke="rgb(0,0,255)" stroke-width="0.20" />
  <path d="M 67.100 437.700 H 70.000 C 70.100 437.700 70.000 437.600 70.000 437.700 V 440.500 C 70.000 440.600 70.100 440.500 70.000 440.500 H 64.200 C 64.100 440.500 64.200 440.600 64.200 440.500 V 437.700 C 64.200 437.600 64.100 437.700 64.200 437.700 H 67.100 Z" stroke="rgb(0,0,255)" stroke-width="0.20" />
  <path d="M 55.100 437.700 H 58.000 C 58.100 437.700 58.000 437.600 58.000 437.700 V 440.500 C 58.000 440.600 58.100 440.500 58.000 440.500 H 52.200 C 52.100 440.500 52.200 440.600 52.200 440.500 V 437.700 C 52.200 437.600 52.100 437.700 52.200 437.700 H 55.100 Z" stroke="rgb(0,0,255)" stroke-width="0.20" />
  <path d="M 43.100 437.700 H 46.000 C 46.100 437.700 46.000 437.600 46.000 437.700 V 440.500 C 46.000 440.600 46.100 440.500 46.000 440.500 H 40.200 C 40.100 440.500 40.200 440.600 40.200 440.500 V 437.700 C 40.200 437.600 40.100 437.700 40.200 437.700 H 43.100 Z" stroke="rgb(0,0,255)" stroke-width="0.20" />
  <path d="M 31.100 437.700 H 34.000 C 34.100 437.700 34.000 437.600 34.000 437.700 V 440.500 C 34.000 440.600 34.100 440.500 34.000 440.500 H 28.200 C 28.100 440.500 28.200 440.600 28.200 440.500 V 437.700 C 28.200 437.600 28.100 437.700 28.200 437.700 H 31.100 Z" stroke="rgb(0,0,255)" stroke-width="0.20" />
  <path d="M 19.100 437.700 H 22.000 C 22.100 437.700 22.000 437.600 22.000 437.700 V 440.500 C 22.000 440.600 22.100 440.500 22.000 440.500 H 16.200 C 16.100 440.500 16.200 440.600 16.200 440.500 V 437.700 C 16.200 437.600 16.100 437.700 16.200 437.700 H 19.100 Z" stroke="rgb(0,0,255)" stroke-width="0.20" />
</g>
<g id="p-1" style="fill:none;stroke-linecap:round;stroke-linejoin:round;">
  <path d="M 76.000 378.900 V 381.800 C 76.000 381.900 76.100 381.800 76.000 381.800 H 73.200 C 73.100 381.800 73.200 381.900 73.200 381.800 V 376.000 C 73.200 375.900 73.100 376.000 73.200 376.000 H 76.000 C 76.100 376.000 76.000 375.900 76.000 376.000 V 378.900 Z" stroke="rgb(0,0,255)" stroke-width="0.20" />
  <path d="M 76.000 366.900 V 369.800 C 76.000 369.900 76.100 369.800 76.000 369.800 H 73.200 C 73.100 369.800 73.200 369.900 73.200 369.800 V 364.000 C 73.200 363.900 73.100 364.000 73.200 364.000 H 76.000 C 76.100 364.000 76.000 363.900 76.000 364.000 V 366.900 Z" stroke="rgb(0,0,255)" stroke-width="0.20" />
  <path d="M 76.000 354.900 V 357.800 C 76.000 357.900 76.100 357.800 76.000 357.800 H 73.200 C 73.100 357.800 73.200 357.900 73.200 357.800 V 352.000 C 73.200 351.900 73.100 352.000 73.200 352.000 H 76.000 C 76.100 352.000 76.000 351.900 76.000 352.000 V 354.900 Z" stroke="rgb(0,0,255)" stroke-width="0.20" />
  <path d="M 20.600 389.800 H 17.700 C 17.600 389.800 17.700 389.900 17.700 389.800 V 387.000 C 17.700 386.900 17.600 387.000 17.700 387.000 H 23.500 C 23.600 387.000 23.500 386.900 23.500 387.000 V 389.800 C 23.500 389.900 23.600 389.800 23.500 389.800 H 20.600 Z" stroke="rgb(0,0,255)" stroke-width="0.20" />
  <path d="M 32.600 389.800 H 29.700 C 29.600 389.800 29.700 389.900 29.700 389.800 V 387.000 C 29.700 386.900 29.600 387.000 29.700 387.000 H 35.500 C 35.600 387.000 35.500 386.900 35.500 387.000 V 389.800 C 35.500 389.900 35.600 389.800 35.500 389.800 H 32.600 Z" stroke="rgb(0,0,255)" stroke-width="0.20" />
  <path d="M 44.600 389.800 H 41.700 C 41.600 389.800 41.700 389.900 41.700 389.800 V 387.000 C 41.700 386.900 41.600 387.000 41.700 387.000 H 47.500 C 47.600 387.000 47.500 386.900 47.500 387.000 V 389.800 C 47.500 389.900 47.600 389.800 47.500 389.800 H 44.600 Z" stroke="rgb(0,0,255)" stroke-width="0.20" />
  <path d="M 56.600 389.800 H 53.700 C 53.600 389.800 53.700 389.900 53.700 389.800 V 387.000 C 53.700 386.900 53.600 387.000 53.700 387.000 H 59.500 C 59.600 387.000 59.500 386.900 59.500 387.000 V 389.800 C 59.500 389.900 59.600 389.800 59.500 389.800 H 56.600 Z" stroke="rgb(0,0,255)" stroke-width="0.20" />
  <path d="M 68.600 389.800 H 65.700 C 65.600 389.800 65.700 389.900 65.700 389.800 V 387.000 C 65.700 386.900 65.600 387.000 65.700 387.000 H 71.500 C 71.600 387.000 71.500 386.900 71.500 387.000 V 389.800 C 71.500 389.900 71.600 389.800 71.500 389.800 H 68.600 Z" stroke="rgb(0,0,255)" stroke-width="0.20" />
  <path d="M 80.600 389.800 H 77.700 C 77.600 389.800 77.700 389.900 77.700 389.800 V 387.000 C 77.700 386.900 77.600 387.000 77.700 387.000 H 83.500 C 83.600 387.000 83.500 386.900 83.500 387.000 V 389.800 C 83.500 389.900 83.600 389.800 83.500 389.800 H 80.600 Z" stroke="rgb(0,0,255)" stroke-width="0.20" />
  <path d="M 92.600 389.800 H 89.700 C 89.600 389.800 89.700 389.900 89.700 389.800 V 387.000 C 89.700 386.900 89.600 387.000 89.700 387.000 H 95.500 C 95.600 387.000 95.500 386.900 95.500 387.000 V 389.800 C 95.500 389.900 95.600 389.800 95.500 389.800 H 92.600 Z" stroke="rgb(0,0,255)" stroke-width="0.20" />
  <path d="M 104.600 389.800 H 101.700 C 101.600 389.800 101.700 389.900 101.700 389.800 V 387.000 C 101.700 386.900 101.600 387.000 101.700 387.000 H 107.500 C 107.600 387.000 107.500 386.900 107.500 387.000 V 389.800 C 107.500 389.900 107.600 389.800 107.500 389.800 H 104.600 Z" stroke="rgb(0,0,255)" stroke-width="0.20" />
  <path d="M 116.600 389.800 H 113.700 C 113.600 389.800 113.700 389.900 113.700 389.800 V 387.000 C 113.700 386.900 113.600 387.000 113.700 387.000 H 119.500 C 119.600 387.000 119.500 386.900 119.500 387.000 V 389.800 C 119.500 389.900 119.600 389.800 119.500 389.800 H 116.600 Z" stroke="rgb(0,0,255)" stroke-width="0.20" />
  <path d="M 128.600 389.800 H 125.700 C 125.600 389.800 125.700 389.900 125.700 389.800 V 387.000 C 125.700 386.900 125.600 387.000 125.700 387.000 H 131.500 C 131.600 387.000 131.500 386.900 131.500 387.000 V 389.800 C 131.500 389.900 131.600 389.800 131.500 389.800 H 128.600 Z" stroke="rgb(0,0,255)" stroke-width="0.20" />
  <path d="M 13.100 393.000 H 136.100 H 139.100 C 139.155 393.000 139.200 392.955 139.200 392.900 V 387.900 C 139.200 387.845 139.155 387.800 139.100 387.800 H 136.200 C 136.100 387.800 136.200 387.900 136.200 387.800 V 382.000 C 136.200 381.900 136.100 382.000 136.200 382.000 H 139.100 C 139.155 382.000 139.200 381.955 139.200 381.900 V 375.900 C 139.200 375.845 139.155 375.800 139.100 375.800 H 136.200 C 136.100 375.800 136.200 375.900 136.200 375.800 V 370.000 C 136.200 369.900 136.100 370.000 136.200 370.000 H 139.100 C 139.155 370.000 139.200 369.955 139.200 369.900 V 363.900 C 139.200 363.845 139.155 363.800 139.100 363.800 H 136.200 C 136.100 363.800 136.200 363.900 136.200 363.800 V 358.000 C 136.200 357.900 136.100 358.000 136.200 358.000 H 139.100 C 139.155 358.000 139.200 357.955 139.200 357.900 V 351.900 C 139.200 351.845 139.155 351.800 139.100 351.800 H 136.200 C 136.100 351.800 136.200 351.900 136.200 351.800 V 346.000 C 136.200 345.900 136.100 346.000 136.200 346.000 H 139.100 C 139.155 346.000 139.200 345.955 139.200 345.900 V 339.900 C 139.200 339.845 139.155 339.800 139.100 339.800 H 136.200 C 136.100 339.800 136.200 339.900 136.200 339.800 V 334.000 C 136.200 333.900 136.100 334.000 136.200 334.000 H 139.100 C 139.155 334.000 139.200 333.955 139.200 333.900 V 327.900 C 139.200 327.845 139.155 327.800 139.100 327.800 H 136.200 C 136.100 327.800 136.200 327.900 136.200 327.800 V 322.000 C 136.200 321.900 136.100 322.000 136.200 322.000 H 139.100 C 139.155 322.000 139.200 321.955 139.200 321.900 V 316.900 C 139.200 316.845 139.155 316.800 139.100 316.800 H 136.100 H 131.700 C 131.600 316.800 131.700 316.900 131.700 316.800 V 313.900 C 131.700 313.845 131.655 313.800 131.600 313.800 H 125.600 C 125.545 313.800 125.500 313.845 125.500 313.900 V 316.800 C 125.500 316.900 125.600 316.800 125.500 316.800 H 119.700 C 119.600 316.800 119.700 316.900 119.700 316.800 V 313.900 C 119.700 313.845 119.655 313.800 119.600 313.800 H 113.600 C 113.545 313.800 113.500 313.845 113.500 313.900 V 316.800 C 113.500 316.900 113.600 316.800 113.500 316.800 H 107.700 C 107.600 316.800 107.700 316.900 107.700 316.800 V 313.900 C 107.700 313.845 107.655 313.800 107.600 313.800 H 101.600 C 101.545 313.800 101.500 313.845 101.500 313.900 V 316.800 C 101.500 316.900 101.600 316.800 101.500 316.800 H 95.700 C 95.600 316.800 95.700 316.900 95.700 316.800 V 313.900 C 95.700 313.845 95.655 313.800 95.600 313.800 H 89.600 C 89.545 313.800 89.500 313.845 89.500 313.900 V 316.800 C 89.500 316.900 89.600 316.800 89.500 316.800 H 83.700 C 83.600 316.800 83.700 316.900 83.700 316.800 V 313.900 C 83.700 313.845 83.655 313.800 83.600 313.800 H 77.600 C 77.545 313.800 77.500 313.845 77.500 313.900 V 316.800 C 77.500 316.900 77.600 316.800 77.500 316.800 H 71.700 C 71.600 316.800 71.700 316.900 71.700 316.800 V 313.900 C 71.700 313.845 71.655 313.800 71.600 313.800 H 65.600 C 65.545 313.800 65.500 313.845 65.500 313.900 V 316.800 C 65.500 316.900 65.600 316.800 65.500 316.800 H 59.700 C 59.600 316.800 59.700 316.900 59.700 316.800 V 313.900 C 59.700 313.845 59.655 313.800 59.600 313.800 H 53.600 C 53.545 313.800 53.500 313.845 53.500 313.900 V 316.800 C 53.500 316.900 53.600 316.800 53.500 316.800 H 47.700 C 47.600 316.800 47.700 316.900 47.700 316.800 V 313.900 C 47.700 313.845 47.655 313.800 47.600 313.800 H 41.600 C 41.545 313.800 41.500 313.845 41.500 313.900 V 316.800 C 41.500 316.900 41.600 316.800 41.500 316.800 H 35.700 C 35.600 316.800 35.700 316.900 35.700 316.800 V 313.900 C 35.700 313.845 35.655 313.800 35.600 313.800 H 29.600 C 29.545 313.800 29.500 313.845 29.500 313.900 V 316.800 C 29.500 316.900 29.600 316.800 29.500 316.800 H 23.700 C 23.600 316.800 23.700 316.900 23.700 316.800 V 313.900 C 23.700 313.845 23.655 313.800 23.600 313.800 H 17.600 C 17.545 313.800 17.500 313.845 17.500 313.900 V 316.800 C 17.500 316.900 17.600 316.800 17.500 316.800 H 13.100 H 10.100 C 10.045 316.800 10.000 316.845 10.000 316.900 V 321.900 C 10.000 321.955 10.045 322.000 10.100 322.000 H 13.000 C 13.100 322.000 13.000 321.900 13.000 322.000 V 327.800 C 13.000 327.900 13.100 327.800 13.000 327.800 H 10.100 C 10.045 327.800 10.000 327.845 10.000 327.900 V 333.900 C 10.000 333.955 10.045 334.000 10.100 334.000 H 13.000 C 13.100 334.000 13.000 333.900 13.000 334.000 V 339.800 C 13.000 339.900 13.100 339.800 13.000 339.800 H 10.100 C 10.045 339.800 10.000 339.845 10.000 339.900 V 345.900 C 10.000 345.955 10.045 346.000 10.100 346.000 H 13.000 C 13.100 346.000 13.000 345.900 13.000 346.000 V 351.800 C 13.000 351.900 13.100 351.800 13.000 351.800 H 10.100 C 10.045 351.800 10.000 351.845 10.000 351.900 V 357.900 C 10.000 357.955 10.045 358.000 10.100 358.000 H 13.000 C 13.100 358.000 13.000 357.900 13.000 358.000 V 363.800 C 13.000 363.900 13.100 363.800 13.000 363.800 H 10.100 C 10.045 363.800 10.000 363.845 10.000 363.900 V 369.900 C 10.000 369.955 10.045 370.000 10.100 370.000 H 13.000 C 13.100 370.000 13.000 369.900 13.000 370.000 V 375.800 C 13.000 375.900 13.100 375.800 13.000 375.800 H 10.100 C 10.045 375.800 10.000 375.845 10.000 375.900 V 381.900 C 10.000 381.955 10.045 382.000 10.100 382.000 H 13.000 C 13.100 382.000 13.000 381.900 13.000 382.000 V 387.800 C 13.000 387.900 13.100 387.800 13.000 387.800 H 10.100 C 10.045 387.800 10.000 387.845 10.000 387.900 V 392.900 C 10.000 392.955 10.045 393.000 10.100 393.000 H 13.100 Z" stroke="rgb(0,0,0)" stroke-width="0.20" />
</g>
<g id="p-2" style="fill:none;stroke-linecap:round;stroke-linejoin:round;">
  <path d="M 13.100 309.300 H 16.000 C 16.100 309.300 16.000 309.200 16.000 309.300 V 312.200 C 16.000 312.255 16.045 312.300 16.100 312.300 H 22.100 C 22.155 312.300 22.200 312.255 22.200 312.200 V 309.300 C 22.200 309.200 22.100 309.300 22.200 309.300 H 28.000 C 28.100 309.300 28.000 309.200 28.000 309.300 V 312.200 C 28.000 312.255 28.045 312.300 28.100 312.300 H 34.100 C 34.155 312.300 34.200 312.255 34.200 312.200 V 309.300 C 34.200 309.200 34.100 309.300 34.200 309.300 H 40.000 C 40.100 309.300 40.000 309.200 40.000 309.300 V 312.200 C 40.000 312.255 40.045 312.300 40.100 312.300 H 46.100 C 46.155 312.300 46.200 312.255 46.200 312.200 V 309.300 C 46.200 309.200 46.100 309.300 46.200 309.300 H 52.000 C 52.100 309.300 52.000 309.200 52.000 309.300 V 312.200 C 52.000 312.255 52.045 312.300 52.100 312.300 H 58.100 C 58.155 312.300 58.200 312.255 58.200 312.200 V 309.300 C 58.200 309.200 58.100 309.300 58.200 309.300 H 64.000 C 64.100 309.300 64.000 309.200 64.000 309.300 V 312.200 C 64.000 312.255 64.045 312.300 64.100 312.300 H 70.100 C 70.155 312.300 70.200 312.255 70.200 312.200 V 309.300 C 70.200 309.200 70.100 309.300 70.200 309.300 H 73.100 H 76.100 H 79.000 C 79.100 309.300 79.000 309.200 79.000 309.300 V 312.200 C 79.000 312.255 79.045 312.300 79.100 312.300 H 85.100 C 85.155 312.300 85.200 312.255 85.200 312.200 V 309.300 C 85.200 309.200 85.100 309.300 85.200 309.300 H 91.000 C 91.100 309.300 91.000 309.200 91.000 309.300 V 312.200 C 91.000 312.255 91.045 312.300 91.100 312.300 H 97.100 C 97.155 312.300 97.200 312.255 97.200 312.200 V 309.300 C 97.200 309.200 97.100 309.300 97.200 309.300 H 103.000 C 103.100 309.300 103.000 309.200 103.000 309.300 V 312.200 C 103.000 312.255 103.045 312.300 103.100 312.300 H 109.100 C 109.155 312.300 109.200 312.255 109.200 312.200 V 309.300 C 109.200 309.200 109.100 309.300 109.200 309.300 H 115.000 C 115.100 309.300 115.000 309.200 115.000 309.300 V 312.200 C 115.000 312.255 115.045 312.300 115.100 312.300 H 121.100 C 121.155 312.300 121.200 312.255 121.200 312.200 V 309.300 C 121.200 309.200 121.100 309.300 121.200 309.300 H 127.000 C 127.100 309.300 127.000 309.200 127.000 309.300 V 312.200 C 127.000 312.255 127.045 312.300 127.100 312.300 H 133.100 C 133.155 312.300 133.200 312.255 133.200 312.200 V 309.300 C 133.200 309.200 133.100 309.300 133.200 309.300 H 136.100 C 136.155 309.300 136.200 309.255 136.200 309.200 V 304.300 C 136.200 304.200 136.100 304.300 136.200 304.300 H 139.100 C 139.155 304.300 139.200 304.255 139.200 304.200 V 298.200 C 139.200 298.145 139.155 298.100 139.100 298.100 H 136.200 C 136.100 298.100 136.200 298.200 136.200 298.100 V 292.300 C 136.200 292.200 136.100 292.300 136.200 292.300 H 139.100 C 139.155 292.300 139.200 292.255 139.200 292.200 V 286.200 C 139.200 286.145 139.155 286.100 139.100 286.100 H 136.200 C 136.100 286.100 136.200 286.200 136.200 286.100 V 280.300 C 136.200 280.200 136.100 280.300 136.200 280.300 H 139.100 C 139.155 280.300 139.200 280.255 139.200 280.200 V 274.200 C 139.200 274.145 139.155 274.100 139.100 274.100 H 136.200 C 136.100 274.100 136.200 274.200 136.200 274.100 V 269.200 C 136.200 269.145 136.155 269.100 136.100 269.100 H 115.100 C 115.045 269.100 115.000 269.145 115.000 269.200 V 296.200 C 115.000 297.762 114.589 299.297 113.808 300.650 C 113.026 302.003 111.903 303.126 110.550 303.908 C 109.197 304.689 107.662 305.100 106.100 305.100 C 104.538 305.100 103.003 304.689 101.650 303.908 C 100.297 303.126 99.174 302.003 98.392 300.650 C 97.611 299.297 97.200 297.762 97.200 296.200 V 269.200 C 97.200 269.145 97.155 269.100 97.100 269.100 H 76.100 C 76.045 269.100 76.000 269.145 76.000 269.200 V 289.100 C 76.000 289.200 76.100 289.100 76.000 289.100 H 73.200 C 73.100 289.100 73.200 289.200 73.200 289.100 V 269.200 C 73.200 269.145 73.155 269.100 73.100 269.100 H 52.100 C 52.045 269.100 52.000 269.145 52.000 269.200 V 296.200 C 52.000 297.762 51.589 299.297 50.808 300.650 C 50.026 302.003 48.903 303.126 47.550 303.908 C 46.197 304.689 44.662 305.100 43.100 305.100 C 41.538 305.100 40.003 304.689 38.650 303.908 C 37.297 303.126 36.174 302.003 35.392 300.650 C 34.611 299.297 34.200 297.762 34.200 296.200 V 269.200 C 34.200 269.145 34.155 269.100 34.100 269.100 H 13.100 C 13.045 269.100 13.000 269.145 13.000 269.200 V 274.100 C 13.000 274.200 13.100 274.100 13.000 274.100 H 10.100 C 10.045 274.100 10.000 274.145 10.000 274.200 V 280.200 C 10.000 280.255 10.045 280.300 10.100 280.300 H 13.000 C 13.100 280.300 13.000 280.200 13.000 280.300 V 286.100 C 13.000 286.200 13.100 286.100 13.000 286.100 H 10.100 C 10.045 286.100 10.000 286.145 10.000 286.200 V 292.200 C 10.000 292.255 10.045 292.300 10.100 292.300 H 13.000 C 13.100 292.300 13.000 292.200 13.000 292.300 V 298.100 C 13.000 298.200 13.100 298.100 13.000 298.100 H 10.100 C 10.045 298.100 10.000 298.145 10.000 298.200 V 304.200 C 10.000 304.255 10.045 304.300 10.100 304.300 H 13.000 C 13.100 304.300 13.000 304.200 13.000 304.300 V 309.200 C 13.000 309.255 13.045 309.300 13.100 309.300 Z" stroke="rgb(0,0,0)" stroke-width="0.20" />
</g>
<g id="p-3" style="fill:none;stroke-linecap:round;stroke-linejoin:round;">
  <path d="M 13.100 264.600 H 16.000 C 16.100 264.600 16.000 264.500 16.000 264.600 V 267.500 C 16.000 267.555 16.045 267.600 16.100 267.600 H 22.100 C 22.155 267.600 22.200 267.555 22.200 267.500 V 264.600 C 22.200 264.500 22.100 264.600 22.200 264.600 H 28.000 C 28.100 264.600 28.000 264.500 28.000 264.600 V 267.500 C 28.000 267.555 28.045 267.600 28.100 267.600 H 34.100 C 34.155 267.600 34.200 267.555 34.200 267.500 V 264.600 C 34.200 264.500 34.100 264.600 34.200 264.600 H 40.000 C 40.100 264.600 40.000 264.500 40.000 264.600 V 267.500 C 40.000 267.555 40.045 267.600 40.100 267.600 H 46.100 C 46.155 267.600 46.200 267.555 46.200 267.500 V 264.600 C 46.200 264.500 46.100 264.600 46.200 264.600 H 52.000 C 52.100 264.600 52.000 264.500 52.000 264.600 V 267.500 C 52.000 267.555 52.045 267.600 52.100 267.600 H 58.100 C 58.155 267.600 58.200 267.555 58.200 267.500 V 264.600 C 58.200 264.500 58.100 264.600 58.200 264.600 H 64.000 C 64.100 264.600 64.000 264.500 64.000 264.600 V 267.500 C 64.000 267.555 64.045 267.600 64.100 267.600 H 70.100 C 70.155 267.600 70.200 267.555 70.200 267.500 V 264.600 C 70.200 264.500 70.100 264.600 70.200 264.600 H 73.100 H 76.100 H 79.000 C 79.100 264.600 79.000 264.500 79.000 264.600 V 267.500 C 79.000 267.555 79.045 267.600 79.100 267.600 H 85.100 C 85.155 267.600 85.200 267.555 85.200 267.500 V 264.600 C 85.200 264.500 85.100 264.600 85.200 264.600 H 91.000 C 91.100 264.600 91.000 264.500 91.000 264.600 V 267.500 C 91.000 267.555 91.045 267.600 91.100 267.600 H 97.100 C 97.155 267.600 97.200 267.555 97.200 267.500 V 264.600 C 97.200 264.500 97.100 264.600 97.200 264.600 H 103.000 C 103.100 264.600 103.000 264.500 103.000 264.600 V 267.500 C 103.000 267.555 103.045 267.600 103.100 267.600 H 109.100 C 109.155 267.600 109.200 267.555 109.200 267.500 V 264.600 C 109.200 264.500 109.100 264.600 109.200 264.600 H 115.000 C 115.100 264.600 115.000 264.500 115.000 264.600 V 267.500 C 115.000 267.555 115.045 267.600 115.100 267.600 H 121.100 C 121.155 267.600 121.200 267.555 121.200 267.500 V 264.600 C 121.200 264.500 121.100 264.600 121.200 264.600 H 127.000 C 127.100 264.600 127.000 264.500 127.000 264.600 V 267.500 C 127.000 267.555 127.045 267.600 127.100 267.600 H 133.100 C 133.155 267.600 133.200 267.555 133.200 267.500 V 264.600 C 133.200 264.500 133.100 264.600 133.200 264.600 H 136.100 C 136.155 264.600 136.200 264.555 136.200 264.500 V 259.600 C 136.200 259.500 136.100 259.600 136.200 259.600 H 139.100 C 139.155 259.600 139.200 259.555 139.200 259.500 V 253.500 C 139.200 253.445 139.155 253.400 139.100 253.400 H 136.200 C 136.100 253.400 136.200 253.500 136.200 253.400 V 247.600 C 136.200 247.500 136.100 247.600 136.200 247.600 H 139.100 C 139.155 247.600 139.200 247.555 139.200 247.500 V 241.500 C 139.200 241.445 139.155 241.400 139.100 241.400 H 136.200 C 136.100 241.400 136.200 241.500 136.200 241.400 V 235.600 C 136.200 235.500 136.100 235.600 136.200 235.600 H 139.100 C 139.155 235.600 139.200 235.555 139.200 235.500 V 229.500 C 139.200 229.445 139.155 229.400 139.100 229.400 H 136.200 C 136.100 229.400 136.200 229.500 136.200 229.400 V 224.500 C 136.200 224.445 136.155 224.400 136.100 224.400 H 115.100 C 115.045 224.400 115.000 224.445 115.000 224.500 V 251.500 C 115.000 253.062 114.589 254.597 113.808 255.950 C 113.026 257.303 111.903 258.426 110.550 259.208 C 109.197 259.989 107.662 260.400 106.100 260.400 C 104.538 260.400 103.003 259.989 101.650 259.208 C 100.297 258.426 99.174 257.303 98.392 255.950 C 97.611 254.597 97.200 253.062 97.200 251.500 V 224.500 C 97.200 224.445 97.155 224.400 97.100 224.400 H 76.100 C 76.045 224.400 76.000 224.445 76.000 224.500 V 244.400 C 76.000 244.500 76.100 244.400 76.000 244.400 H 73.200 C 73.100 244.400 73.200 244.500 73.200 244.400 V 224.500 C 73.200 224.445 73.155 224.400 73.100 224.400 H 52.100 C 52.045 224.400 52.000 224.445 52.000 224.500 V 251.500 C 52.000 253.062 51.589 254.597 50.808 255.950 C 50.026 257.303 48.903 258.426 47.550 259.208 C 46.197 259.989 44.662 260.400 43.100 260.400 C 41.538 260.400 40.003 259.989 38.650 259.208 C 37.297 258.426 36.174 257.303 35.392 255.950 C 34.611 254.597 34.200 253.062 34.200 251.500 V 224.500 C 34.200 224.445 34.155 224.400 34.100 224.400 H 13.100 C 13.045 224.400 13.000 224.445 13.000 224.500 V 229.400 C 13.000 229.500 13.100 229.400 13.000 229.400 H 10.100 C 10.045 229.400 10.000 229.445 10.000 229.500 V 235.500 C 10.000 235.555 10.045 235.600 10.100 235.600 H 13.000 C 13.100 235.600 13.000 235.500 13.000 235.600 V 241.400 C 13.000 241.500 13.100 241.400 13.000 241.400 H 10.100 C 10.045 241.400 10.000 241.445 10.000 241.500 V 247.500 C 10.000 247.555 10.045 247.600 10.100 247.600 H 13.000 C 13.100 247.600 13.000 247.500 13.000 247.600 V 253.400 C 13.000 253.500 13.100 253.400 13.000 253.400 H 10.100 C 10.045 253.400 10.000 253.445 10.000 253.500 V 259.500 C 10.000 259.555 10.045 259.600 10.100 259.600 H 13.000 C 13.100 259.600 13.000 259.500 13.000 259.600 V 264.500 C 13.000 264.555 13.045 264.600 13.100 264.600 Z" stroke="rgb(0,0,0)" stroke-width="0.20" />
</g>
<g id="p-4" style="fill:none;stroke-linecap:round;stroke-linejoin:round;">
  <path d="M 73.200 208.800 V 211.700 C 73.200 211.800 73.100 211.700 73.200 211.700 H 76.000 C 76.100 211.700 76.000 211.800 76.000 211.700 V 205.900 C 76.000 205.800 76.100 205.900 76.000 205.900 H 73.200 C 73.100 205.900 73.200 205.800 73.200 205.900 V 208.800 Z" stroke="rgb(0,0,255)" stroke-width="0.20" />
  <path d="M 73.200 196.800 V 199.700 C 73.200 199.800 73.100 199.700 73.200 199.700 H 76.000 C 76.100 199.700 76.000 199.800 76.000 199.700 V 193.900 C 76.000 193.800 76.100 193.900 76.000 193.900 H 73.200 C 73.100 193.900 73.200 193.800 73.200 193.900 V 196.800 Z" stroke="rgb(0,0,255)" stroke-width="0.20" />
  <path d="M 73.200 184.800 V 187.700 C 73.200 187.800 73.100 187.700 73.200 187.700 H 76.000 C 76.100 187.700 76.000 187.800 76.000 187.700 V 181.900 C 76.000 181.800 76.100 181.900 76.000 181.900 H 73.200 C 73.100 181.900 73.200 181.800 73.200 181.900 V 184.800 Z" stroke="rgb(0,0,255)" stroke-width="0.20" />
  <path d="M 128.600 219.700 H 131.500 C 131.600 219.700 131.500 219.800 131.500 219.700 V 216.900 C 131.500 216.800 131.600 216.900 131.500 216.900 H 125.700 C 125.600 216.900 125.700 216.800 125.700 216.900 V 219.700 C 125.700 219.800 125.600 219.700 125.700 219.700 H 128.600 Z" stroke="rgb(0,0,255)" stroke-width="0.20" />
  <path d="M 116.600 219.700 H 119.500 C 119.600 219.700 119.500 219.800 119.500 219.700 V 216.900 C 119.500 216.800 119.600 216.900 119.500 216.900 H 113.700 C 113.600 216.900 113.700 216.800 113.700 216.900 V 219.700 C 113.700 219.800 113.600 219.700 113.700 219.700 H 116.600 Z" stroke="rgb(0,0,255)" stroke-width="0.20" />
  <path d="M 104.600 219.700 H 107.500 C 107.600 219.700 107.500 219.800 107.500 219.700 V 216.900 C 107.500 216.800 107.600 216.900 107.500 216.900 H 101.700 C 101.600 216.900 101.700 216.800 101.700 216.900 V 219.700 C 101.700 219.800 101.600 219.700 101.700 219.700 H 104.600 Z" stroke="rgb(0,0,255)" stroke-width="0.20" />
  <path d="M 92.600 219.700 H 95.500 C 95.600 219.700 95.500 219.800 95.500 219.700 V 216.900 C 95.500 216.800 95.600 216.900 95.500 216.900 H 89.700 C 89.600 216.900 89.700 216.800 89.700 216.900 V 219.700 C 89.700 219.800 89.600 219.700 89.700 219.700 H 92.600 Z" stroke="rgb(0,0,255)" stroke-width="0.20" />
  <path d="M 80.600 219.700 H 83.500 C 83.600 219.700 83.500 219.800 83.500 219.700 V 216.900 C 83.500 216.800 83.600 216.900 83.500 216.900 H 77.700 C 77.600 216.900 77.700 216.800 77.700 216.900 V 219.700 C 77.700 219.800 77.600 219.700 77.700 219.700 H 80.600 Z" stroke="rgb(0,0,255)" stroke-width="0.20" />
  <path d="M 68.600 219.700 H 71.500 C 71.600 219.700 71.500 219.800 71.500 219.700 V 216.900 C 71.500 216.800 71.600 216.900 71.500 216.900 H 65.700 C 65.600 216.900 65.700 216.800 65.700 216.900 V 219.700 C 65.700 219.800 65.600 219.700 65.700 219.700 H 68.600 Z" stroke="rgb(0,0,255)" stroke-width="0.20" />
  <path d="M 56.600 219.700 H 59.500 C 59.600 219.700 59.500 219.800 59.500 219.700 V 216.900 C 59.500 216.800 59.600 216.900 59.500 216.900 H 53.700 C 53.600 216.900 53.700 216.800 53.700 216.900 V 219.700 C 53.700 219.800 53.600 219.700 53.700 219.700 H 56.600 Z" stroke="rgb(0,0,255)" stroke-width="0.20" />
  <path d="M 44.600 219.700 H 47.500 C 47.600 219.700 47.500 219.800 47.500 219.700 V 216.900 C 47.500 216.800 47.600 216.900 47.500 216.900 H 41.700 C 41.600 216.900 41.700 216.800 41.700 216.900 V 219.700 C 41.700 219.800 41.600 219.700 41.700 219.700 H 44.600 Z" stroke="rgb(0,0,255)" stroke-width="0.20" />
  <path d="M 32.600 219.700 H 35.500 C 35.600 219.700 35.500 219.800 35.500 219.700 V 216.900 C 35.500 216.800 35.600 216.900 35.500 216.900 H 29.700 C 29.600 216.900 29.700 216.800 29.700 216.900 V 219.700 C 29.700 219.800 29.600 219.700 29.700 219.700 H 32.600 Z" stroke="rgb(0,0,255)" stroke-width="0.20" />
  <path d="M 20.600 219.700 H 23.500 C 23.600 219.700 23.500 219.800 23.500 219.700 V 216.900 C 23.500 216.800 23.600 216.900 23.500 216.900 H 17.700 C 17.600 216.900 17.700 216.800 17.700 216.900 V 219.700 C 17.700 219.800 17.600 219.700 17.700 219.700 H 20.600 Z" stroke="rgb(0,0,255)" stroke-width="0.20" />
  <path d="M 136.100 222.900 H 13.100 H 10.100 C 10.045 222.900 10.000 222.855 10.000 222.800 V 217.800 C 10.000 217.745 10.045 217.700 10.100 217.700 H 13.000 C 13.100 217.700 13.000 217.800 13.000 217.700 V 211.900 C 13.000 211.800 13.100 211.900 13.000 211.900 H 10.100 C 10.045 211.900 10.000 211.855 10.000 211.800 V 205.800 C 10.000 205.745 10.045 205.700 10.100 205.700 H 13.000 C 13.100 205.700 13.000 205.800 13.000 205.700 V 199.900 C 13.000 199.800 13.100 199.900 13.000 199.900 H 10.100 C 10.045 199.900 10.000 199.855 10.000 199.800 V 193.800 C 10.000 193.745 10.045 193.700 10.100 193.700 H 13.000 C 13.100 193.700 13.000 193.800 13.000 193.700 V 187.900 C 13.000 187.800 13.100 187.900 13.000 187.900 H 10.100 C 10.045 187.900 10.000 187.855 10.000 187.800 V 181.800 C 10.000 181.745 10.045 181.700 10.100 181.700 H 13.000 C 13.100 181.700 13.000 181.800 13.000 181.700 V 175.900 C 13.000 175.800 13.100 175.900 13.000 175.900 H 10.100 C 10.045 175.900 10.000 175.855 10.000 175.800 V 169.800 C 10.000 169.745 10.045 169.700 10.100 169.700 H 13.000 C 13.100 169.700 13.000 169.800 13.000 169.700 V 163.900 C 13.000 163.800 13.100 163.900 13.000 163.900 H 10.100 C 10.045 163.900 10.000 163.855 10.000 163.800 V 157.800 C 10.000 157.745 10.045 157.700 10.100 157.700 H 13.000 C 13.100 157.700 13.000 157.800 13.000 157.700 V 151.900 C 13.000 151.800 13.100 151.900 13.000 151.900 H 10.100 C 10.045 151.900 10.000 151.855 10.000 151.800 V 146.800 C 10.000 146.745 10.045 146.700 10.100 146.700 H 13.100 H 17.500 C 17.600 146.700 17.500 146.800 17.500 146.700 V 143.800 C 17.500 143.745 17.545 143.700 17.600 143.700 H 23.600 C 23.655 143.700 23.700 143.745 23.700 143.800 V 146.700 C 23.700 146.800 23.600 146.700 23.700 146.700 H 29.500 C 29.600 146.700 29.500 146.800 29.500 146.700 V 143.800 C 29.500 143.745 29.545 143.700 29.600 143.700 H 35.600 C 35.655 143.700 35.700 143.745 35.700 143.800 V 146.700 C 35.700 146.800 35.600 146.700 35.700 146.700 H 41.500 C 41.600 146.700 41.500 146.800 41.500 146.700 V 143.800 C 41.500 143.745 41.545 143.700 41.600 143.700 H 47.600 C 47.655 143.700 47.700 143.745 47.700 143.800 V 146.700 C 47.700 146.800 47.600 146.700 47.700 146.700 H 53.500 C 53.600 146.700 53.500 146.800 53.500 146.700 V 143.800 C 53.500 143.745 53.545 143.700 53.600 143.700 H 59.600 C 59.655 143.700 59.700 143.745 59.700 143.800 V 146.700 C 59.700 146.800 59.600 146.700 59.700 146.700 H 65.500 C 65.600 146.700 65.500 146.800 65.500 146.700 V 143.800 C 65.500 143.745 65.545 143.700 65.600 143.700 H 71.600 C 71.655 143.700 71.700 143.745 71.700 143.800 V 146.700 C 71.700 146.800 71.600 146.700 71.700 146.700 H 77.500 C 77.600 146.700 77.500 146.800 77.500 146.700 V 143.800 C 77.500 143.745 77.545 143.700 77.600 143.700 H 83.600 C 83.655 143.700 83.700 143.745 83.700 143.800 V 146.700 C 83.700 146.800 83.600 146.700 83.700 146.700 H 89.500 C 89.600 146.700 89.500 146.800 89.500 146.700 V 143.800 C 89.500 143.745 89.545 143.700 89.600 143.700 H 95.600 C 95.655 143.700 95.700 143.745 95.700 143.800 V 146.700 C 95.700 146.800 95.600 146.700 95.700 146.700 H 101.500 C 101.600 146.700 101.500 146.800 101.500 146.700 V 143.800 C 101.500 143.745 101.545 143.700 101.600 143.700 H 107.600 C 107.655 143.700 107.700 143.745 107.700 143.800 V 146.700 C 107.700 146.800 107.600 146.700 107.700 146.700 H 113.500 C 113.600 146.700 113.500 146.800 113.500 146.700 V 143.800 C 113.500 143.745 113.545 143.700 113.600 143.700 H 119.600 C 119.655 143.700 119.700 143.745 119.700 143.800 V 146.700 C 119.700 146.800 119.600 146.700 119.700 146.700 H 125.500 C 125.600 146.700 125.500 146.800 125.500 146.700 V 143.800 C 125.500 143.745 125.545 143.700 125.600 143.700 H 131.600 C 131.655 143.700 131.700 143.745 131.700 143.800 V 146.700 C 131.700 146.800 131.600 146.700 131.700 146.700 H 136.100 H 139.100 C 139.155 146.700 139.200 146.745 139.200 146.800 V 151.800 C 139.200 151.855 139.155 151.900 139.100 151.900 H 136.200 C 136.100 151.900 136.200 151.800 136.200 151.900 V 157.700 C 136.200 157.800 136.100 157.700 136.200 157.700 H 139.100 C 139.155 157.700 139.200 157.745 139.200 157.800 V 163.800 C 139.200 163.855 139.155 163.900 139.100 163.900 H 136.200 C 136.100 163.900 136.200 163.800 136.200 163.900 V 169.700 C 136.200 169.800 136.100 169.700 136.200 169.700 H 139.100 C 139.155 169.700 139.200 169.745 139.200 169.800 V 175.800 C 139.200 175.855 139.155 175.900 139.100 175.900 H 136.200 C 136.100 175.900 136.200 175.800 136.200 175.900 V 181.700 C 136.200 181.800 136.100 181.700 136.200 181.700 H 139.100 C 139.155 181.700 139.200 181.745 139.200 181.800 V 187.800 C 139.200 187.855 139.155 187.900 139.100 187.900 H 136.200 C 136.100 187.900 136.200 187.800 136.200 187.900 V 193.700 C 136.200 193.800 136.100 193.700 136.200 193.700 H 139.100 C 139.155 193.700 139.200 193.745 139.200 193.800 V 199.800 C 139.200 199.855 139.155 199.900 139.100 199.900 H 136.200 C 136.100 199.900 136.200 199.800 136.200 199.900 V 205.700 C 136.200 205.800 136.100 205.700 136.200 205.700 H 139.100 C 139.155 205.700 139.200 205.745 139.200 205.800 V 211.800 C 139.200 211.855 139.155 211.900 139.100 211.900 H 136.200 C 136.100 211.900 136.200 211.800 136.200 211.900 V 217.700 C 136.200 217.800 136.100 217.700 136.200 217.700 H 139.100 C 139.155 217.700 139.200 217.745 139.200 217.800 V 222.800 C 139.200 222.855 139.155 222.900 139.100 222.900 H 136.100 Z" stroke="rgb(0,0,0)" stroke-width="0.20" />
</g>
<g id="p-5" style="fill:none;stroke-linecap:round;stroke-linejoin:round;">
  <path d="M 13.100 142.200 H 17.600 C 17.655 142.200 17.700 142.155 17.700 142.100 V 139.200 C 17.700 139.100 17.600 139.200 17.700 139.200 H 23.500 C 23.600 139.200 23.500 139.100 23.500 139.200 V 142.100 C 23.500 142.155 23.545 142.200 23.600 142.200 H 29.600 C 29.655 142.200 29.700 142.155 29.700 142.100 V 139.200 C 29.700 139.100 29.600 139.200 29.700 139.200 H 35.500 C 35.600 139.200 35.500 139.100 35.500 139.200 V 142.100 C 35.500 142.155 35.545 142.200 35.600 142.200 H 41.600 C 41.655 142.200 41.700 142.155 41.700 142.100 V 139.200 C 41.700 139.100 41.600 139.200 41.700 139.200 H 47.500 C 47.600 139.200 47.500 139.100 47.500 139.200 V 142.100 C 47.500 142.155 47.545 142.200 47.600 142.200 H 53.600 C 53.655 142.200 53.700 142.155 53.700 142.100 V 139.200 C 53.700 139.100 53.600 139.200 53.700 139.200 H 59.500 C 59.600 139.200 59.500 139.100 59.500 139.200 V 142.100 C 59.500 142.155 59.545 142.200 59.600 142.200 H 65.600 C 65.655 142.200 65.700 142.155 65.700 142.100 V 139.200 C 65.700 139.100 65.600 139.200 65.700 139.200 H 71.500 C 71.600 139.200 71.500 139.100 71.500 139.200 V 142.100 C 71.500 142.155 71.545 142.200 71.600 142.200 H 77.600 C 77.655 142.200 77.700 142.155 77.700 142.100 V 139.200 C 77.700 139.100 77.600 139.200 77.700 139.200 H 83.500 C 83.600 139.200 83.500 139.100 83.500 139.200 V 142.100 C 83.500 142.155 83.545 142.200 83.600 142.200 H 89.600 C 89.655 142.200 89.700 142.155 89.700 142.100 V 139.200 C 89.700 139.100 89.600 139.200 89.700 139.200 H 95.500 C 95.600 139.200 95.500 139.100 95.500 139.200 V 142.100 C 95.500 142.155 95.545 142.200 95.600 142.200 H 101.600 C 101.655 142.200 101.700 142.155 101.700 142.100 V 139.200 C 101.700 139.100 101.600 139.200 101.700 139.200 H 107.500 C 107.600 139.200 107.500 139.100 107.500 139.200 V 142.100 C 107.500 142.155 107.545 142.200 107.600 142.200 H 113.600 C 113.655 142.200 113.700 142.155 113.700 142.100 V 139.200 C 113.700 139.100 113.600 139.200 113.700 139.200 H 119.500 C 119.600 139.200 119.500 139.100 119.500 139.200 V 142.100 C 119.500 142.155 119.545 142.200 119.600 142.200 H 125.600 C 125.655 142.200 125.700 142.155 125.700 142.100 V 139.200 C 125.700 139.100 125.600 139.200 125.700 139.200 H 131.500 C 131.600 139.200 131.500 139.100 131.500 139.200 V 142.100 C 131.500 142.155 131.545 142.200 131.600 142.200 H 136.100 H 139.100 C 139.155 142.200 139.200 142.155 139.200 142.100 V 139.100 V 133.100 C 139.200 133.045 139.155 133.000 139.100 133.000 H 136.200 C 136.100 133.000 136.200 133.100 136.200 133.000 V 127.200 C 136.200 127.100 136.100 127.200 136.200 127.200 H 139.100 C 139.155 127.200 139.200 127.155 139.200 127.100 V 121.100 C 139.200 121.045 139.155 121.000 139.100 121.000 H 136.200 C 136.100 121.000 136.200 121.100 136.200 121.000 V 115.200 C 136.200 115.100 136.100 115.200 136.200 115.200 H 139.100 C 139.155 115.200 139.200 115.155 139.200 115.100 V 109.100 C 139.200 109.045 139.155 109.000 139.100 109.000 H 136.200 C 136.100 109.000 136.200 109.100 136.200 109.000 V 103.200 C 136.200 103.100 136.100 103.200 136.200 103.200 H 139.100 C 139.155 103.200 139.200 103.155 139.200 103.100 V 97.100 C 139.200 97.045 139.155 97.000 139.100 97.000 H 136.200 C 136.100 97.000 136.200 97.100 136.200 97.000 V 91.200 C 136.200 91.100 136.100 91.200 136.200 91.200 H 139.100 C 139.155 91.200 139.200 91.155 139.200 91.100 V 85.100 C 139.200 85.045 139.155 85.000 139.100 85.000 H 136.200 C 136.100 85.000 136.200 85.100 136.200 85.000 V 79.200 C 136.200 79.100 136.100 79.200 136.200 79.200 H 139.100 C 139.155 79.200 139.200 79.155 139.200 79.100 V 73.100 C 139.200 73.045 139.155 73.000 139.100 73.000 H 136.200 C 136.100 73.000 136.200 73.100 136.200 73.000 V 67.200 C 136.200 67.100 136.100 67.200 136.200 67.200 H 139.100 C 139.155 67.200 139.200 67.155 139.200 67.100 V 61.100 C 139.200 61.045 139.155 61.000 139.100 61.000 H 136.200 C 136.100 61.000 136.200 61.100 136.200 61.000 V 55.200 C 136.200 55.100 136.100 55.200 136.200 55.200 H 139.100 C 139.155 55.200 139.200 55.155 139.200 55.100 V 49.100 C 139.200 49.045 139.155 49.000 139.100 49.000 H 136.200 C 136.100 49.000 136.200 49.100 136.200 49.000 V 43.200 C 136.200 43.100 136.100 43.200 136.200 43.200 H 139.100 C 139.155 43.200 139.200 43.155 139.200 43.100 V 37.100 C 139.200 37.045 139.155 37.000 139.100 37.000 H 136.200 C 136.100 37.000 136.200 37.100 136.200 37.000 V 31.200 C 136.200 31.100 136.100 31.200 136.200 31.200 H 139.100 C 139.155 31.200 139.200 31.155 139.200 31.100 V 25.100 C 139.200 25.045 139.155 25.000 139.100 25.000 H 136.200 C 136.100 25.000 136.200 25.100 136.200 25.000 V 19.200 C 136.200 19.100 136.100 19.200 136.200 19.200 H 139.100 C 139.155 19.200 139.200 19.155 139.200 19.100 V 13.100 V 10.100 C 139.200 10.045 139.155 10.000 139.100 10.000 H 136.100 H 131.600 C 131.545 10.000 131.500 10.045 131.500 10.100 V 13.000 C 131.500 13.100 131.600 13.000 131.500 13.000 H 125.700 C 125.600 13.000 125.700 13.100 125.700 13.000 V 10.100 C 125.700 10.045 125.655 10.000 125.600 10.000 H 119.600 C 119.545 10.000 119.500 10.045 119.500 10.100 V 13.000 C 119.500 13.100 119.600 13.000 119.500 13.000 H 113.700 C 113.600 13.000 113.700 13.100 113.700 13.000 V 10.100 C 113.700 10.045 113.655 10.000 113.600 10.000 H 107.600 C 107.545 10.000 107.500 10.045 107.500 10.100 V 13.000 C 107.500 13.100 107.600 13.000 107.500 13.000 H 101.700 C 101.600 13.000 101.700 13.100 101.700 13.000 V 10.100 C 101.700 10.045 101.655 10.000 101.600 10.000 H 95.600 C 95.545 10.000 95.500 10.045 95.500 10.100 V 13.000 C 95.500 13.100 95.600 13.000 95.500 13.000 H 89.700 C 89.600 13.000 89.700 13.100 89.700 13.000 V 10.100 C 89.700 10.045 89.655 10.000 89.600 10.000 H 83.600 C 83.545 10.000 83.500 10.045 83.500 10.100 V 13.000 C 83.500 13.100 83.600 13.000 83.500 13.000 H 77.700 C 77.600 13.000 77.700 13.100 77.700 13.000 V 10.100 C 77.700 10.045 77.655 10.000 77.600 10.000 H 71.600 C 71.545 10.000 71.500 10.045 71.500 10.100 V 13.000 C 71.500 13.100 71.600 13.000 71.500 13.000 H 65.700 C 65.600 13.000 65.700 13.100 65.700 13.000 V 10.100 C 65.700 10.045 65.655 10.000 65.600 10.000 H 59.600 C 59.545 10.000 59.500 10.045 59.500 10.100 V 13.000 C 59.500 13.100 59.600 13.000 59.500 13.000 H 53.700 C 53.600 13.000 53.700 13.100 53.700 13.000 V 10.100 C 53.700 10.045 53.655 10.000 53.600 10.000 H 47.600 C 47.545 10.000 47.500 10.045 47.500 10.100 V 13.000 C 47.500 13.100 47.600 13.000 47.500 13.000 H 41.700 C 41.600 13.000 41.700 13.100 41.700 13.000 V 10.100 C 41.700 10.045 41.655 10.000 41.600 10.000 H 35.600 C 35.545 10.000 35.500 10.045 35.500 10.100 V 13.000 C 35.500 13.100 35.600 13.000 35.500 13.000 H 29.700 C 29.600 13.000 29.700 13.100 29.700 13.000 V 10.100 C 29.700 10.045 29.655 10.000 29.600 10.000 H 23.600 C 23.545 10.000 23.500 10.045 23.500 10.100 V 13.000 C 23.500 13.100 23.600 13.000 23.500 13.000 H 17.700 C 17.600 13.000 17.700 13.100 17.700 13.000 V 10.100 C 17.700 10.045 17.655 10.000 17.600 10.000 H 13.100 H 10.100 C 10.045 10.000 10.000 10.045 10.000 10.100 V 13.100 V 19.100 C 10.000 19.155 10.045 19.200 10.100 19.200 H 13.000 C 13.100 19.200 13.000 19.100 13.000 19.200 V 25.000 C 13.000 25.100 13.100 25.000 13.000 25.000 H 10.100 C 10.045 25.000 10.000 25.045 10.000 25.100 V 31.100 C 10.000 31.155 10.045 31.200 10.100 31.200 H 13.000 C 13.100 31.200 13.000 31.100 13.000 31.200 V 37.000 C 13.000 37.100 13.100 37.000 13.000 37.000 H 10.100 C 10.045 37.000 10.000 37.045 10.000 37.100 V 43.100 C 10.000 43.155 10.045 43.200 10.100 43.200 H 13.000 C 13.100 43.200 13.000 43.100 13.000 43.200 V 49.000 C 13.000 49.100 13.100 49.000 13.000 49.000 H 10.100 C 10.045 49.000 10.000 49.045 10.000 49.100 V 55.100 C 10.000 55.155 10.045 55.200 10.100 55.200 H 13.000 C 13.100 55.200 13.000 55.100 13.000 55.200 V 61.000 C 13.000 61.100 13.100 61.000 13.000 61.000 H 10.100 C 10.045 61.000 10.000 61.045 10.000 61.100 V 67.100 C 10.000 67.155 10.045 67.200 10.100 67.200 H 13.000 C 13.100 67.200 13.000 67.100 13.000 67.200 V 73.000 C 13.000 73.100 13.100 73.000 13.000 73.000 H 10.100 C 10.045 73.000 10.000 73.045 10.000 73.100 V 79.100 C 10.000 79.155 10.045 79.200 10.100 79.200 H 13.000 C 13.100 79.200 13.000 79.100 13.000 79.200 V 85.000 C 13.000 85.100 13.100 85.000 13.000 85.000 H 10.100 C 10.045 85.000 10.000 85.045 10.000 85.100 V 91.100 C 10.000 91.155 10.045 91.200 10.100 91.200 H 13.000 C 13.100 91.200 13.000 91.100 13.000 91.200 V 97.000 C 13.000 97.100 13.100 97.000 13.000 97.000 H 10.100 C 10.045 97.000 10.000 97.045 10.000 97.100 V 103.100 C 10.000 103.155 10.045 103.200 10.100 103.200 H 13.000 C 13.100 103.200 13.000 103.100 13.000 103.200 V 109.000 C 13.000 109.100 13.100 109.000 13.000 109.000 H 10.100 C 10.045 109.000 10.000 109.045 10.000 109.100 V 115.100 C 10.000 115.155 10.045 115.200 10.100 115.200 H 13.000 C 13.100 115.200 13.000 115.100 13.000 115.200 V 121.000 C 13.000 121.100 13.100 121.000 13.000 121.000 H 10.100 C 10.045 121.000 10.000 121.045 10.000 121.100 V 127.100 C 10.000 127.155 10.045 127.200 10.100 127.200 H 13.000 C 13.100 127.200 13.000 127.100 13.000 127.200 V 133.000 C 13.000 133.100 13.100 133.000 13.000 133.000 H 10.100 C 10.045 133.000 10.000 133.045 10.000 133.100 V 139.100 V 142.100 C 10.000 142.155 10.045 142.200 10.100 142.200 H 13.100 Z" stroke="rgb(0,0,0)" stroke-width="0.20" />
</g>
<g id="p-6" style="fill:none;stroke-linecap:round;stroke-linejoin:round;">
  <path d="M 186.700 512.600 V 515.500 C 186.700 515.600 186.800 515.500 186.700 515.500 H 183.900 C 183.800 515.500 183.900 515.600 183.900 515.500 V 509.700 C 183.900 509.600 183.800 509.700 183.900 509.700 H 186.700 C 186.800 509.700 186.700 509.600 186.700 509.700 V 512.600 Z" stroke="rgb(0,0,255)" stroke-width="0.20" />
  <path d="M 186.700 500.600 V 503.500 C 186.700 503.600 186.800 503.500 186.700 503.500 H 183.900 C 183.800 503.500 183.900 503.600 183.900 503.500 V 497.700 C 183.900 497.600 183.800 497.700 183.900 497.700 H 186.700 C 186.800 497.700 186.700 497.600 186.700 497.700 V 500.600 Z" stroke="rgb(0,0,255)" stroke-width="0.20" />
  <path d="M 186.700 488.600 V 491.500 C 186.700 491.600 186.800 491.500 186.700 491.500 H 183.900 C 183.800 491.500 183.900 491.600 183.900 491.500 V 485.700 C 183.900 485.600 183.800 485.700 183.900 485.700 H 186.700 C 186.800 485.700 186.700 485.600 186.700 485.700 V 488.600 Z" stroke="rgb(0,0,255)" stroke-width="0.20" />
  <path d="M 229.700 512.600 V 515.500 C 229.700 515.600 229.800 515.500 229.700 515.500 H 226.900 C 226.800 515.500 226.900 515.600 226.900 515.500 V 509.700 C 226.900 509.600 226.800 509.700 226.900 509.700 H 229.700 C 229.800 509.700 229.700 509.600 229.700 509.700 V 512.600 Z" stroke="rgb(0,0,255)" stroke-width="0.20" />
  <path d="M 229.700 500.600 V 503.500 C 229.700 503.600 229.800 503.500 229.700 503.500 H 226.900 C 226.800 503.500 226.900 503.600 226.900 503.500 V 497.700 C 226.900 497.600 226.800 497.700 226.900 497.700 H 229.700 C 229.800 497.700 229.700 497.600 229.700 497.700 V 500.600 Z" stroke="rgb(0,0,255)" stroke-width="0.20" />
  <path d="M 229.700 488.600 V 491.500 C 229.700 491.600 229.800 491.500 229.700 491.500 H 226.900 C 226.800 491.500 226.900 491.600 226.900 491.500 V 485.700 C 226.900 485.600 226.800 485.700 226.900 485.700 H 229.700 C 229.800 485.700 229.700 485.600 229.700 485.700 V 488.600 Z" stroke="rgb(0,0,255)" stroke-width="0.20" />
  <path d="M 152.800 523.500 H 149.900 C 149.800 523.500 149.900 523.600 149.900 523.500 V 520.700 C 149.900 520.600 149.800 520.700 149.900 520.700 H 155.700 C 155.800 520.700 155.700 520.600 155.700 520.700 V 523.500 C 155.700 523.600 155.800 523.500 155.700 523.500 H 152.800 Z" stroke="rgb(0,0,255)" stroke-width="0.20" />
  <path d="M 164.800 523.500 H 161.900 C 161.800 523.500 161.900 523.600 161.900 523.500 V 520.700 C 161.900 520.600 161.800 520.700 161.900 520.700 H 167.700 C 167.800 520.700 167.700 520.600 167.700 520.700 V 523.500 C 167.700 523.600 167.800 523.500 167.700 523.500 H 164.800 Z" stroke="rgb(0,0,255)" stroke-width="0.20" />
  <path d="M 176.800 523.500 H 173.900 C 173.800 523.500 173.900 523.600 173.900 523.500 V 520.700 C 173.900 520.600 173.800 520.700 173.900 520.700 H 179.700 C 179.800 520.700 179.700 520.600 179.700 520.700 V 523.500 C 179.700 523.600 179.800 523.500 179.700 523.500 H 176.800 Z" stroke="rgb(0,0,255)" stroke-width="0.20" />
  <path d="M 188.800 523.500 H 185.900 C 185.800 523.500 185.900 523.600 185.900 523.500 V 520.700 C 185.900 520.600 185.800 520.700 185.900 520.700 H 191.700 C 191.800 520.700 191.700 520.600 191.700 520.700 V 523.500 C 191.700 523.600 191.800 523.500 191.700 523.500 H 188.800 Z" stroke="rgb(0,0,255)" stroke-width="0.20" />
  <path d="M 200.800 523.500 H 197.900 C 197.800 523.500 197.900 523.600 197.900 523.500 V 520.700 C 197.900 520.600 197.800 520.700 197.900 520.700 H 203.700 C 203.800 520.700 203.700 520.600 203.700 520.700 V 523.500 C 203.700 523.600 203.800 523.500 203.700 523.500 H 200.800 Z" stroke="rgb(0,0,255)" stroke-width="0.20" />
  <path d="M 212.800 523.500 H 209.900 C 209.800 523.500 209.900 523.600 209.900 523.500 V 520.700 C 209.900 520.600 209.800 520.700 209.900 520.700 H 215.700 C 215.800 520.700 215.700 520.600 215.700 520.700 V 523.500 C 215.700 523.600 215.800 523.500 215.700 523.500 H 212.800 Z" stroke="rgb(0,0,255)" stroke-width="0.20" />
  <path d="M 224.800 523.500 H 221.900 C 221.800 523.500 221.900 523.600 221.900 523.500 V 520.700 C 221.900 520.600 221.800 520.700 221.900 520.700 H 227.700 C 227.800 520.700 227.700 520.600 227.700 520.700 V 523.500 C 227.700 523.600 227.800 523.500 227.700 523.500 H 224.800 Z" stroke="rgb(0,0,255)" stroke-width="0.20" />
  <path d="M 236.800 523.500 H 233.900 C 233.800 523.500 233.900 523.600 233.900 523.500 V 520.700 C 233.900 520.600 233.800 520.700 233.900 520.700 H 239.700 C 239.800 520.700 239.700 520.600 239.700 520.700 V 523.500 C 239.700 523.600 239.800 523.500 239.700 523.500 H 236.800 Z" stroke="rgb(0,0,255)" stroke-width="0.20" />
  <path d="M 248.800 523.500 H 245.900 C 245.800 523.500 245.900 523.600 245.900 523.500 V 520.700 C 245.900 520.600 245.800 520.700 245.900 520.700 H 251.700 C 251.800 520.700 251.700 520.600 251.700 520.700 V 523.500 C 251.700 523.600 251.800 523.500 251.700 523.500 H 248.800 Z" stroke="rgb(0,0,255)" stroke-width="0.20" />
  <path d="M 260.800 523.500 H 257.900 C 257.800 523.500 257.900 523.600 257.900 523.500 V 520.700 C 257.900 520.600 257.800 520.700 257.900 520.700 H 263.700 C 263.800 520.700 263.700 520.600 263.700 520.700 V 523.500 C 263.700 523.600 263.800 523.500 263.700 523.500 H 260.800 Z" stroke="rgb(0,0,255)" stroke-width="0.20" />
  <path d="M 143.800 526.700 H 269.800 C 269.855 526.700 269.900 526.655 269.900 526.600 V 521.700 C 269.900 521.600 269.800 521.700 269.900 521.700 H 272.800 C 272.855 521.700 272.900 521.655 272.900 521.600 V 515.600 C 272.900 515.545 272.855 515.500 272.800 515.500 H 269.900 C 269.800 515.500 269.900 515.600 269.900 515.500 V 509.700 C 269.900 509.600 269.800 509.700 269.900 509.700 H 272.800 C 272.855 509.700 272.900 509.655 272.900 509.600 V 503.600 C 272.900 503.545 272.855 503.500 272.800 503.500 H 269.900 C 269.800 503.500 269.900 503.600 269.900 503.500 V 497.700 C 269.900 497.600 269.800 497.700 269.900 497.700 H 272.800 C 272.855 497.700 272.900 497.655 272.900 497.600 V 491.600 C 272.900 491.545 272.855 491.500 272.800 491.500 H 269.900 C 269.800 491.500 269.900 491.600 269.900 491.500 V 485.700 C 269.900 485.600 269.800 485.700 269.900 485.700 H 272.800 C 272.855 485.700 272.900 485.655 272.900 485.600 V 479.600 C 272.900 479.545 272.855 479.500 272.800 479.500 H 269.900 C 269.800 479.500 269.900 479.600 269.900 479.500 V 473.700 C 269.900 473.600 269.800 473.700 269.900 473.700 H 272.800 C 272.855 473.700 272.900 473.655 272.900 473.600 V 467.600 C 272.900 467.545 272.855 467.500 272.800 467.500 H 269.900 C 269.800 467.500 269.900 467.600 269.900 467.500 V 461.700 C 269.900 461.600 269.800 461.700 269.900 461.700 H 272.800 C 272.855 461.700 272.900 461.655 272.900 461.600 V 455.600 C 272.900 455.545 272.855 455.500 272.800 455.500 H 269.900 C 269.800 455.500 269.900 455.600 269.900 455.500 V 450.600 C 269.900 450.545 269.855 450.500 269.800 450.500 H 263.900 C 263.800 450.500 263.900 450.600 263.900 450.500 V 447.600 C 263.900 447.545 263.855 447.500 263.800 447.500 H 257.800 C 257.745 447.500 257.700 447.545 257.700 447.600 V 450.500 C 257.700 450.600 257.800 450.500 257.700 450.500 H 251.900 C 251.800 450.500 251.900 450.600 251.900 450.500 V 447.600 C 251.900 447.545 251.855 447.500 251.800 447.500 H 245.800 C 245.745 447.500 245.700 447.545 245.700 447.600 V 450.500 C 245.700 450.600 245.800 450.500 245.700 450.500 H 239.900 C 239.800 450.500 239.900 450.600 239.900 450.500 V 447.600 C 239.900 447.545 239.855 447.500 239.800 447.500 H 233.800 C 233.745 447.500 233.700 447.545 233.700 447.600 V 450.500 C 233.700 450.600 233.800 450.500 233.700 450.500 H 227.900 C 227.800 450.500 227.900 450.600 227.900 450.500 V 447.600 C 227.900 447.545 227.855 447.500 227.800 447.500 H 221.800 C 221.745 447.500 221.700 447.545 221.700 447.600 V 450.500 C 221.700 450.600 221.800 450.500 221.700 450.500 H 215.900 C 215.800 450.500 215.900 450.600 215.900 450.500 V 447.600 C 215.900 447.545 215.855 447.500 215.800 447.500 H 209.800 C 209.745 447.500 209.700 447.545 209.700 447.600 V 450.500 C 209.700 450.600 209.800 450.500 209.700 450.500 H 203.900 C 203.800 450.500 203.900 450.600 203.900 450.500 V 447.600 C 203.900 447.545 203.855 447.500 203.800 447.500 H 197.800 C 197.745 447.500 197.700 447.545 197.700 447.600 V 450.500 C 197.700 450.600 197.800 450.500 197.700 450.500 H 191.900 C 191.800 450.500 191.900 450.600 191.900 450.500 V 447.600 C 191.900 447.545 191.855 447.500 191.800 447.500 H 185.800 C 185.745 447.500 185.700 447.545 185.700 447.600 V 450.500 C 185.700 450.600 185.800 450.500 185.700 450.500 H 179.900 C 179.800 450.500 179.900 450.600 179.900 450.500 V 447.600 C 179.900 447.545 179.855 447.500 179.800 447.500 H 173.800 C 173.745 447.500 173.700 447.545 173.700 447.600 V 450.500 C 173.700 450.600 173.800 450.500 173.700 450.500 H 167.900 C 167.800 450.500 167.900 450.600 167.900 450.500 V 447.600 C 167.900 447.545 167.855 447.500 167.800 447.500 H 161.800 C 161.745 447.500 161.700 447.545 161.700 447.600 V 450.500 C 161.700 450.600 161.800 450.500 161.700 450.500 H 155.900 C 155.800 450.500 155.900 450.600 155.900 450.500 V 447.600 C 155.900 447.545 155.855 447.500 155.800 447.500 H 149.800 C 149.745 447.500 149.700 447.545 149.700 447.600 V 450.500 C 149.700 450.600 149.800 450.500 149.700 450.500 H 143.800 C 143.745 450.500 143.700 450.545 143.700 450.600 V 455.500 C 143.700 455.600 143.800 455.500 143.700 455.500 H 140.800 C 140.745 455.500 140.700 455.545 140.700 455.600 V 461.600 C 140.700 461.655 140.745 461.700 140.800 461.700 H 143.700 C 143.800 461.700 143.700 461.600 143.700 461.700 V 467.500 C 143.700 467.600 143.800 467.500 143.700 467.500 H 140.800 C 140.745 467.500 140.700 467.545 140.700 467.600 V 473.600 C 140.700 473.655 140.745 473.700 140.800 473.700 H 143.700 C 143.800 473.700 143.700 473.600 143.700 473.700 V 479.500 C 143.700 479.600 143.800 479.500 143.700 479.500 H 140.800 C 140.745 479.500 140.700 479.545 140.700 479.600 V 485.600 C 140.700 485.655 140.745 485.700 140.800 485.700 H 143.700 C 143.800 485.700 143.700 485.600 143.700 485.700 V 491.500 C 143.700 491.600 143.800 491.500 143.700 491.500 H 140.800 C 140.745 491.500 140.700 491.545 140.700 491.600 V 497.600 C 140.700 497.655 140.745 497.700 140.800 497.700 H 143.700 C 143.800 497.700 143.700 497.600 143.700 497.700 V 503.500 C 143.700 503.600 143.800 503.500 143.700 503.500 H 140.800 C 140.745 503.500 140.700 503.545 140.700 503.600 V 509.600 C 140.700 509.655 140.745 509.700 140.800 509.700 H 143.700 C 143.800 509.700 143.700 509.600 143.700 509.700 V 515.500 C 143.700 515.600 143.800 515.500 143.700 515.500 H 140.800 C 140.745 515.500 140.700 515.545 140.700 515.600 V 521.600 C 140.700 521.655 140.745 521.700 140.800 521.700 H 143.700 C 143.800 521.700 143.700 521.600 143.700 521.700 V 526.600 C 143.700 526.655 143.745 526.700 143.800 526.700 Z" stroke="rgb(0,0,0)" stroke-width="0.20" />
</g>
<g id="p-7" style="fill:none;stroke-linecap:round;stroke-linejoin:round;">
  <path d="M 226.900 431.900 V 434.800 C 226.900 434.900 226.800 434.800 226.900 434.800 H 229.700 C 229.800 434.800 229.700 434.900 229.700 434.800 V 429.000 C 229.700 428.900 229.800 429.000 229.700 429.000 H 226.900 C 226.800 429.000 226.900 428.900 226.900 429.000 V 431.900 Z" stroke="rgb(0,0,255)" stroke-width="0.20" />
  <path d="M 226.900 419.900 V 422.800 C 226.900 422.900 226.800 422.800 226.900 422.800 H 229.700 C 229.800 422.800 229.700 422.900 229.700 422.800 V 417.000 C 229.700 416.900 229.800 417.000 229.700 417.000 H 226.900 C 226.800 417.000 226.900 416.900 226.900 417.000 V 419.900 Z" stroke="rgb(0,0,255)" stroke-width="0.20" />
  <path d="M 226.900 407.900 V 410.800 C 226.900 410.900 226.800 410.800 226.900 410.800 H 229.700 C 229.800 410.800 229.700 410.900 229.700 410.800 V 405.000 C 229.700 404.900 229.800 405.000 229.700 405.000 H 226.900 C 226.800 405.000 226.900 404.900 226.900 405.000 V 407.900 Z" stroke="rgb(0,0,255)" stroke-width="0.20" />
  <path d="M 183.900 431.900 V 434.800 C 183.900 434.900 183.800 434.800 183.900 434.800 H 186.700 C 186.800 434.800 186.700 434.900 186.700 434.800 V 429.000 C 186.700 428.900 186.800 429.000 186.700 429.000 H 183.900 C 183.800 429.000 183.900 428.900 183.900 429.000 V 431.900 Z" stroke="rgb(0,0,255)" stroke-width="0.20" />
  <path d="M 183.900 419.900 V 422.800 C 183.900 422.900 183.800 422.800 183.900 422.800 H 186.700 C 186.800 422.800 186.700 422.900 186.700 422.800 V 417.000 C 186.700 416.900 186.800 417.000 186.700 417.000 H 183.900 C 183.800 417.000 183.900 416.900 183.900 417.000 V 419.900 Z" stroke="rgb(0,0,255)" stroke-width="0.20" />
  <path d="M 183.900 407.900 V 410.800 C 183.900 410.900 183.800 410.800 183.900 410.800 H 186.700 C 186.800 410.800 186.700 410.900 186.700 410.800 V 405.000 C 186.700 404.900 186.800 405.000 186.700 405.000 H 183.900 C 183.800 405.000 183.900 404.900 183.900 405.000 V 407.900 Z" stroke="rgb(0,0,255)" stroke-width="0.20" />
  <path d="M 152.800 442.800 H 149.900 C 149.800 442.800 149.900 442.900 149.900 442.800 V 440.000 C 149.900 439.900 149.800 440.000 149.900 440.000 H 155.700 C 155.800 440.000 155.700 439.900 155.700 440.000 V 442.800 C 155.700 442.900 155.800 442.800 155.700 442.800 H 152.800 Z" stroke="rgb(0,0,255)" stroke-width="0.20" />
  <path d="M 164.800 442.800 H 161.900 C 161.800 442.800 161.900 442.900 161.900 442.800 V 440.000 C 161.900 439.900 161.800 440.000 161.900 440.000 H 167.700 C 167.800 440.000 167.700 439.900 167.700 440.000 V 442.800 C 167.700 442.900 167.800 442.800 167.700 442.800 H 164.800 Z" stroke="rgb(0,0,255)" stroke-width="0.20" />
  <path d="M 176.800 442.800 H 173.900 C 173.800 442.800 173.900 442.900 173.900 442.800 V 440.000 C 173.900 439.900 173.800 440.000 173.900 440.000 H 179.700 C 179.800 440.000 179.700 439.900 179.700 440.000 V 442.800 C 179.700 442.900 179.800 442.800 179.700 442.800 H 176.800 Z" stroke="rgb(0,0,255)" stroke-width="0.20" />
  <path d="M 188.800 442.800 H 185.900 C 185.800 442.800 185.900 442.900 185.900 442.800 V 440.000 C 185.900 439.900 185.800 440.000 185.900 440.000 H 191.700 C 191.800 440.000 191.700 439.900 191.700 440.000 V 442.800 C 191.700 442.900 191.800 442.800 191.700 442.800 H 188.800 Z" stroke="rgb(0,0,255)" stroke-width="0.20" />
  <path d="M 200.800 442.800 H 197.900 C 197.800 442.800 197.900 442.900 197.900 442.800 V 440.000 C 197.900 439.900 197.800 440.000 197.900 440.000 H 203.700 C 203.800 440.000 203.700 439.900 203.700 440.000 V 442.800 C 203.700 442.900 203.800 442.800 203.700 442.800 H 200.800 Z" stroke="rgb(0,0,255)" stroke-width="0.20" />
  <path d="M 212.800 442.800 H 209.900 C 209.800 442.800 209.900 442.900 209.900 442.800 V 440.000 C 209.900 439.900 209.800 440.000 209.900 440.000 H 215.700 C 215.800 440.000 215.700 439.900 215.700 440.000 V 442.800 C 215.700 442.900 215.800 442.800 215.700 442.800 H 212.800 Z" stroke="rgb(0,0,255)" stroke-width="0.20" />
  <path d="M 224.800 442.800 H 221.900 C 221.800 442.800 221.900 442.900 221.900 442.800 V 440.000 C 221.900 439.900 221.800 440.000 221.900 440.000 H 227.700 C 227.800 440.000 227.700 439.900 227.700 440.000 V 442.800 C 227.700 442.900 227.800 442.800 227.700 442.800 H 224.800 Z" stroke="rgb(0,0,255)" stroke-width="0.20" />
  <path d="M 236.800 442.800 H 233.900 C 233.800 442.800 233.900 442.900 233.900 442.800 V 440.000 C 233.900 439.900 233.800 440.000 233.900 440.000 H 239.700 C 239.800 440.000 239.700 439.900 239.700 440.000 V 442.800 C 239.700 442.900 239.800 442.800 239.700 442.800 H 236.800 Z" stroke="rgb(0,0,255)" stroke-width="0.20" />
  <path d="M 248.800 442.800 H 245.900 C 245.800 442.800 245.900 442.900 245.900 442.800 V 440.000 C 245.900 439.900 245.800 440.000 245.900 440.000 H 251.700 C 251.800 440.000 251.700 439.900 251.700 440.000 V 442.800 C 251.700 442.900 251.800 442.800 251.700 442.800 H 248.800 Z" stroke="rgb(0,0,255)" stroke-width="0.20" />
  <path d="M 260.800 442.800 H 257.900 C 257.800 442.800 257.900 442.900 257.900 442.800 V 440.000 C 257.900 439.900 257.800 440.000 257.900 440.000 H 263.700 C 263.800 440.000 263.700 439.900 263.700 440.000 V 442.800 C 263.700 442.900 263.800 442.800 263.700 442.800 H 260.800 Z" stroke="rgb(0,0,255)" stroke-width="0.20" />
  <path d="M 143.800 446.000 H 269.800 C 269.855 446.000 269.900 445.955 269.900 445.900 V 441.000 C 269.900 440.900 269.800 441.000 269.900 441.000 H 272.800 C 272.855 441.000 272.900 440.955 272.900 440.900 V 434.900 C 272.900 434.845 272.855 434.800 272.800 434.800 H 269.900 C 269.800 434.800 269.900 434.900 269.900 434.800 V 429.000 C 269.900 428.900 269.800 429.000 269.900 429.000 H 272.800 C 272.855 429.000 272.900 428.955 272.900 428.900 V 422.900 C 272.900 422.845 272.855 422.800 272.800 422.800 H 269.900 C 269.800 422.800 269.900 422.900 269.900 422.800 V 417.000 C 269.900 416.900 269.800 417.000 269.900 417.000 H 272.800 C 272.855 417.000 272.900 416.955 272.900 416.900 V 410.900 C 272.900 410.845 272.855 410.800 272.800 410.800 H 269.900 C 269.800 410.800 269.900 410.900 269.900 410.800 V 405.000 C 269.900 404.900 269.800 405.000 269.900 405.000 H 272.800 C 272.855 405.000 272.900 404.955 272.900 404.900 V 398.900 C 272.900 398.845 272.855 398.800 272.800 398.800 H 269.900 C 269.800 398.800 269.900 398.900 269.900 398.800 V 393.000 C 269.900 392.900 269.800 393.000 269.900 393.000 H 272.800 C 272.855 393.000 272.900 392.955 272.900 392.900 V 386.900 C 272.900 386.845 272.855 386.800 272.800 386.800 H 269.900 C 269.800 386.800 269.900 386.900 269.900 386.800 V 381.000 C 269.900 380.900 269.800 381.000 269.900 381.000 H 272.800 C 272.855 381.000 272.900 380.955 272.900 380.900 V 374.900 C 272.900 374.845 272.855 374.800 272.800 374.800 H 269.900 C 269.800 374.800 269.900 374.900 269.900 374.800 V 369.900 C 269.900 369.845 269.855 369.800 269.800 369.800 H 263.900 C 263.800 369.800 263.900 369.900 263.900 369.800 V 366.900 C 263.900 366.845 263.855 366.800 263.800 366.800 H 257.800 C 257.745 366.800 257.700 366.845 257.700 366.900 V 369.800 C 257.700 369.900 257.800 369.800 257.700 369.800 H 251.900 C 251.800 369.800 251.900 369.900 251.900 369.800 V 366.900 C 251.900 366.845 251.855 366.800 251.800 366.800 H 245.800 C 245.745 366.800 245.700 366.845 245.700 366.900 V 369.800 C 245.700 369.900 245.800 369.800 245.700 369.800 H 239.900 C 239.800 369.800 239.900 369.900 239.900 369.800 V 366.900 C 239.900 366.845 239.855 366.800 239.800 366.800 H 233.800 C 233.745 366.800 233.700 366.845 233.700 366.900 V 369.800 C 233.700 369.900 233.800 369.800 233.700 369.800 H 227.900 C 227.800 369.800 227.900 369.900 227.900 369.800 V 366.900 C 227.900 366.845 227.855 366.800 227.800 366.800 H 221.800 C 221.745 366.800 221.700 366.845 221.700 366.900 V 369.800 C 221.700 369.900 221.800 369.800 221.700 369.800 H 215.900 C 215.800 369.800 215.900 369.900 215.900 369.800 V 366.900 C 215.900 366.845 215.855 366.800 215.800 366.800 H 209.800 C 209.745 366.800 209.700 366.845 209.700 366.900 V 369.800 C 209.700 369.900 209.800 369.800 209.700 369.800 H 203.900 C 203.800 369.800 203.900 369.900 203.900 369.800 V 366.900 C 203.900 366.845 203.855 366.800 203.800 366.800 H 197.800 C 197.745 366.800 197.700 366.845 197.700 366.900 V 369.800 C 197.700 369.900 197.800 369.800 197.700 369.800 H 191.900 C 191.800 369.800 191.900 369.900 191.900 369.800 V 366.900 C 191.900 366.845 191.855 366.800 191.800 366.800 H 185.800 C 185.745 366.800 185.700 366.845 185.700 366.900 V 369.800 C 185.700 369.900 185.800 369.800 185.700 369.800 H 179.900 C 179.800 369.800 179.900 369.900 179.900 369.800 V 366.900 C 179.900 366.845 179.855 366.800 179.800 366.800 H 173.800 C 173.745 366.800 173.700 366.845 173.700 366.900 V 369.800 C 173.700 369.900 173.800 369.800 173.700 369.800 H 167.900 C 167.800 369.800 167.900 369.900 167.900 369.800 V 366.900 C 167.900 366.845 167.855 366.800 167.800 366.800 H 161.800 C 161.745 366.800 161.700 366.845 161.700 366.900 V 369.800 C 161.700 369.900 161.800 369.800 161.700 369.800 H 155.900 C 155.800 369.800 155.900 369.900 155.900 369.800 V 366.900 C 155.900 366.845 155.855 366.800 155.800 366.800 H 149.800 C 149.745 366.800 149.700 366.845 149.700 366.900 V 369.800 C 149.700 369.900 149.800 369.800 149.700 369.800 H 143.800 C 143.745 369.800 143.700 369.845 143.700 369.900 V 374.800 C 143.700 374.900 143.800 374.800 143.700 374.800 H 140.800 C 140.745 374.800 140.700 374.845 140.700 374.900 V 380.900 C 140.700 380.955 140.745 381.000 140.800 381.000 H 143.700 C 143.800 381.000 143.700 380.900 143.700 381.000 V 386.800 C 143.700 386.900 143.800 386.800 143.700 386.800 H 140.800 C 140.745 386.800 140.700 386.845 140.700 386.900 V 392.900 C 140.700 392.955 140.745 393.000 140.800 393.000 H 143.700 C 143.800 393.000 143.700 392.900 143.700 393.000 V 398.800 C 143.700 398.900 143.800 398.800 143.700 398.800 H 140.800 C 140.745 398.800 140.700 398.845 140.700 398.900 V 404.900 C 140.700 404.955 140.745 405.000 140.800 405.000 H 143.700 C 143.800 405.000 143.700 404.900 143.700 405.000 V 410.800 C 143.700 410.900 143.800 410.800 143.700 410.800 H 140.800 C 140.745 410.800 140.700 410.845 140.700 410.900 V 416.900 C 140.700 416.955 140.745 417.000 140.800 417.000 H 143.700 C 143.800 417.000 143.700 416.900 143.700 417.000 V 422.800 C 143.700 422.900 143.800 422.800 143.700 422.800 H 140.800 C 140.745 422.800 140.700 422.845 140.700 422.900 V 428.900 C 140.700 428.955 140.745 429.000 140.800 429.000 H 143.700 C 143.800 429.000 143.700 428.900 143.700 429.000 V 434.800 C 143.700 434.900 143.800 434.800 143.700 434.800 H 140.800 C 140.745 434.800 140.700 434.845 140.700 434.900 V 440.900 C 140.700 440.955 140.745 441.000 140.800 441.000 H 143.700 C 143.800 441.000 143.700 440.900 143.700 441.000 V 445.900 C 143.700 445.955 143.745 446.000 143.800 446.000 Z" stroke="rgb(0,0,0)" stroke-width="0.20" />
</g>
<g id="p-8" style="fill:none;stroke-linecap:round;stroke-linejoin:round;">
  <path d="M 143.800 362.300 H 148.700 C 148.800 362.300 148.700 362.200 148.700 362.300 V 365.200 C 148.700 365.255 148.745 365.300 148.800 365.300 H 154.800 C 154.855 365.300 154.900 365.255 154.900 365.200 V 362.300 C 154.900 362.200 154.800 362.300 154.900 362.300 H 160.700 C 160.800 362.300 160.700 362.200 160.700 362.300 V 365.200 C 160.700 365.255 160.745 365.300 160.800 365.300 H 166.800 C 166.855 365.300 166.900 365.255 166.900 365.200 V 362.300 C 166.900 362.200 166.800 362.300 166.900 362.300 H 172.700 C 172.800 362.300 172.700 362.200 172.700 362.300 V 365.200 C 172.700 365.255 172.745 365.300 172.800 365.300 H 178.800 C 178.855 365.300 178.900 365.255 178.900 365.200 V 362.300 C 178.900 362.200 178.800 362.300 178.900 362.300 H 183.800 C 183.855 362.300 183.900 362.255 183.900 362.200 V 342.300 C 183.900 342.200 183.800 342.300 183.900 342.300 H 186.700 C 186.800 342.300 186.700 342.200 186.700 342.300 V 362.200 C 186.700 362.255 186.745 362.300 186.800 362.300 H 191.700 C 191.800 362.300 191.700 362.200 191.700 362.300 V 365.200 C 191.700 365.255 191.745 365.300 191.800 365.300 H 197.800 C 197.855 365.300 197.900 365.255 197.900 365.200 V 362.300 C 197.900 362.200 197.800 362.300 197.900 362.300 H 203.700 C 203.800 362.300 203.700 362.200 203.700 362.300 V 365.200 C 203.700 365.255 203.745 365.300 203.800 365.300 H 209.800 C 209.855 365.300 209.900 365.255 209.900 365.200 V 362.300 C 209.900 362.200 209.800 362.300 209.900 362.300 H 215.700 C 215.800 362.300 215.700 362.200 215.700 362.300 V 365.200 C 215.700 365.255 215.745 365.300 215.800 365.300 H 221.800 C 221.855 365.300 221.900 365.255 221.900 365.200 V 362.300 C 221.900 362.200 221.800 362.300 221.900 362.300 H 226.800 C 226.855 362.300 226.900 362.255 226.900 362.200 V 342.300 C 226.900 342.200 226.800 342.300 226.900 342.300 H 229.700 C 229.800 342.300 229.700 342.200 229.700 342.300 V 362.200 C 229.700 362.255 229.745 362.300 229.800 362.300 H 234.700 C 234.800 362.300 234.700 362.200 234.700 362.300 V 365.200 C 234.700 365.255 234.745 365.300 234.800 365.300 H 240.800 C 240.855 365.300 240.900 365.255 240.900 365.200 V 362.300 C 240.900 362.200 240.800 362.300 240.900 362.300 H 246.700 C 246.800 362.300 246.700 362.200 246.700 362.300 V 365.200 C 246.700 365.255 246.745 365.300 246.800 365.300 H 252.800 C 252.855 365.300 252.900 365.255 252.900 365.200 V 362.300 C 252.900 362.200 252.800 362.300 252.900 362.300 H 258.700 C 258.800 362.300 258.700 362.200 258.700 362.300 V 365.200 C 258.700 365.255 258.745 365.300 258.800 365.300 H 264.800 C 264.855 365.300 264.900 365.255 264.900 365.200 V 362.300 C 264.900 362.200 264.800 362.300 264.900 362.300 H 269.800 C 269.855 362.300 269.900 362.255 269.900 362.200 V 357.300 C 269.900 357.200 269.800 357.300 269.900 357.300 H 272.800 C 272.855 357.300 272.900 357.255 272.900 357.200 V 351.200 C 272.900 351.145 272.855 351.100 272.800 351.100 H 269.900 C 269.800 351.100 269.900 351.200 269.900 351.100 V 345.300 C 269.900 345.200 269.800 345.300 269.900 345.300 H 272.800 C 272.855 345.300 272.900 345.255 272.900 345.200 V 339.200 C 272.900 339.145 272.855 339.100 272.800 339.100 H 269.900 C 269.800 339.100 269.900 339.200 269.900 339.100 V 333.300 C 269.900 333.200 269.800 333.300 269.900 333.300 H 272.800 C 272.855 333.300 272.900 333.255 272.900 333.200 V 327.200 C 272.900 327.145 272.855 327.100 272.800 327.100 H 269.900 C 269.800 327.100 269.900 327.200 269.900 327.100 V 322.200 C 269.900 322.145 269.855 322.100 269.800 322.100 H 143.800 C 143.745 322.100 143.700 322.145 143.700 322.200 V 327.100 C 143.700 327.200 143.800 327.100 143.700 327.100 H 140.800 C 140.745 327.100 140.700 327.145 140.700 327.200 V 333.200 C 140.700 333.255 140.745 333.300 140.800 333.300 H 143.700 C 143.800 333.300 143.700 333.200 143.700 333.300 V 339.100 C 143.700 339.200 143.800 339.100 143.700 339.100 H 140.800 C 140.745 339.100 140.700 339.145 140.700 339.200 V 345.200 C 140.700 345.255 140.745 345.300 140.800 345.300 H 143.700 C 143.800 345.300 143.700 345.200 143.700 345.300 V 351.100 C 143.700 351.200 143.800 351.100 143.700 351.100 H 140.800 C 140.745 351.100 140.700 351.145 140.700 351.200 V 357.200 C 140.700 357.255 140.745 357.300 140.800 357.300 H 143.700 C 143.800 357.300 143.700 357.200 143.700 357.300 V 362.200 C 143.700 362.255 143.745 362.300 143.800 362.300 Z" stroke="rgb(0,0,0)" stroke-width="0.20" />
</g>
</svg>